ChamferedBeveledAngled-Skinny.ufo
<glyph name="exclamation" format="2">
  <advance width="145.8"/>
  <unicode hex="0021"/>
  <outline>
    <contour>
      <point x="32.900001525878906" y="200" type="line"/>
      <point x="112.9000015258789" y="200" type="line"/>
      <point x="112.9000015258789" y="800" type="line"/>
      <point x="32.900001525878906" y="800" type="line"/>
    </contour>
    <contour>
      <point x="32.9" y="0" type="line"/>
      <point x="112.9" y="0" type="line"/>
      <point x="112.9" y="80.0" type="line"/>
      <point x="32.9" y="80.0" type="line"/>
    </contour>
  </outline>
</glyph>
<glyph name="numbersign" format="2">
  <advance width="420.80000000000007"/>
  <unicode hex="0023"/>
  <outline>
    <contour>
      <point x="112.9000015258789" y="210" type="line"/>
      <point x="112.9000015258789" y="-5" type="line"/>
      <point x="143.45728302001953" y="-5" type="line"/>
      <point x="192.9000015258789" y="44.442718505859375" type="line"/>
      <point x="192.9000015258789" y="210" type="line"/>
      <point x="227.9000015258789" y="210" type="line"/>
      <point x="227.9000015258789" y="-5" type="line"/>
      <point x="258.45728302001953" y="-5" type="line"/>
      <point x="307.9000015258789" y="44.442718505859375" type="line"/>
      <point x="307.9000015258789" y="210" type="line"/>
      <point x="338.45728302001953" y="210" type="line"/>
      <point x="387.9000015258789" y="259.4427185058594" type="line"/>
      <point x="387.9000015258789" y="290" type="line"/>
      <point x="307.9000015258789" y="290" type="line"/>
      <point x="307.9000015258789" y="510" type="line"/>
      <point x="338.45728302001953" y="510" type="line"/>
      <point x="387.9000015258789" y="559.4427185058594" type="line"/>
      <point x="387.9000015258789" y="590" type="line"/>
      <point x="307.9000015258789" y="590" type="line"/>
      <point x="307.9000015258789" y="805" type="line"/>
      <point x="277.3427200317383" y="805" type="line"/>
      <point x="227.9000015258789" y="755.5572814941406" type="line"/>
      <point x="227.9000015258789" y="590" type="line"/>
      <point x="192.9000015258789" y="590" type="line"/>
      <point x="192.9000015258789" y="805" type="line"/>
      <point x="162.34272003173828" y="805" type="line"/>
      <point x="112.9000015258789" y="755.5572814941406" type="line"/>
      <point x="112.9000015258789" y="590" type="line"/>
      <point x="82.34272003173828" y="590" type="line"/>
      <point x="32.900001525878906" y="540.5572814941406" type="line"/>
      <point x="32.900001525878906" y="510" type="line"/>
      <point x="112.9000015258789" y="510" type="line"/>
      <point x="112.9000015258789" y="290" type="line"/>
      <point x="82.34272003173828" y="290" type="line"/>
      <point x="32.900001525878906" y="240.55728149414062" type="line"/>
      <point x="32.900001525878906" y="210" type="line"/>
    </contour>
    <contour>
      <point x="227.9000015258789" y="510" type="line"/>
      <point x="227.9000015258789" y="290" type="line"/>
      <point x="192.9000015258789" y="290" type="line"/>
      <point x="192.9000015258789" y="510" type="line"/>
    </contour>
  </outline>
</glyph>
<glyph name="dollar" format="2">
  <advance width="260.8"/>
  <unicode hex="0024"/>
  <outline>
    <contour>
      <point x="32.900001525878906" y="650.5572814941406" type="line"/>
      <point x="32.900001525878906" y="409.4427185058594" type="line"/>
      <point x="82.34272003173828" y="360" type="line"/>
      <point x="112.9000015258789" y="360" type="line"/>
      <point x="112.9000015258789" y="800" type="line"/>
      <point x="72.9000015258789" y="800" type="line"/>
      <point x="72.9000015258789" y="690.5572814941406" type="line"/>
    </contour>
    <contour>
      <point x="225.4000015258789" y="700" type="line"/>
      <point x="185.4000015258789" y="700" type="line"/>
      <point x="185.4000015258789" y="800" type="line"/>
      <point x="145.4000015258789" y="800" type="line"/>
      <point x="145.4000015258789" y="669.4427185058594" type="line"/>
      <point x="194.84272003173828" y="620" type="line"/>
      <point x="225.4000015258789" y="620" type="line"/>
    </contour>
    <contour>
      <point x="147.9000015258789" y="0" type="line"/>
      <point x="187.9000015258789" y="0" type="line"/>
      <point x="187.9000015258789" y="109.44271850585938" type="line"/>
      <point x="227.9000015258789" y="149.44271850585938" type="line"/>
      <point x="227.9000015258789" y="390.5572814941406" type="line"/>
      <point x="178.45728302001953" y="440" type="line"/>
      <point x="147.9000015258789" y="440" type="line"/>
    </contour>
    <contour>
      <point x="72.9000015258789" y="0" type="line"/>
      <point x="112.9000015258789" y="0" type="line"/>
      <point x="112.9000015258789" y="130.55728149414062" type="line"/>
      <point x="63.45728302001953" y="180" type="line"/>
      <point x="32.900001525878906" y="180" type="line"/>
      <point x="32.900001525878906" y="100" type="line"/>
      <point x="72.9000015258789" y="100" type="line"/>
    </contour>
  </outline>
</glyph>
<glyph name="ampersand" format="2">
  <advance width="340.8"/>
  <unicode hex="0026"/>
  <outline>
    <contour>
      <point x="82.34272003173828" y="400" type="line"/>
      <point x="32.900001525878906" y="350.5572814941406" type="line"/>
      <point x="32.900001525878906" y="44.442718505859375" type="line"/>
      <point x="82.34272003173828" y="-5" type="line"/>
      <point x="112.9000015258789" y="-5" type="line"/>
      <point x="112.9000015258789" y="800" type="line"/>
      <point x="82.34272003173828" y="800" type="line"/>
      <point x="32.900001525878906" y="750.5572814941406" type="line"/>
      <point x="32.900001525878906" y="449.4427185058594" type="line"/>
    </contour>
    <contour>
      <point x="222.9" y="800.0" type="line"/>
      <point x="142.9" y="800.0" type="line"/>
      <point x="142.9" y="769.44272" type="line"/>
      <point x="192.34272" y="720.0" type="line"/>
      <point x="222.9" y="720.0" type="line"/>
    </contour>
    <contour>
      <point x="147.9000015258789" y="450.5572814941406" type="line"/>
      <point x="147.9000015258789" y="-5" type="line"/>
      <point x="178.45728302001953" y="-5" type="line"/>
      <point x="227.9000015258789" y="44.442718505859375" type="line"/>
      <point x="227.9000015258789" y="420" type="line"/>
      <point x="258.45728302001953" y="420" type="line"/>
      <point x="307.9000015258789" y="469.4427185058594" type="line"/>
      <point x="307.9000015258789" y="500" type="line"/>
      <point x="197.34272003173828" y="500" type="line"/>
    </contour>
  </outline>
</glyph>
<glyph name="parenleft" format="2">
  <advance width="145.8"/>
  <unicode hex="0028"/>
  <outline>
    <contour>
      <point x="82.34272003173828" y="-100" type="line"/>
      <point x="112.9000015258789" y="-100" type="line"/>
      <point x="112.9000015258789" y="900" type="line"/>
      <point x="82.34272003173828" y="900" type="line"/>
      <point x="32.900001525878906" y="850.5572814941406" type="line"/>
      <point x="32.900001525878906" y="-50.557281494140625" type="line"/>
    </contour>
  </outline>
</glyph>
<glyph name="parenright" format="2">
  <advance width="145.8"/>
  <unicode hex="0029"/>
  <outline>
    <contour>
      <point x="63.45728302001953" y="-100" type="line"/>
      <point x="112.9000015258789" y="-50.557281494140625" type="line"/>
      <point x="112.9000015258789" y="850.5572814941406" type="line"/>
      <point x="63.45728302001953" y="900" type="line"/>
      <point x="32.900001525878906" y="900" type="line"/>
      <point x="32.900001525878906" y="-100" type="line"/>
    </contour>
  </outline>
</glyph>
<glyph name="asterisk" format="2">
  <advance width="277.2187528073469"/>
  <unicode hex="002A"/>
  <outline>
    <contour>
      <point x="111.94271087646484" y="586.6666641235352" type="line"/>
      <point x="165.2760467529297" y="586.6666641235352" type="line"/>
      <point x="165.2760467529297" y="647.1453094482422" type="line"/>
      <point x="217.65208435058594" y="616.9059906005859" type="line"/>
      <point x="244.31875610351562" y="663.0940093994141" type="line"/>
      <point x="191.94271087646484" y="693.3333358764648" type="line"/>
      <point x="244.31875610351562" y="723.5726547241211" type="line"/>
      <point x="217.65208435058594" y="769.7606811523438" type="line"/>
      <point x="165.2760467529297" y="739.5213623046875" type="line"/>
      <point x="165.2760467529297" y="800" type="line"/>
      <point x="111.94271087646484" y="800" type="line"/>
      <point x="111.94271087646484" y="739.521354675293" type="line"/>
      <point x="59.56666564941406" y="769.7606811523438" type="line"/>
      <point x="32.900001525878906" y="723.5726547241211" type="line"/>
      <point x="85.27604675292969" y="693.3333358764648" type="line"/>
      <point x="32.900001525878906" y="663.0940093994141" type="line"/>
      <point x="59.56666564941406" y="616.9059906005859" type="line"/>
      <point x="111.94271087646484" y="647.1453094482422" type="line"/>
    </contour>
  </outline>
</glyph>
<glyph name="plus" format="2">
  <advance width="375.8"/>
  <unicode hex="002B"/>
  <outline>
    <contour>
      <point x="147.9000015258789" y="220" type="line"/>
      <point x="227.9000015258789" y="220" type="line"/>
      <point x="227.9000015258789" y="360" type="line"/>
      <point x="307.9000015258789" y="360" type="line"/>
      <point x="307.9000015258789" y="440" type="line"/>
      <point x="227.9000015258789" y="440" type="line"/>
      <point x="227.9000015258789" y="580" type="line"/>
      <point x="147.9000015258789" y="580" type="line"/>
      <point x="147.9000015258789" y="440" type="line"/>
      <point x="67.9000015258789" y="440" type="line"/>
      <point x="67.9000015258789" y="360" type="line"/>
      <point x="147.9000015258789" y="360" type="line"/>
    </contour>
  </outline>
</glyph>
<glyph name="hyphen" format="2">
  <advance width="260.8"/>
  <unicode hex="002D"/>
  <outline>
    <contour>
      <point x="32.900001525878906" y="360" type="line"/>
      <point x="227.9000015258789" y="360" type="line"/>
      <point x="227.9000015258789" y="440" type="line"/>
      <point x="32.900001525878906" y="440" type="line"/>
    </contour>
  </outline>
</glyph>
<glyph name="period" format="2">
  <advance width="145.8"/>
  <unicode hex="002E"/>
  <outline>
    <contour>
      <point x="32.9" y="0" type="line"/>
      <point x="112.9" y="0" type="line"/>
      <point x="112.9" y="80.0" type="line"/>
      <point x="32.9" y="80.0" type="line"/>
    </contour>
  </outline>
</glyph>
<glyph name="two" format="2">
  <advance width="260.8"/>
  <unicode hex="0032"/>
  <outline>
    <contour>
      <point x="112.9" y="725.0" type="line"/>
      <point x="112.9" y="805.0" type="line"/>
      <point x="82.34272" y="805.0" type="line"/>
      <point x="32.9" y="755.55728" type="line"/>
      <point x="32.9" y="725.0" type="line"/>
    </contour>
    <contour>
      <point x="178.45728302001953" y="145" type="line"/>
      <point x="227.9000015258789" y="194.44271850585938" type="line"/>
      <point x="227.9000015258789" y="755.5572814941406" type="line"/>
      <point x="178.45728302001953" y="805" type="line"/>
      <point x="147.9000015258789" y="805" type="line"/>
      <point x="147.9000015258789" y="145" type="line"/>
    </contour>
    <contour>
      <point x="32.900001525878906" y="30.557281494140625" type="line"/>
      <point x="32.900001525878906" y="0" type="line"/>
      <point x="227.9000015258789" y="0" type="line"/>
      <point x="227.9000015258789" y="80" type="line"/>
      <point x="82.34272003173828" y="80" type="line"/>
    </contour>
  </outline>
</glyph>
<glyph name="three" format="2">
  <advance width="260.8"/>
  <unicode hex="0033"/>
  <outline>
    <contour>
      <point x="112.9" y="725.0" type="line"/>
      <point x="112.9" y="805.0" type="line"/>
      <point x="82.34272" y="805.0" type="line"/>
      <point x="32.9" y="755.55728" type="line"/>
      <point x="32.9" y="725.0" type="line"/>
    </contour>
    <contour>
      <point x="178.45728302001953" y="-5" type="line"/>
      <point x="227.9000015258789" y="44.442718505859375" type="line"/>
      <point x="227.9000015258789" y="350.5572814941406" type="line"/>
      <point x="178.45728302001953" y="400" type="line"/>
      <point x="227.9000015258789" y="449.4427185058594" type="line"/>
      <point x="227.9000015258789" y="755.5572814941406" type="line"/>
      <point x="178.45728302001953" y="805" type="line"/>
      <point x="147.9000015258789" y="805" type="line"/>
      <point x="147.9000015258789" y="-5" type="line"/>
    </contour>
    <contour>
      <point x="112.9" y="75.0" type="line"/>
      <point x="32.9" y="75.0" type="line"/>
      <point x="32.9" y="44.44272" type="line"/>
      <point x="82.34272" y="-5.0" type="line"/>
      <point x="112.9" y="-5.0" type="line"/>
    </contour>
  </outline>
</glyph>
<glyph name="four" format="2">
  <advance width="260.8"/>
  <unicode hex="0034"/>
  <outline>
    <contour>
      <point x="63.45728302001953" y="300" type="line"/>
      <point x="112.9000015258789" y="349.4427185058594" type="line"/>
      <point x="112.9000015258789" y="800" type="line"/>
      <point x="32.900001525878906" y="800" type="line"/>
      <point x="32.900001525878906" y="300" type="line"/>
    </contour>
    <contour>
      <point x="147.9000015258789" y="0" type="line"/>
      <point x="227.9000015258789" y="0" type="line"/>
      <point x="227.9000015258789" y="500" type="line"/>
      <point x="147.9000015258789" y="500" type="line"/>
    </contour>
  </outline>
</glyph>
<glyph name="five" format="2">
  <advance width="260.8"/>
  <unicode hex="0035"/>
  <outline>
    <contour>
      <point x="84.84272003173828" y="360" type="line"/>
      <point x="115.4000015258789" y="360" type="line"/>
      <point x="115.4000015258789" y="800" type="line"/>
      <point x="35.400001525878906" y="800" type="line"/>
      <point x="35.400001525878906" y="409.4427185058594" type="line"/>
    </contour>
    <contour>
      <point x="225.4" y="800.0" type="line"/>
      <point x="145.4" y="800.0" type="line"/>
      <point x="145.4" y="769.44272" type="line"/>
      <point x="194.84272" y="720.0" type="line"/>
      <point x="225.4" y="720.0" type="line"/>
    </contour>
    <contour>
      <point x="178.45728302001953" y="-5" type="line"/>
      <point x="227.9000015258789" y="44.442718505859375" type="line"/>
      <point x="227.9000015258789" y="390.5572814941406" type="line"/>
      <point x="178.45728302001953" y="440" type="line"/>
      <point x="147.9000015258789" y="440" type="line"/>
      <point x="147.9000015258789" y="-5" type="line"/>
    </contour>
    <contour>
      <point x="112.9" y="75.0" type="line"/>
      <point x="32.9" y="75.0" type="line"/>
      <point x="32.9" y="44.44272" type="line"/>
      <point x="82.34272" y="-5.0" type="line"/>
      <point x="112.9" y="-5.0" type="line"/>
    </contour>
  </outline>
</glyph>
<glyph name="six" format="2">
  <advance width="260.8"/>
  <unicode hex="0036"/>
  <outline>
    <contour>
      <point x="82.34272003173828" y="-5" type="line"/>
      <point x="112.9000015258789" y="-5" type="line"/>
      <point x="112.9000015258789" y="805" type="line"/>
      <point x="82.34272003173828" y="805" type="line"/>
      <point x="32.900001525878906" y="755.5572814941406" type="line"/>
      <point x="32.900001525878906" y="44.442718505859375" type="line"/>
    </contour>
    <contour>
      <point x="147.9" y="725.0" type="line"/>
      <point x="227.9" y="725.0" type="line"/>
      <point x="227.9" y="755.55728" type="line"/>
      <point x="178.45728" y="805.0" type="line"/>
      <point x="147.9" y="805.0" type="line"/>
    </contour>
    <contour>
      <point x="178.45728302001953" y="-5" type="line"/>
      <point x="227.9000015258789" y="44.442718505859375" type="line"/>
      <point x="227.9000015258789" y="450.5572814941406" type="line"/>
      <point x="178.45728302001953" y="500" type="line"/>
      <point x="147.9000015258789" y="500" type="line"/>
      <point x="147.9000015258789" y="-5" type="line"/>
    </contour>
  </outline>
</glyph>
<glyph name="seven" format="2">
  <advance width="260.8"/>
  <unicode hex="0037"/>
  <outline>
    <contour>
      <point x="32.900001525878906" y="720" type="line"/>
      <point x="178.45728302001953" y="720" type="line"/>
      <point x="227.9000015258789" y="769.4427185058594" type="line"/>
      <point x="227.9000015258789" y="800" type="line"/>
      <point x="32.900001525878906" y="800" type="line"/>
    </contour>
    <contour>
      <point x="147.9000015258789" y="0" type="line"/>
      <point x="227.9000015258789" y="0" type="line"/>
      <point x="227.9000015258789" y="690" type="line"/>
      <point x="197.34272003173828" y="690" type="line"/>
      <point x="147.9000015258789" y="640.5572814941406" type="line"/>
    </contour>
  </outline>
</glyph>
<glyph name="colon" format="2">
  <advance width="145.8"/>
  <unicode hex="003A"/>
  <outline>
    <contour>
      <point x="32.9" y="520.0" type="line"/>
      <point x="112.9" y="520.0" type="line"/>
      <point x="112.9" y="600.0" type="line"/>
      <point x="32.9" y="600.0" type="line"/>
    </contour>
    <contour>
      <point x="32.9" y="0" type="line"/>
      <point x="112.9" y="0" type="line"/>
      <point x="112.9" y="80.0" type="line"/>
      <point x="32.9" y="80.0" type="line"/>
    </contour>
  </outline>
</glyph>
<glyph name="semicolon" format="2">
  <advance width="145.8"/>
  <unicode hex="003B"/>
  <outline>
    <contour>
      <point x="32.9" y="520.0" type="line"/>
      <point x="112.9" y="520.0" type="line"/>
      <point x="112.9" y="600.0" type="line"/>
      <point x="32.9" y="600.0" type="line"/>
    </contour>
    <contour>
      <point x="63.45728302001953" y="-100" type="line"/>
      <point x="112.9000015258789" y="-50.557281494140625" type="line"/>
      <point x="112.9000015258789" y="80" type="line"/>
      <point x="32.900001525878906" y="80" type="line"/>
      <point x="32.900001525878906" y="-100" type="line"/>
    </contour>
  </outline>
</glyph>
<glyph name="less" format="2">
  <advance width="225.8"/>
  <unicode hex="003C"/>
  <outline>
    <contour>
      <point x="32.900001525878906" y="650.5572814941406" type="line"/>
      <point x="32.900001525878906" y="149.44271850585938" type="line"/>
      <point x="82.34272003173828" y="100" type="line"/>
      <point x="192.9000015258789" y="100" type="line"/>
      <point x="192.9000015258789" y="130.55728149414062" type="line"/>
      <point x="143.45728302001953" y="180" type="line"/>
      <point x="112.9000015258789" y="180" type="line"/>
      <point x="112.9000015258789" y="620" type="line"/>
      <point x="143.45728302001953" y="620" type="line"/>
      <point x="192.9000015258789" y="669.4427185058594" type="line"/>
      <point x="192.9000015258789" y="700" type="line"/>
      <point x="82.34272003173828" y="700" type="line"/>
    </contour>
  </outline>
</glyph>
<glyph name="equal" format="2">
  <advance width="375.8"/>
  <unicode hex="003D"/>
  <outline>
    <contour>
      <point x="67.9000015258789" y="450" type="line"/>
      <point x="307.9000015258789" y="450" type="line"/>
      <point x="307.9000015258789" y="530" type="line"/>
      <point x="67.9000015258789" y="530" type="line"/>
    </contour>
    <contour>
      <point x="67.9000015258789" y="270" type="line"/>
      <point x="307.9000015258789" y="270" type="line"/>
      <point x="307.9000015258789" y="350" type="line"/>
      <point x="67.9000015258789" y="350" type="line"/>
    </contour>
  </outline>
</glyph>
<glyph name="question" format="2">
  <advance width="260.8"/>
  <unicode hex="003F"/>
  <outline>
    <contour>
      <point x="32.9" y="805.0" type="line"/>
      <point x="32.9" y="725.0" type="line"/>
      <point x="63.45728" y="725.0" type="line"/>
      <point x="112.9" y="774.44272" type="line"/>
      <point x="112.9" y="805.0" type="line"/>
    </contour>
    <contour>
      <point x="178.45728302001953" y="405" type="line"/>
      <point x="227.9000015258789" y="454.4427185058594" type="line"/>
      <point x="227.9000015258789" y="755.5572814941406" type="line"/>
      <point x="178.45728302001953" y="805" type="line"/>
      <point x="147.9000015258789" y="805" type="line"/>
      <point x="147.9000015258789" y="405" type="line"/>
    </contour>
    <contour>
      <point x="32.900001525878906" y="200" type="line"/>
      <point x="112.9000015258789" y="200" type="line"/>
      <point x="112.9000015258789" y="475" type="line"/>
      <point x="82.34272003173828" y="475" type="line"/>
      <point x="32.900001525878906" y="425.5572814941406" type="line"/>
    </contour>
    <contour>
      <point x="32.9" y="0" type="line"/>
      <point x="112.9" y="0" type="line"/>
      <point x="112.9" y="80.0" type="line"/>
      <point x="32.9" y="80.0" type="line"/>
    </contour>
  </outline>
</glyph>
<glyph name="at" format="2">
  <advance width="792.0197800000001"/>
  <unicode hex="0040"/>
  <outline>
    <contour>
      <point x="719.11978" y="533.8365" type="line"/>
      <point x="529.84639" y="723.10989" type="line"/>
      <point x="262.17339000000004" y="723.10989" type="line"/>
      <point x="72.9" y="533.8365" type="line"/>
      <point x="72.9" y="266.1635" type="line"/>
      <point x="262.17339000000004" y="76.89011" type="line"/>
      <point x="529.84639" y="76.89011" type="line"/>
      <point x="719.11978" y="266.1635" type="line"/>
    </contour>
    <contour>
      <point x="342.9526062011719" y="200" type="line"/>
      <point x="293.5098876953125" y="249.44271850585938" type="line"/>
      <point x="293.5098876953125" y="550.5572814941406" type="line"/>
      <point x="342.9526062011719" y="600" type="line"/>
      <point x="373.5098876953125" y="600" type="line"/>
      <point x="373.5098876953125" y="200" type="line"/>
    </contour>
    <contour>
      <point x="457.9526062011719" y="200" type="line"/>
      <point x="408.5098876953125" y="249.44271850585938" type="line"/>
      <point x="408.5098876953125" y="600" type="line"/>
      <point x="488.5098876953125" y="600" type="line"/>
      <point x="488.5098876953125" y="200" type="line"/>
    </contour>
  </outline>
</glyph>
<glyph name="C" format="2">
  <advance width="260.8"/>
  <unicode hex="0043"/>
  <outline>
    <contour>
      <point x="82.34272003173828" y="0" type="line"/>
      <point x="112.9000015258789" y="0" type="line"/>
      <point x="112.9000015258789" y="800" type="line"/>
      <point x="82.34272003173828" y="800" type="line"/>
      <point x="32.900001525878906" y="750.5572814941406" type="line"/>
      <point x="32.900001525878906" y="49.442718505859375" type="line"/>
    </contour>
    <contour>
      <point x="197.34272003173828" y="520" type="line"/>
      <point x="227.9000015258789" y="520" type="line"/>
      <point x="227.9000015258789" y="800" type="line"/>
      <point x="147.9000015258789" y="800" type="line"/>
      <point x="147.9000015258789" y="569.4427185058594" type="line"/>
    </contour>
    <contour>
      <point x="227.9" y="0.0" type="line"/>
      <point x="227.9" y="80.0" type="line"/>
      <point x="197.34272" y="80.0" type="line"/>
      <point x="147.9" y="30.55728" type="line"/>
      <point x="147.9" y="0.0" type="line"/>
    </contour>
  </outline>
</glyph>
<glyph name="H" format="2">
  <advance width="375.8"/>
  <unicode hex="0048"/>
  <outline>
    <contour>
      <point x="32.900001525878906" y="0" type="line"/>
      <point x="112.9000015258789" y="0" type="line"/>
      <point x="112.9000015258789" y="800" type="line"/>
      <point x="32.900001525878906" y="800" type="line"/>
    </contour>
    <contour>
      <point x="262.9000015258789" y="0" type="line"/>
      <point x="342.9000015258789" y="0" type="line"/>
      <point x="342.9000015258789" y="800" type="line"/>
      <point x="262.9000015258789" y="800" type="line"/>
    </contour>
    <contour>
      <point x="227.9" y="440.0" type="line"/>
      <point x="147.9" y="440.0" type="line"/>
      <point x="147.9" y="409.44272" type="line"/>
      <point x="197.34272" y="360.0" type="line"/>
      <point x="227.9" y="360.0" type="line"/>
    </contour>
  </outline>
</glyph>
<glyph name="I" format="2">
  <advance width="145.8"/>
  <unicode hex="0049"/>
  <outline>
    <contour>
      <point x="32.900001525878906" y="0" type="line"/>
      <point x="112.9000015258789" y="0" type="line"/>
      <point x="112.9000015258789" y="800" type="line"/>
      <point x="32.900001525878906" y="800" type="line"/>
    </contour>
  </outline>
</glyph>
<glyph name="J" format="2">
  <advance width="260.8"/>
  <unicode hex="004A"/>
  <outline>
    <contour>
      <point x="178.45728302001953" y="-5" type="line"/>
      <point x="227.9000015258789" y="44.442718505859375" type="line"/>
      <point x="227.9000015258789" y="800" type="line"/>
      <point x="147.9000015258789" y="800" type="line"/>
      <point x="147.9000015258789" y="-5" type="line"/>
    </contour>
    <contour>
      <point x="112.9" y="75.0" type="line"/>
      <point x="32.9" y="75.0" type="line"/>
      <point x="32.9" y="44.44272" type="line"/>
      <point x="82.34272" y="-5.0" type="line"/>
      <point x="112.9" y="-5.0" type="line"/>
    </contour>
  </outline>
</glyph>
<glyph name="L" format="2">
  <advance width="260.8"/>
  <unicode hex="004C"/>
  <outline>
    <contour>
      <point x="32.900001525878906" y="0" type="line"/>
      <point x="112.9000015258789" y="0" type="line"/>
      <point x="112.9000015258789" y="800" type="line"/>
      <point x="32.900001525878906" y="800" type="line"/>
    </contour>
    <contour>
      <point x="227.9" y="0.0" type="line"/>
      <point x="227.9" y="80.0" type="line"/>
      <point x="197.34272" y="80.0" type="line"/>
      <point x="147.9" y="30.55728" type="line"/>
      <point x="147.9" y="0.0" type="line"/>
    </contour>
  </outline>
</glyph>
<glyph name="M" format="2">
  <advance width="375.8"/>
  <unicode hex="004D"/>
  <outline>
    <contour>
      <point x="32.900001525878906" y="0" type="line"/>
      <point x="112.9000015258789" y="0" type="line"/>
      <point x="112.9000015258789" y="800" type="line"/>
      <point x="32.900001525878906" y="800" type="line"/>
    </contour>
    <contour>
      <point x="147.9000015258789" y="0" type="line"/>
      <point x="227.9000015258789" y="0" type="line"/>
      <point x="227.9000015258789" y="800" type="line"/>
      <point x="147.9000015258789" y="800" type="line"/>
    </contour>
    <contour>
      <point x="262.9000015258789" y="0" type="line"/>
      <point x="342.9000015258789" y="0" type="line"/>
      <point x="342.9000015258789" y="750.5572814941406" type="line"/>
      <point x="293.45728302001953" y="800" type="line"/>
      <point x="262.9000015258789" y="800" type="line"/>
    </contour>
  </outline>
</glyph>
<glyph name="O" format="2">
  <advance width="260.8"/>
  <unicode hex="004F"/>
  <outline>
    <contour>
      <point x="82.34272003173828" y="-5" type="line"/>
      <point x="112.9000015258789" y="-5" type="line"/>
      <point x="112.9000015258789" y="805" type="line"/>
      <point x="82.34272003173828" y="805" type="line"/>
      <point x="32.900001525878906" y="755.5572814941406" type="line"/>
      <point x="32.900001525878906" y="44.442718505859375" type="line"/>
    </contour>
    <contour>
      <point x="178.45728302001953" y="-5" type="line"/>
      <point x="227.9000015258789" y="44.442718505859375" type="line"/>
      <point x="227.9000015258789" y="755.5572814941406" type="line"/>
      <point x="178.45728302001953" y="805" type="line"/>
      <point x="147.9000015258789" y="805" type="line"/>
      <point x="147.9000015258789" y="-5" type="line"/>
    </contour>
  </outline>
</glyph>
<glyph name="Q" format="2">
  <advance width="260.8"/>
  <unicode hex="0051"/>
  <outline>
    <contour>
      <point x="82.34272003173828" y="-5" type="line"/>
      <point x="112.9000015258789" y="-5" type="line"/>
      <point x="112.9000015258789" y="805" type="line"/>
      <point x="82.34272003173828" y="805" type="line"/>
      <point x="32.900001525878906" y="755.5572814941406" type="line"/>
      <point x="32.900001525878906" y="44.442718505859375" type="line"/>
    </contour>
    <contour>
      <point x="227.9000015258789" y="0" type="line"/>
      <point x="183.45728302001953" y="0" type="line"/>
      <point x="227.9000015258789" y="44.442718505859375" type="line"/>
      <point x="227.9000015258789" y="755.5572814941406" type="line"/>
      <point x="178.45728302001953" y="805" type="line"/>
      <point x="147.9000015258789" y="805" type="line"/>
      <point x="147.9000015258789" y="-30.557281494140625" type="line"/>
      <point x="197.34272003173828" y="-80" type="line"/>
      <point x="227.9000015258789" y="-80" type="line"/>
    </contour>
  </outline>
</glyph>
<glyph name="R" format="2">
  <advance width="260.8"/>
  <unicode hex="0052"/>
  <outline>
    <contour>
      <point x="32.900001525878906" y="0" type="line"/>
      <point x="112.9000015258789" y="0" type="line"/>
      <point x="112.9000015258789" y="800" type="line"/>
      <point x="32.900001525878906" y="800" type="line"/>
    </contour>
    <contour>
      <point x="147.9000015258789" y="0" type="line"/>
      <point x="227.9000015258789" y="0" type="line"/>
      <point x="227.9000015258789" y="150.55728149414062" type="line"/>
      <point x="178.45728302001953" y="200" type="line"/>
      <point x="227.9000015258789" y="249.44271850585938" type="line"/>
      <point x="227.9000015258789" y="750.5572814941406" type="line"/>
      <point x="178.45728302001953" y="800" type="line"/>
      <point x="147.9000015258789" y="800" type="line"/>
    </contour>
  </outline>
</glyph>
<glyph name="T" format="2">
  <advance width="375.8"/>
  <unicode hex="0054"/>
  <outline>
    <contour>
      <point x="32.9" y="800.0" type="line"/>
      <point x="32.9" y="720.0" type="line"/>
      <point x="63.45728" y="720.0" type="line"/>
      <point x="112.9" y="769.44272" type="line"/>
      <point x="112.9" y="800.0" type="line"/>
    </contour>
    <contour>
      <point x="147.9000015258789" y="0" type="line"/>
      <point x="227.9000015258789" y="0" type="line"/>
      <point x="227.9000015258789" y="800" type="line"/>
      <point x="147.9000015258789" y="800" type="line"/>
    </contour>
    <contour>
      <point x="342.9" y="800.0" type="line"/>
      <point x="262.9" y="800.0" type="line"/>
      <point x="262.9" y="769.44272" type="line"/>
      <point x="312.34272" y="720.0" type="line"/>
      <point x="342.9" y="720.0" type="line"/>
    </contour>
  </outline>
</glyph>
<glyph name="X" format="2">
  <advance width="260.8"/>
  <unicode hex="0058"/>
  <outline>
    <contour>
      <point x="32.900001525878906" y="0" type="line"/>
      <point x="112.9000015258789" y="0" type="line"/>
      <point x="112.9000015258789" y="800" type="line"/>
      <point x="32.900001525878906" y="800" type="line"/>
      <point x="32.900001525878906" y="449.4427185058594" type="line"/>
      <point x="82.34272003173828" y="400" type="line"/>
      <point x="32.900001525878906" y="350.5572814941406" type="line"/>
    </contour>
    <contour>
      <point x="147.9000015258789" y="0" type="line"/>
      <point x="227.9000015258789" y="0" type="line"/>
      <point x="227.9000015258789" y="350.5572814941406" type="line"/>
      <point x="178.45728302001953" y="400" type="line"/>
      <point x="227.9000015258789" y="449.4427185058594" type="line"/>
      <point x="227.9000015258789" y="800" type="line"/>
      <point x="147.9000015258789" y="800" type="line"/>
    </contour>
  </outline>
</glyph>
<glyph name="Z" format="2">
  <advance width="260.8"/>
  <unicode hex="005A"/>
  <outline>
    <contour>
      <point x="32.9" y="800.0" type="line"/>
      <point x="32.9" y="720.0" type="line"/>
      <point x="63.45728" y="720.0" type="line"/>
      <point x="112.9" y="769.44272" type="line"/>
      <point x="112.9" y="800.0" type="line"/>
    </contour>
    <contour>
      <point x="178.45728302001953" y="360" type="line"/>
      <point x="227.9000015258789" y="409.4427185058594" type="line"/>
      <point x="227.9000015258789" y="800" type="line"/>
      <point x="147.9000015258789" y="800" type="line"/>
      <point x="147.9000015258789" y="360" type="line"/>
    </contour>
    <contour>
      <point x="32.900001525878906" y="0" type="line"/>
      <point x="112.9000015258789" y="0" type="line"/>
      <point x="112.9000015258789" y="440" type="line"/>
      <point x="82.34272003173828" y="440" type="line"/>
      <point x="32.900001525878906" y="390.5572814941406" type="line"/>
    </contour>
    <contour>
      <point x="227.9" y="0.0" type="line"/>
      <point x="227.9" y="80.0" type="line"/>
      <point x="197.34272" y="80.0" type="line"/>
      <point x="147.9" y="30.55728" type="line"/>
      <point x="147.9" y="0.0" type="line"/>
    </contour>
  </outline>
</glyph>
<glyph name="bracketleft" format="2">
  <advance width="225.8"/>
  <unicode hex="005B"/>
  <outline>
    <contour>
      <point x="32.900001525878906" y="-100" type="line"/>
      <point x="192.9000015258789" y="-100" type="line"/>
      <point x="192.9000015258789" y="-69.44271850585938" type="line"/>
      <point x="143.45728302001953" y="-20" type="line"/>
      <point x="112.9000015258789" y="-20" type="line"/>
      <point x="112.9000015258789" y="820" type="line"/>
      <point x="143.45728302001953" y="820" type="line"/>
      <point x="192.9000015258789" y="869.4427185058594" type="line"/>
      <point x="192.9000015258789" y="900" type="line"/>
      <point x="32.900001525878906" y="900" type="line"/>
    </contour>
  </outline>
</glyph>
<glyph name="bracketright" format="2">
  <advance width="225.8"/>
  <unicode hex="005D"/>
  <outline>
    <contour>
      <point x="32.900001525878906" y="869.4427185058594" type="line"/>
      <point x="82.34272003173828" y="820" type="line"/>
      <point x="112.9000015258789" y="820" type="line"/>
      <point x="112.9000015258789" y="-20" type="line"/>
      <point x="82.34272003173828" y="-20" type="line"/>
      <point x="32.900001525878906" y="-69.44271850585938" type="line"/>
      <point x="32.900001525878906" y="-100" type="line"/>
      <point x="192.9000015258789" y="-100" type="line"/>
      <point x="192.9000015258789" y="900" type="line"/>
      <point x="32.900001525878906" y="900" type="line"/>
    </contour>
  </outline>
</glyph>
<glyph name="asciicircum" format="2">
  <advance width="225.8"/>
  <unicode hex="005E"/>
  <outline>
    <contour>
      <point x="32.900001525878906" y="780" type="line"/>
      <point x="32.900001525878906" y="700" type="line"/>
      <point x="63.45728302001953" y="700" type="line"/>
      <point x="112.9000015258789" y="749.4427185058594" type="line"/>
      <point x="162.34272003173828" y="700" type="line"/>
      <point x="192.9000015258789" y="700" type="line"/>
      <point x="192.9000015258789" y="780" type="line"/>
    </contour>
  </outline>
</glyph>
<glyph name="grave" format="2">
  <advance width="145.8"/>
  <unicode hex="0060"/>
  <outline>
    <contour>
      <point x="77.9" y="880.0" type="line"/>
      <point x="-2.1000000000000014" y="880.0" type="line"/>
      <point x="-2.1000000000000014" y="849.44272" type="line"/>
      <point x="47.34272" y="800.0" type="line"/>
      <point x="77.9" y="800.0" type="line"/>
    </contour>
  </outline>
</glyph>
<glyph name="a" format="2">
  <advance width="260.8"/>
  <unicode hex="0061"/>
  <outline>
    <contour>
      <point x="32.9" y="600.0" type="line"/>
      <point x="32.9" y="520.0" type="line"/>
      <point x="63.45728" y="520.0" type="line"/>
      <point x="112.9" y="569.44272" type="line"/>
      <point x="112.9" y="600.0" type="line"/>
    </contour>
    <contour>
      <point x="197.34272003173828" y="-5" type="line"/>
      <point x="227.9000015258789" y="-5" type="line"/>
      <point x="227.9000015258789" y="550.5572814941406" type="line"/>
      <point x="178.45728302001953" y="600" type="line"/>
      <point x="147.9000015258789" y="600" type="line"/>
      <point x="147.9000015258789" y="44.442718505859375" type="line"/>
    </contour>
    <contour>
      <point x="82.34272003173828" y="-5" type="line"/>
      <point x="112.9000015258789" y="-5" type="line"/>
      <point x="112.9000015258789" y="400" type="line"/>
      <point x="82.34272003173828" y="400" type="line"/>
      <point x="32.900001525878906" y="350.5572814941406" type="line"/>
      <point x="32.900001525878906" y="44.442718505859375" type="line"/>
    </contour>
  </outline>
</glyph>
<glyph name="d" format="2">
  <advance width="260.8"/>
  <unicode hex="0064"/>
  <outline>
    <contour>
      <point x="147.9000015258789" y="0" type="line"/>
      <point x="227.9000015258789" y="0" type="line"/>
      <point x="227.9000015258789" y="800" type="line"/>
      <point x="147.9000015258789" y="800" type="line"/>
    </contour>
    <contour>
      <point x="82.34272003173828" y="0" type="line"/>
      <point x="112.9000015258789" y="0" type="line"/>
      <point x="112.9000015258789" y="605" type="line"/>
      <point x="82.34272003173828" y="605" type="line"/>
      <point x="32.900001525878906" y="555.5572814941406" type="line"/>
      <point x="32.900001525878906" y="49.442718505859375" type="line"/>
    </contour>
  </outline>
</glyph>
<glyph name="g" format="2">
  <advance width="260.8"/>
  <unicode hex="0067"/>
  <outline>
    <contour>
      <point x="82.34272003173828" y="5" type="line"/>
      <point x="112.9000015258789" y="5" type="line"/>
      <point x="112.9000015258789" y="600" type="line"/>
      <point x="82.34272003173828" y="600" type="line"/>
      <point x="32.900001525878906" y="550.5572814941406" type="line"/>
      <point x="32.900001525878906" y="54.442718505859375" type="line"/>
    </contour>
    <contour>
      <point x="178.45728302001953" y="-210" type="line"/>
      <point x="227.9000015258789" y="-160.55728149414062" type="line"/>
      <point x="227.9000015258789" y="600" type="line"/>
      <point x="147.9000015258789" y="600" type="line"/>
      <point x="147.9000015258789" y="-210" type="line"/>
    </contour>
    <contour>
      <point x="112.9" y="-130.0" type="line"/>
      <point x="32.9" y="-130.0" type="line"/>
      <point x="32.9" y="-160.55728" type="line"/>
      <point x="82.34272" y="-210.0" type="line"/>
      <point x="112.9" y="-210.0" type="line"/>
    </contour>
  </outline>
</glyph>
<glyph name="i" format="2">
  <advance width="145.8"/>
  <unicode hex="0069"/>
  <outline>
    <contour>
      <point x="32.9" y="650.0" type="line"/>
      <point x="112.9" y="650.0" type="line"/>
      <point x="112.9" y="730.0" type="line"/>
      <point x="32.9" y="730.0" type="line"/>
    </contour>
    <contour>
      <point x="32.900001525878906" y="0" type="line"/>
      <point x="112.9000015258789" y="0" type="line"/>
      <point x="112.9000015258789" y="600" type="line"/>
      <point x="32.900001525878906" y="600" type="line"/>
    </contour>
  </outline>
</glyph>
<glyph name="j" format="2">
  <advance width="260.8"/>
  <unicode hex="006A"/>
  <outline>
    <contour>
      <point x="147.9" y="650.0" type="line"/>
      <point x="227.9" y="650.0" type="line"/>
      <point x="227.9" y="730.0" type="line"/>
      <point x="147.9" y="730.0" type="line"/>
    </contour>
    <contour>
      <point x="178.45728302001953" y="-210" type="line"/>
      <point x="227.9000015258789" y="-160.55728149414062" type="line"/>
      <point x="227.9000015258789" y="600" type="line"/>
      <point x="147.9000015258789" y="600" type="line"/>
      <point x="147.9000015258789" y="-210" type="line"/>
    </contour>
    <contour>
      <point x="112.9" y="-130.0" type="line"/>
      <point x="32.9" y="-130.0" type="line"/>
      <point x="32.9" y="-160.55728" type="line"/>
      <point x="82.34272" y="-210.0" type="line"/>
      <point x="112.9" y="-210.0" type="line"/>
    </contour>
  </outline>
</glyph>
<glyph name="l" format="2">
  <advance width="145.8"/>
  <unicode hex="006C"/>
  <outline>
    <contour>
      <point x="82.34272003173828" y="-5" type="line"/>
      <point x="112.9000015258789" y="-5" type="line"/>
      <point x="112.9000015258789" y="800" type="line"/>
      <point x="32.900001525878906" y="800" type="line"/>
      <point x="32.900001525878906" y="44.442718505859375" type="line"/>
    </contour>
  </outline>
</glyph>
<glyph name="m" format="2">
  <advance width="375.8"/>
  <unicode hex="006D"/>
  <outline>
    <contour>
      <point x="32.900001525878906" y="0" type="line"/>
      <point x="112.9000015258789" y="0" type="line"/>
      <point x="112.9000015258789" y="600" type="line"/>
      <point x="32.900001525878906" y="600" type="line"/>
    </contour>
    <contour>
      <point x="147.9000015258789" y="0" type="line"/>
      <point x="227.9000015258789" y="0" type="line"/>
      <point x="227.9000015258789" y="600" type="line"/>
      <point x="147.9000015258789" y="600" type="line"/>
    </contour>
    <contour>
      <point x="262.9000015258789" y="0" type="line"/>
      <point x="342.9000015258789" y="0" type="line"/>
      <point x="342.9000015258789" y="550.5572814941406" type="line"/>
      <point x="293.45728302001953" y="600" type="line"/>
      <point x="262.9000015258789" y="600" type="line"/>
    </contour>
  </outline>
</glyph>
<glyph name="n" format="2">
  <advance width="260.8"/>
  <unicode hex="006E"/>
  <outline>
    <contour>
      <point x="32.900001525878906" y="0" type="line"/>
      <point x="112.9000015258789" y="0" type="line"/>
      <point x="112.9000015258789" y="600" type="line"/>
      <point x="32.900001525878906" y="600" type="line"/>
    </contour>
    <contour>
      <point x="147.9000015258789" y="0" type="line"/>
      <point x="227.9000015258789" y="0" type="line"/>
      <point x="227.9000015258789" y="550.5572814941406" type="line"/>
      <point x="178.45728302001953" y="600" type="line"/>
      <point x="147.9000015258789" y="600" type="line"/>
    </contour>
  </outline>
</glyph>
<glyph name="r" format="2">
  <advance width="260.8"/>
  <unicode hex="0072"/>
  <outline>
    <contour>
      <point x="32.900001525878906" y="0" type="line"/>
      <point x="112.9000015258789" y="0" type="line"/>
      <point x="112.9000015258789" y="600" type="line"/>
      <point x="32.900001525878906" y="600" type="line"/>
    </contour>
    <contour>
      <point x="227.9" y="600.0" type="line"/>
      <point x="147.9" y="600.0" type="line"/>
      <point x="147.9" y="569.44272" type="line"/>
      <point x="197.34272" y="520.0" type="line"/>
      <point x="227.9" y="520.0" type="line"/>
    </contour>
  </outline>
</glyph>
<glyph name="w" format="2">
  <advance width="375.8"/>
  <unicode hex="0077"/>
  <outline>
    <contour>
      <point x="82.34272003173828" y="0" type="line"/>
      <point x="112.9000015258789" y="0" type="line"/>
      <point x="112.9000015258789" y="550.5572814941406" type="line"/>
      <point x="63.45728302001953" y="600" type="line"/>
      <point x="32.900001525878906" y="600" type="line"/>
      <point x="32.900001525878906" y="49.442718505859375" type="line"/>
    </contour>
    <contour>
      <point x="147.9000015258789" y="0" type="line"/>
      <point x="227.9000015258789" y="0" type="line"/>
      <point x="227.9000015258789" y="550.5572814941406" type="line"/>
      <point x="178.45728302001953" y="600" type="line"/>
      <point x="147.9000015258789" y="600" type="line"/>
    </contour>
    <contour>
      <point x="293.45728302001953" y="0" type="line"/>
      <point x="342.9000015258789" y="49.442718505859375" type="line"/>
      <point x="342.9000015258789" y="600" type="line"/>
      <point x="262.9000015258789" y="600" type="line"/>
      <point x="262.9000015258789" y="0" type="line"/>
    </contour>
  </outline>
</glyph>
<glyph name="x" format="2">
  <advance width="260.8"/>
  <unicode hex="0078"/>
  <outline>
    <contour>
      <point x="32.900001525878906" y="0" type="line"/>
      <point x="112.9000015258789" y="0" type="line"/>
      <point x="112.9000015258789" y="600" type="line"/>
      <point x="32.900001525878906" y="600" type="line"/>
      <point x="32.900001525878906" y="349.4427185058594" type="line"/>
      <point x="82.34272003173828" y="300" type="line"/>
      <point x="32.900001525878906" y="250.55728149414062" type="line"/>
    </contour>
    <contour>
      <point x="147.9000015258789" y="0" type="line"/>
      <point x="227.9000015258789" y="0" type="line"/>
      <point x="227.9000015258789" y="250.55728149414062" type="line"/>
      <point x="178.45728302001953" y="300" type="line"/>
      <point x="227.9000015258789" y="349.4427185058594" type="line"/>
      <point x="227.9000015258789" y="600" type="line"/>
      <point x="147.9000015258789" y="600" type="line"/>
    </contour>
  </outline>
</glyph>
<glyph name="braceleft" format="2">
  <advance width="145.8"/>
  <unicode hex="007B"/>
  <outline>
    <contour>
      <point x="82.34272003173828" y="-100" type="line"/>
      <point x="112.9000015258789" y="-100" type="line"/>
      <point x="112.9000015258789" y="350.5572814941406" type="line"/>
      <point x="63.45728302001953" y="400" type="line"/>
      <point x="112.9000015258789" y="449.4427185058594" type="line"/>
      <point x="112.9000015258789" y="900" type="line"/>
      <point x="82.34272003173828" y="900" type="line"/>
      <point x="32.900001525878906" y="850.5572814941406" type="line"/>
      <point x="32.900001525878906" y="-50.557281494140625" type="line"/>
    </contour>
  </outline>
</glyph>
<glyph name="bar" format="2">
  <advance width="145.8"/>
  <unicode hex="007C"/>
  <outline>
    <contour>
      <point x="32.900001525878906" y="-100" type="line"/>
      <point x="112.9000015258789" y="-100" type="line"/>
      <point x="112.9000015258789" y="900" type="line"/>
      <point x="32.900001525878906" y="900" type="line"/>
    </contour>
  </outline>
</glyph>
<glyph name="invexclamation" format="2">
  <advance width="145.8"/>
  <unicode hex="00A1"/>
  <outline>
    <contour>
      <point x="32.9" y="520.0" type="line"/>
      <point x="112.9" y="520.0" type="line"/>
      <point x="112.9" y="600.0" type="line"/>
      <point x="32.9" y="600.0" type="line"/>
    </contour>
    <contour>
      <point x="32.900001525878906" y="-200" type="line"/>
      <point x="112.9000015258789" y="-200" type="line"/>
      <point x="112.9000015258789" y="400" type="line"/>
      <point x="32.900001525878906" y="400" type="line"/>
    </contour>
  </outline>
</glyph>
<glyph name="cent" format="2">
  <advance width="260.8"/>
  <unicode hex="00A2"/>
  <outline>
    <contour>
      <point x="72.9000015258789" y="0" type="line"/>
      <point x="112.9000015258789" y="0" type="line"/>
      <point x="112.9000015258789" y="600" type="line"/>
      <point x="72.9000015258789" y="600" type="line"/>
      <point x="72.9000015258789" y="495.5572814941406" type="line"/>
      <point x="32.900001525878906" y="455.5572814941406" type="line"/>
      <point x="32.900001525878906" y="144.44271850585938" type="line"/>
      <point x="72.9000015258789" y="104.44271850585938" type="line"/>
    </contour>
    <contour>
      <point x="227.9000015258789" y="510" type="line"/>
      <point x="187.9000015258789" y="510" type="line"/>
      <point x="187.9000015258789" y="600" type="line"/>
      <point x="147.9000015258789" y="600" type="line"/>
      <point x="147.9000015258789" y="479.4427185058594" type="line"/>
      <point x="197.34272003173828" y="430" type="line"/>
      <point x="227.9000015258789" y="430" type="line"/>
    </contour>
    <contour>
      <point x="147.9000015258789" y="0" type="line"/>
      <point x="187.9000015258789" y="0" type="line"/>
      <point x="187.9000015258789" y="90" type="line"/>
      <point x="227.9000015258789" y="90" type="line"/>
      <point x="227.9000015258789" y="170" type="line"/>
      <point x="197.34272003173828" y="170" type="line"/>
      <point x="147.9000015258789" y="120.55728149414062" type="line"/>
    </contour>
  </outline>
</glyph>
<glyph name="pound" format="2">
  <advance width="340.8"/>
  <unicode hex="00A3"/>
  <outline>
    <contour>
      <point x="107.9000015258789" y="0" type="line"/>
      <point x="187.9000015258789" y="0" type="line"/>
      <point x="187.9000015258789" y="805" type="line"/>
      <point x="157.34272003173828" y="805" type="line"/>
      <point x="107.9000015258789" y="755.5572814941406" type="line"/>
    </contour>
    <contour>
      <point x="307.9" y="777.18847" type="line"/>
      <point x="280.08847" y="805.0" type="line"/>
      <point x="245.71153" y="805.0" type="line"/>
      <point x="217.9" y="777.18847" type="line"/>
      <point x="217.9" y="742.81153" type="line"/>
      <point x="245.71153" y="715.0" type="line"/>
      <point x="280.08847" y="715.0" type="line"/>
      <point x="307.9" y="742.81153" type="line"/>
    </contour>
    <contour>
      <point x="32.9" y="380.0" type="line"/>
      <point x="72.9" y="380.0" type="line"/>
      <point x="72.9" y="420.0" type="line"/>
      <point x="32.9" y="420.0" type="line"/>
    </contour>
    <contour>
      <point x="222.9000015258789" y="380" type="line"/>
      <point x="282.9000015258789" y="380" type="line"/>
      <point x="282.9000015258789" y="420" type="line"/>
      <point x="222.9000015258789" y="420" type="line"/>
    </contour>
    <contour>
      <point x="302.9" y="0.0" type="line"/>
      <point x="302.9" y="80.0" type="line"/>
      <point x="272.34272" y="80.0" type="line"/>
      <point x="222.9" y="30.55728" type="line"/>
      <point x="222.9" y="0.0" type="line"/>
    </contour>
    <contour>
      <point x="32.9" y="0" type="line"/>
      <point x="72.9" y="0" type="line"/>
      <point x="72.9" y="40.0" type="line"/>
      <point x="32.9" y="40.0" type="line"/>
    </contour>
  </outline>
</glyph>
<glyph name="currency" format="2">
  <advance width="260.8"/>
  <unicode hex="00A4"/>
  <outline>
    <contour>
      <point x="32.900001525878906" y="230" type="line"/>
      <point x="72.9000015258789" y="230" type="line"/>
      <point x="72.9000015258789" y="269.4427185058594" type="line"/>
      <point x="82.34272003173828" y="260" type="line"/>
      <point x="112.9000015258789" y="260" type="line"/>
      <point x="112.9000015258789" y="540" type="line"/>
      <point x="82.34272003173828" y="540" type="line"/>
      <point x="72.9000015258789" y="530.5572814941406" type="line"/>
      <point x="72.9000015258789" y="570" type="line"/>
      <point x="32.900001525878906" y="570" type="line"/>
      <point x="32.900001525878906" y="530" type="line"/>
      <point x="72.34272003173828" y="530" type="line"/>
      <point x="32.900001525878906" y="490.5572814941406" type="line"/>
      <point x="32.900001525878906" y="309.4427185058594" type="line"/>
      <point x="72.34272003173828" y="270" type="line"/>
      <point x="32.900001525878906" y="270" type="line"/>
    </contour>
    <contour>
      <point x="187.9000015258789" y="230" type="line"/>
      <point x="227.9000015258789" y="230" type="line"/>
      <point x="227.9000015258789" y="270" type="line"/>
      <point x="188.45728302001953" y="270" type="line"/>
      <point x="227.9000015258789" y="309.4427185058594" type="line"/>
      <point x="227.9000015258789" y="490.5572814941406" type="line"/>
      <point x="188.45728302001953" y="530" type="line"/>
      <point x="227.9000015258789" y="530" type="line"/>
      <point x="227.9000015258789" y="570" type="line"/>
      <point x="187.9000015258789" y="570" type="line"/>
      <point x="187.9000015258789" y="530.5572814941406" type="line"/>
      <point x="178.45728302001953" y="540" type="line"/>
      <point x="147.9000015258789" y="540" type="line"/>
      <point x="147.9000015258789" y="260" type="line"/>
      <point x="178.45728302001953" y="260" type="line"/>
      <point x="187.9000015258789" y="269.4427185058594" type="line"/>
    </contour>
  </outline>
</glyph>
<glyph name="yen" format="2">
  <advance width="410.8"/>
  <unicode hex="00A5"/>
  <outline>
    <contour>
      <point x="157.34272003173828" y="200" type="line"/>
      <point x="187.9000015258789" y="200" type="line"/>
      <point x="187.9000015258789" y="755.5572814941406" type="line"/>
      <point x="138.45728302001953" y="805" type="line"/>
      <point x="107.9000015258789" y="805" type="line"/>
      <point x="107.9000015258789" y="249.44271850585938" type="line"/>
    </contour>
    <contour>
      <point x="253.45728302001953" y="-5" type="line"/>
      <point x="302.9000015258789" y="44.442718505859375" type="line"/>
      <point x="302.9000015258789" y="800" type="line"/>
      <point x="222.9000015258789" y="800" type="line"/>
      <point x="222.9000015258789" y="-5" type="line"/>
    </contour>
    <contour>
      <point x="32.9" y="555.0" type="line"/>
      <point x="72.9" y="555.0" type="line"/>
      <point x="72.9" y="595.0" type="line"/>
      <point x="32.9" y="595.0" type="line"/>
    </contour>
    <contour>
      <point x="337.9" y="555.0" type="line"/>
      <point x="377.9" y="555.0" type="line"/>
      <point x="377.9" y="595.0" type="line"/>
      <point x="337.9" y="595.0" type="line"/>
    </contour>
    <contour>
      <point x="32.9" y="405.0" type="line"/>
      <point x="72.9" y="405.0" type="line"/>
      <point x="72.9" y="445.0" type="line"/>
      <point x="32.9" y="445.0" type="line"/>
    </contour>
    <contour>
      <point x="337.9" y="405.0" type="line"/>
      <point x="377.9" y="405.0" type="line"/>
      <point x="377.9" y="445.0" type="line"/>
      <point x="337.9" y="445.0" type="line"/>
    </contour>
  </outline>
</glyph>
<glyph name="brokenbar" format="2">
  <advance width="145.8"/>
  <unicode hex="00A6"/>
  <outline>
    <contour>
      <point x="32.900001525878906" y="500" type="line"/>
      <point x="112.9000015258789" y="500" type="line"/>
      <point x="112.9000015258789" y="900" type="line"/>
      <point x="32.900001525878906" y="900" type="line"/>
    </contour>
    <contour>
      <point x="32.900001525878906" y="-100" type="line"/>
      <point x="112.9000015258789" y="-100" type="line"/>
      <point x="112.9000015258789" y="300" type="line"/>
      <point x="32.900001525878906" y="300" type="line"/>
    </contour>
  </outline>
</glyph>
<glyph name="section" format="2">
  <advance width="260.8"/>
  <unicode hex="00A7"/>
  <outline>
    <contour>
      <point x="32.900001525878906" y="450.5572814941406" type="line"/>
      <point x="32.900001525878906" y="149.44271850585938" type="line"/>
      <point x="82.34272003173828" y="100" type="line"/>
      <point x="112.9000015258789" y="100" type="line"/>
      <point x="112.9000015258789" y="800" type="line"/>
      <point x="82.34272003173828" y="800" type="line"/>
      <point x="32.900001525878906" y="750.5572814941406" type="line"/>
      <point x="32.900001525878906" y="509.4427185058594" type="line"/>
      <point x="62.34272003173828" y="480" type="line"/>
    </contour>
    <contour>
      <point x="227.9" y="800.0" type="line"/>
      <point x="147.9" y="800.0" type="line"/>
      <point x="147.9" y="769.44272" type="line"/>
      <point x="197.34272" y="720.0" type="line"/>
      <point x="227.9" y="720.0" type="line"/>
    </contour>
    <contour>
      <point x="178.45728302001953" y="-200" type="line"/>
      <point x="227.9000015258789" y="-150.55728149414062" type="line"/>
      <point x="227.9000015258789" y="90.55728149414062" type="line"/>
      <point x="198.45728302001953" y="120" type="line"/>
      <point x="227.9000015258789" y="149.44271850585938" type="line"/>
      <point x="227.9000015258789" y="450.5572814941406" type="line"/>
      <point x="178.45728302001953" y="500" type="line"/>
      <point x="147.9000015258789" y="500" type="line"/>
      <point x="147.9000015258789" y="-200" type="line"/>
    </contour>
    <contour>
      <point x="32.9" y="-200" type="line"/>
      <point x="112.9" y="-200" type="line"/>
      <point x="112.9" y="-169.44272" type="line"/>
      <point x="63.45728" y="-120.0" type="line"/>
      <point x="32.9" y="-120.0" type="line"/>
    </contour>
  </outline>
</glyph>
<glyph name="diaeresis" format="2">
  <advance width="260.8"/>
  <unicode hex="00A8"/>
  <outline>
    <contour>
      <point x="32.9" y="920.0" type="line"/>
      <point x="112.9" y="920.0" type="line"/>
      <point x="112.9" y="1000.0" type="line"/>
      <point x="32.9" y="1000.0" type="line"/>
    </contour>
    <contour>
      <point x="147.9" y="920.0" type="line"/>
      <point x="227.9" y="920.0" type="line"/>
      <point x="227.9" y="1000.0" type="line"/>
      <point x="147.9" y="1000.0" type="line"/>
    </contour>
  </outline>
</glyph>
<glyph name="copyright" format="2">
  <advance width="792.0197800000001"/>
  <unicode hex="00A9"/>
  <outline>
    <contour>
      <point x="719.11978" y="533.8365" type="line"/>
      <point x="529.84639" y="723.10989" type="line"/>
      <point x="262.17339000000004" y="723.10989" type="line"/>
      <point x="72.9" y="533.8365" type="line"/>
      <point x="72.9" y="266.1635" type="line"/>
      <point x="262.17339000000004" y="76.89011" type="line"/>
      <point x="529.84639" y="76.89011" type="line"/>
      <point x="719.11978" y="266.1635" type="line"/>
    </contour>
    <contour>
      <point x="342.9526062011719" y="190" type="line"/>
      <point x="293.5098876953125" y="239.44271850585938" type="line"/>
      <point x="293.5098876953125" y="560.5572814941406" type="line"/>
      <point x="342.9526062011719" y="610" type="line"/>
      <point x="373.5098876953125" y="610" type="line"/>
      <point x="373.5098876953125" y="190" type="line"/>
    </contour>
    <contour>
      <point x="488.50989000000004" y="610.0" type="line"/>
      <point x="488.50989000000004" y="530.0" type="line"/>
      <point x="457.95261000000005" y="530.0" type="line"/>
      <point x="408.50989000000004" y="579.44272" type="line"/>
      <point x="408.50989000000004" y="610.0" type="line"/>
    </contour>
    <contour>
      <point x="488.50989000000004" y="190.0" type="line"/>
      <point x="408.50989000000004" y="190.0" type="line"/>
      <point x="408.50989000000004" y="220.55728" type="line"/>
      <point x="457.95261000000005" y="270.0" type="line"/>
      <point x="488.50989000000004" y="270.0" type="line"/>
    </contour>
  </outline>
</glyph>
<glyph name="ordinalfeminine" format="2">
  <advance width="260.8"/>
  <unicode hex="00AA"/>
  <outline>
    <contour>
      <point x="82.34272003173828" y="400" type="line"/>
      <point x="112.9000015258789" y="400" type="line"/>
      <point x="112.9000015258789" y="800" type="line"/>
      <point x="82.34272003173828" y="800" type="line"/>
      <point x="32.900001525878906" y="750.5572814941406" type="line"/>
      <point x="32.900001525878906" y="449.4427185058594" type="line"/>
    </contour>
    <contour>
      <point x="197.34272003173828" y="400" type="line"/>
      <point x="227.9000015258789" y="400" type="line"/>
      <point x="227.9000015258789" y="800" type="line"/>
      <point x="147.9000015258789" y="800" type="line"/>
      <point x="147.9000015258789" y="449.4427185058594" type="line"/>
    </contour>
  </outline>
</glyph>
<glyph name="angledblleft" format="2">
  <advance width="260.8"/>
  <unicode hex="00AB"/>
  <outline>
    <contour>
      <point x="82.34272003173828" y="320" type="line"/>
      <point x="112.9000015258789" y="320" type="line"/>
      <point x="112.9000015258789" y="480" type="line"/>
      <point x="82.34272003173828" y="480" type="line"/>
      <point x="32.900001525878906" y="430.5572814941406" type="line"/>
      <point x="32.900001525878906" y="369.4427185058594" type="line"/>
    </contour>
    <contour>
      <point x="197.34272003173828" y="320" type="line"/>
      <point x="227.9000015258789" y="320" type="line"/>
      <point x="227.9000015258789" y="480" type="line"/>
      <point x="197.34272003173828" y="480" type="line"/>
      <point x="147.9000015258789" y="430.5572814941406" type="line"/>
      <point x="147.9000015258789" y="369.4427185058594" type="line"/>
    </contour>
  </outline>
</glyph>
<glyph name="registered" format="2">
  <advance width="792.0197800000001"/>
  <unicode hex="00AE"/>
  <outline>
    <contour>
      <point x="719.11978" y="533.8365" type="line"/>
      <point x="529.84639" y="723.10989" type="line"/>
      <point x="262.17339000000004" y="723.10989" type="line"/>
      <point x="72.9" y="533.8365" type="line"/>
      <point x="72.9" y="266.1635" type="line"/>
      <point x="262.17339000000004" y="76.89011" type="line"/>
      <point x="529.84639" y="76.89011" type="line"/>
      <point x="719.11978" y="266.1635" type="line"/>
    </contour>
    <contour>
      <point x="308.5098876953125" y="200" type="line"/>
      <point x="308.5098876953125" y="600" type="line"/>
      <point x="388.5098876953125" y="600" type="line"/>
      <point x="388.5098876953125" y="200" type="line"/>
    </contour>
    <contour>
      <point x="503.50989000000004" y="600.0" type="line"/>
      <point x="503.50989000000004" y="520.0" type="line"/>
      <point x="472.95261000000005" y="520.0" type="line"/>
      <point x="423.50989000000004" y="569.44272" type="line"/>
      <point x="423.50989000000004" y="600.0" type="line"/>
    </contour>
  </outline>
</glyph>
<glyph name="macron" format="2">
  <advance width="260.8"/>
  <unicode hex="00AF"/>
  <outline>
    <contour>
      <point x="50.400001525878906" y="800" type="line"/>
      <point x="210.4000015258789" y="800" type="line"/>
      <point x="210.4000015258789" y="880" type="line"/>
      <point x="50.400001525878906" y="880" type="line"/>
    </contour>
  </outline>
</glyph>
<glyph name="degree" format="2">
  <advance width="190.8"/>
  <unicode hex="00B0"/>
  <outline>
    <contour>
      <point x="77.9" y="805.0" type="line"/>
      <point x="60.711529999999996" y="805.0" type="line"/>
      <point x="32.9" y="777.18847" type="line"/>
      <point x="32.9" y="742.81153" type="line"/>
      <point x="60.711529999999996" y="715.0" type="line"/>
      <point x="77.9" y="715.0" type="line"/>
    </contour>
    <contour>
      <point x="112.9" y="715.0" type="line"/>
      <point x="130.08847" y="715.0" type="line"/>
      <point x="157.9" y="742.81153" type="line"/>
      <point x="157.9" y="777.18847" type="line"/>
      <point x="130.08847" y="805.0" type="line"/>
      <point x="112.9" y="805.0" type="line"/>
    </contour>
  </outline>
</glyph>
<glyph name="plus_minus" format="2">
  <advance width="375.8"/>
  <unicode hex="00B1"/>
  <outline>
    <contour>
      <point x="147.9000015258789" y="300" type="line"/>
      <point x="227.9000015258789" y="300" type="line"/>
      <point x="227.9000015258789" y="460" type="line"/>
      <point x="307.9000015258789" y="460" type="line"/>
      <point x="307.9000015258789" y="540" type="line"/>
      <point x="227.9000015258789" y="540" type="line"/>
      <point x="227.9000015258789" y="700" type="line"/>
      <point x="147.9000015258789" y="700" type="line"/>
      <point x="147.9000015258789" y="540" type="line"/>
      <point x="67.9000015258789" y="540" type="line"/>
      <point x="67.9000015258789" y="460" type="line"/>
      <point x="147.9000015258789" y="460" type="line"/>
    </contour>
    <contour>
      <point x="67.9000015258789" y="160" type="line"/>
      <point x="307.9000015258789" y="160" type="line"/>
      <point x="307.9000015258789" y="240" type="line"/>
      <point x="67.9000015258789" y="240" type="line"/>
    </contour>
  </outline>
</glyph>
<glyph name="sup_two" format="2">
  <advance width="260.8"/>
  <unicode hex="00B2"/>
  <outline>
    <contour>
      <point x="112.9" y="725.0" type="line"/>
      <point x="112.9" y="805.0" type="line"/>
      <point x="82.34272" y="805.0" type="line"/>
      <point x="32.9" y="755.55728" type="line"/>
      <point x="32.9" y="725.0" type="line"/>
    </contour>
    <contour>
      <point x="178.45728302001953" y="333" type="line"/>
      <point x="227.9000015258789" y="382.4427185058594" type="line"/>
      <point x="227.9000015258789" y="755.5572814941406" type="line"/>
      <point x="178.45728302001953" y="805" type="line"/>
      <point x="147.9000015258789" y="805" type="line"/>
      <point x="147.9000015258789" y="333" type="line"/>
    </contour>
    <contour>
      <point x="32.900001525878906" y="230.55728149414062" type="line"/>
      <point x="32.900001525878906" y="200" type="line"/>
      <point x="227.9000015258789" y="200" type="line"/>
      <point x="227.9000015258789" y="280" type="line"/>
      <point x="82.34272003173828" y="280" type="line"/>
    </contour>
  </outline>
</glyph>
<glyph name="sup_three" format="2">
  <advance width="260.8"/>
  <unicode hex="00B3"/>
  <outline>
    <contour>
      <point x="32.9" y="800.0" type="line"/>
      <point x="32.9" y="720.0" type="line"/>
      <point x="63.45728" y="720.0" type="line"/>
      <point x="112.9" y="769.44272" type="line"/>
      <point x="112.9" y="800.0" type="line"/>
    </contour>
    <contour>
      <point x="178.45728302001953" y="195" type="line"/>
      <point x="227.9000015258789" y="244.44271850585938" type="line"/>
      <point x="227.9000015258789" y="550.5572814941406" type="line"/>
      <point x="178.45728302001953" y="600" type="line"/>
      <point x="227.9000015258789" y="649.4427185058594" type="line"/>
      <point x="227.9000015258789" y="800" type="line"/>
      <point x="147.9000015258789" y="800" type="line"/>
      <point x="147.9000015258789" y="195" type="line"/>
    </contour>
    <contour>
      <point x="112.9" y="275.0" type="line"/>
      <point x="32.9" y="275.0" type="line"/>
      <point x="32.9" y="244.44272" type="line"/>
      <point x="82.34272" y="195.0" type="line"/>
      <point x="112.9" y="195.0" type="line"/>
    </contour>
  </outline>
</glyph>
<glyph name="acute" format="2">
  <advance width="145.8"/>
  <unicode hex="00B4"/>
  <outline>
    <contour>
      <point x="67.9" y="880.0" type="line"/>
      <point x="67.9" y="800.0" type="line"/>
      <point x="98.45728" y="800.0" type="line"/>
      <point x="147.9" y="849.44272" type="line"/>
      <point x="147.9" y="880.0" type="line"/>
    </contour>
  </outline>
</glyph>
<glyph name="mu" format="2">
  <advance width="295.8"/>
  <unicode hex="00B5"/>
  <outline>
    <contour>
      <point x="32.900001525878906" y="-200" type="line"/>
      <point x="112.9000015258789" y="-200" type="line"/>
      <point x="112.9000015258789" y="600" type="line"/>
      <point x="32.900001525878906" y="600" type="line"/>
    </contour>
    <contour>
      <point x="197.34272003173828" y="0" type="line"/>
      <point x="262.9000015258789" y="0" type="line"/>
      <point x="262.9000015258789" y="80" type="line"/>
      <point x="227.9000015258789" y="80" type="line"/>
      <point x="227.9000015258789" y="600" type="line"/>
      <point x="147.9000015258789" y="600" type="line"/>
      <point x="147.9000015258789" y="49.442718505859375" type="line"/>
    </contour>
  </outline>
</glyph>
<glyph name="cedilla" format="2">
  <advance width="145.8"/>
  <unicode hex="00B8"/>
  <outline>
    <contour>
      <point x="67.9" y="-80.0" type="line"/>
      <point x="147.9" y="-80.0" type="line"/>
      <point x="147.9" y="-49.44272000000001" type="line"/>
      <point x="98.45728" y="0.0" type="line"/>
      <point x="67.9" y="0.0" type="line"/>
    </contour>
  </outline>
</glyph>
<glyph name="angledblright" format="2">
  <advance width="260.8"/>
  <unicode hex="00BB"/>
  <outline>
    <contour>
      <point x="63.45728302001953" y="320" type="line"/>
      <point x="112.9000015258789" y="369.4427185058594" type="line"/>
      <point x="112.9000015258789" y="430.5572814941406" type="line"/>
      <point x="63.45728302001953" y="480" type="line"/>
      <point x="32.900001525878906" y="480" type="line"/>
      <point x="32.900001525878906" y="320" type="line"/>
    </contour>
    <contour>
      <point x="178.45728302001953" y="320" type="line"/>
      <point x="227.9000015258789" y="369.4427185058594" type="line"/>
      <point x="227.9000015258789" y="430.5572814941406" type="line"/>
      <point x="178.45728302001953" y="480" type="line"/>
      <point x="147.9000015258789" y="480" type="line"/>
      <point x="147.9000015258789" y="320" type="line"/>
    </contour>
  </outline>
</glyph>
<glyph name="one_over_four" format="2">
  <advance width="490.8"/>
  <unicode hex="00BC"/>
  <outline>
    <contour>
      <point x="15.400001525878906" y="200" type="line"/>
      <point x="95.4000015258789" y="200" type="line"/>
      <point x="95.4000015258789" y="800" type="line"/>
      <point x="15.400001525878906" y="800" type="line"/>
    </contour>
    <contour>
      <point x="178.45728302001953" y="-200" type="line"/>
      <point x="227.9000015258789" y="-150.55728149414062" type="line"/>
      <point x="227.9000015258789" y="800" type="line"/>
      <point x="197.34272003173828" y="800" type="line"/>
      <point x="147.9000015258789" y="750.5572814941406" type="line"/>
      <point x="147.9000015258789" y="-200" type="line"/>
    </contour>
    <contour>
      <point x="310.95728302001953" y="0" type="line"/>
      <point x="360.4000015258789" y="49.442718505859375" type="line"/>
      <point x="360.4000015258789" y="400" type="line"/>
      <point x="280.4000015258789" y="400" type="line"/>
      <point x="280.4000015258789" y="0" type="line"/>
    </contour>
    <contour>
      <point x="395.4000015258789" y="-200" type="line"/>
      <point x="475.4000015258789" y="-200" type="line"/>
      <point x="475.4000015258789" y="200" type="line"/>
      <point x="395.4000015258789" y="200" type="line"/>
    </contour>
  </outline>
</glyph>
<glyph name="one_over_two" format="2">
  <advance width="490.8"/>
  <unicode hex="00BD"/>
  <outline>
    <contour>
      <point x="15.400001525878906" y="200" type="line"/>
      <point x="95.4000015258789" y="200" type="line"/>
      <point x="95.4000015258789" y="800" type="line"/>
      <point x="15.400001525878906" y="800" type="line"/>
    </contour>
    <contour>
      <point x="178.45728302001953" y="-200" type="line"/>
      <point x="227.9000015258789" y="-150.55728149414062" type="line"/>
      <point x="227.9000015258789" y="800" type="line"/>
      <point x="197.34272003173828" y="800" type="line"/>
      <point x="147.9000015258789" y="750.5572814941406" type="line"/>
      <point x="147.9000015258789" y="-200" type="line"/>
    </contour>
    <contour>
      <point x="360.4" y="325.0" type="line"/>
      <point x="360.4" y="405.0" type="line"/>
      <point x="329.84272" y="405.0" type="line"/>
      <point x="280.4" y="355.55728" type="line"/>
      <point x="280.4" y="325.0" type="line"/>
    </contour>
    <contour>
      <point x="425.95728302001953" y="-67" type="line"/>
      <point x="475.4000015258789" y="-17.557281494140625" type="line"/>
      <point x="475.4000015258789" y="355.5572814941406" type="line"/>
      <point x="425.95728302001953" y="405" type="line"/>
      <point x="395.4000015258789" y="405" type="line"/>
      <point x="395.4000015258789" y="-67" type="line"/>
    </contour>
    <contour>
      <point x="280.4000015258789" y="-169.44271850585938" type="line"/>
      <point x="280.4000015258789" y="-200" type="line"/>
      <point x="475.4000015258789" y="-200" type="line"/>
      <point x="475.4000015258789" y="-120" type="line"/>
      <point x="329.8427200317383" y="-120" type="line"/>
    </contour>
  </outline>
</glyph>
<glyph name="three_over_four" format="2">
  <advance width="605.8"/>
  <unicode hex="00BE"/>
  <outline>
    <contour>
      <point x="15.399999999999999" y="800.0" type="line"/>
      <point x="15.399999999999999" y="720.0" type="line"/>
      <point x="45.95728" y="720.0" type="line"/>
      <point x="95.4" y="769.44272" type="line"/>
      <point x="95.4" y="800.0" type="line"/>
    </contour>
    <contour>
      <point x="160.95728302001953" y="195" type="line"/>
      <point x="210.4000015258789" y="244.44271850585938" type="line"/>
      <point x="210.4000015258789" y="550.5572814941406" type="line"/>
      <point x="160.95728302001953" y="600" type="line"/>
      <point x="210.4000015258789" y="649.4427185058594" type="line"/>
      <point x="210.4000015258789" y="800" type="line"/>
      <point x="130.4000015258789" y="800" type="line"/>
      <point x="130.4000015258789" y="195" type="line"/>
    </contour>
    <contour>
      <point x="293.45728302001953" y="-200" type="line"/>
      <point x="342.9000015258789" y="-150.55728149414062" type="line"/>
      <point x="342.9000015258789" y="800" type="line"/>
      <point x="312.3427200317383" y="800" type="line"/>
      <point x="262.9000015258789" y="750.5572814941406" type="line"/>
      <point x="262.9000015258789" y="-200" type="line"/>
    </contour>
    <contour>
      <point x="425.95728302001953" y="0" type="line"/>
      <point x="475.4000015258789" y="49.442718505859375" type="line"/>
      <point x="475.4000015258789" y="400" type="line"/>
      <point x="395.4000015258789" y="400" type="line"/>
      <point x="395.4000015258789" y="0" type="line"/>
    </contour>
    <contour>
      <point x="95.4" y="275.0" type="line"/>
      <point x="15.399999999999999" y="275.0" type="line"/>
      <point x="15.399999999999999" y="244.44272" type="line"/>
      <point x="64.84272" y="195.0" type="line"/>
      <point x="95.4" y="195.0" type="line"/>
    </contour>
    <contour>
      <point x="510.4000015258789" y="-200" type="line"/>
      <point x="590.4000015258789" y="-200" type="line"/>
      <point x="590.4000015258789" y="200" type="line"/>
      <point x="510.4000015258789" y="200" type="line"/>
    </contour>
  </outline>
</glyph>
<glyph name="invquestion" format="2">
  <advance width="260.8"/>
  <unicode hex="00BF"/>
  <outline>
    <contour>
      <point x="147.9" y="520.0" type="line"/>
      <point x="227.9" y="520.0" type="line"/>
      <point x="227.9" y="600.0" type="line"/>
      <point x="147.9" y="600.0" type="line"/>
    </contour>
    <contour>
      <point x="147.9000015258789" y="400" type="line"/>
      <point x="147.9000015258789" y="125" type="line"/>
      <point x="178.45728302001953" y="125" type="line"/>
      <point x="227.9000015258789" y="174.44271850585938" type="line"/>
      <point x="227.9000015258789" y="400" type="line"/>
    </contour>
    <contour>
      <point x="82.34272003173828" y="-205" type="line"/>
      <point x="112.9000015258789" y="-205" type="line"/>
      <point x="112.9000015258789" y="195" type="line"/>
      <point x="82.34272003173828" y="195" type="line"/>
      <point x="32.900001525878906" y="145.55728149414062" type="line"/>
      <point x="32.900001525878906" y="-155.55728149414062" type="line"/>
    </contour>
    <contour>
      <point x="227.9" y="-205.0" type="line"/>
      <point x="227.9" y="-125.0" type="line"/>
      <point x="197.34272" y="-125.0" type="line"/>
      <point x="147.9" y="-174.44272" type="line"/>
      <point x="147.9" y="-205.0" type="line"/>
    </contour>
  </outline>
</glyph>
<glyph name="A_with_grave" format="2">
  <advance width="260.8"/>
  <unicode hex="00C0"/>
  <outline>
    <contour>
      <point x="135.4" y="930.0" type="line"/>
      <point x="55.400000000000006" y="930.0" type="line"/>
      <point x="55.400000000000006" y="899.44272" type="line"/>
      <point x="104.84272" y="850.0" type="line"/>
      <point x="135.4" y="850.0" type="line"/>
    </contour>
    <contour>
      <point x="32.900001525878906" y="0" type="line"/>
      <point x="112.9000015258789" y="0" type="line"/>
      <point x="112.9000015258789" y="805" type="line"/>
      <point x="82.34272003173828" y="805" type="line"/>
      <point x="32.900001525878906" y="755.5572814941406" type="line"/>
    </contour>
    <contour>
      <point x="147.9000015258789" y="0" type="line"/>
      <point x="227.9000015258789" y="0" type="line"/>
      <point x="227.9000015258789" y="755.5572814941406" type="line"/>
      <point x="178.45728302001953" y="805" type="line"/>
      <point x="147.9000015258789" y="805" type="line"/>
    </contour>
  </outline>
</glyph>
<glyph name="A_with_acute" format="2">
  <advance width="260.8"/>
  <unicode hex="00C1"/>
  <outline>
    <contour>
      <point x="125.4" y="930.0" type="line"/>
      <point x="125.4" y="850.0" type="line"/>
      <point x="155.95728000000003" y="850.0" type="line"/>
      <point x="205.4" y="899.44272" type="line"/>
      <point x="205.4" y="930.0" type="line"/>
    </contour>
    <contour>
      <point x="32.900001525878906" y="0" type="line"/>
      <point x="112.9000015258789" y="0" type="line"/>
      <point x="112.9000015258789" y="805" type="line"/>
      <point x="82.34272003173828" y="805" type="line"/>
      <point x="32.900001525878906" y="755.5572814941406" type="line"/>
    </contour>
    <contour>
      <point x="147.9000015258789" y="0" type="line"/>
      <point x="227.9000015258789" y="0" type="line"/>
      <point x="227.9000015258789" y="755.5572814941406" type="line"/>
      <point x="178.45728302001953" y="805" type="line"/>
      <point x="147.9000015258789" y="805" type="line"/>
    </contour>
  </outline>
</glyph>
<glyph name="A_with_diaeresis" format="2">
  <advance width="260.8"/>
  <unicode hex="00C4"/>
  <outline>
    <contour>
      <point x="32.900000000000006" y="970.0" type="line"/>
      <point x="112.9" y="970.0" type="line"/>
      <point x="112.9" y="1050.0" type="line"/>
      <point x="32.900000000000006" y="1050.0" type="line"/>
    </contour>
    <contour>
      <point x="147.9" y="970.0" type="line"/>
      <point x="227.9" y="970.0" type="line"/>
      <point x="227.9" y="1050.0" type="line"/>
      <point x="147.9" y="1050.0" type="line"/>
    </contour>
    <contour>
      <point x="32.900001525878906" y="0" type="line"/>
      <point x="112.9000015258789" y="0" type="line"/>
      <point x="112.9000015258789" y="805" type="line"/>
      <point x="82.34272003173828" y="805" type="line"/>
      <point x="32.900001525878906" y="755.5572814941406" type="line"/>
    </contour>
    <contour>
      <point x="147.9000015258789" y="0" type="line"/>
      <point x="227.9000015258789" y="0" type="line"/>
      <point x="227.9000015258789" y="755.5572814941406" type="line"/>
      <point x="178.45728302001953" y="805" type="line"/>
      <point x="147.9000015258789" y="805" type="line"/>
    </contour>
  </outline>
</glyph>
<glyph name="C_with_cedilla" format="2">
  <advance width="260.8"/>
  <unicode hex="00C7"/>
  <outline>
    <contour>
      <point x="82.34272003173828" y="0" type="line"/>
      <point x="112.9000015258789" y="0" type="line"/>
      <point x="112.9000015258789" y="800" type="line"/>
      <point x="82.34272003173828" y="800" type="line"/>
      <point x="32.900001525878906" y="750.5572814941406" type="line"/>
      <point x="32.900001525878906" y="49.442718505859375" type="line"/>
    </contour>
    <contour>
      <point x="197.34272003173828" y="520" type="line"/>
      <point x="227.9000015258789" y="520" type="line"/>
      <point x="227.9000015258789" y="800" type="line"/>
      <point x="147.9000015258789" y="800" type="line"/>
      <point x="147.9000015258789" y="569.4427185058594" type="line"/>
    </contour>
    <contour>
      <point x="227.9" y="0.0" type="line"/>
      <point x="227.9" y="80.0" type="line"/>
      <point x="197.34272" y="80.0" type="line"/>
      <point x="147.9" y="30.55728" type="line"/>
      <point x="147.9" y="0.0" type="line"/>
    </contour>
    <contour>
      <point x="125.4" y="-105.0" type="line"/>
      <point x="205.4" y="-105.0" type="line"/>
      <point x="205.4" y="-74.44272000000001" type="line"/>
      <point x="155.95728000000003" y="-25.0" type="line"/>
      <point x="125.4" y="-25.0" type="line"/>
    </contour>
  </outline>
</glyph>
<glyph name="E_with_circumflex" format="2">
  <advance width="260.8"/>
  <unicode hex="00CA"/>
  <outline>
    <contour>
      <point x="47.900000000000006" y="930.0" type="line"/>
      <point x="47.900000000000006" y="850.0" type="line"/>
      <point x="78.45728" y="850.0" type="line"/>
      <point x="127.9" y="899.44272" type="line"/>
      <point x="127.9" y="930.0" type="line"/>
    </contour>
    <contour>
      <point x="212.9" y="930.0" type="line"/>
      <point x="132.9" y="930.0" type="line"/>
      <point x="132.9" y="899.44272" type="line"/>
      <point x="182.34272" y="850.0" type="line"/>
      <point x="212.9" y="850.0" type="line"/>
    </contour>
    <contour>
      <point x="32.900001525878906" y="0" type="line"/>
      <point x="112.9000015258789" y="0" type="line"/>
      <point x="112.9000015258789" y="800" type="line"/>
      <point x="32.900001525878906" y="800" type="line"/>
    </contour>
    <contour>
      <point x="227.9" y="800.0" type="line"/>
      <point x="147.9" y="800.0" type="line"/>
      <point x="147.9" y="769.44272" type="line"/>
      <point x="197.34272" y="720.0" type="line"/>
      <point x="227.9" y="720.0" type="line"/>
    </contour>
    <contour>
      <point x="227.9" y="440.0" type="line"/>
      <point x="147.9" y="440.0" type="line"/>
      <point x="147.9" y="409.44272" type="line"/>
      <point x="197.34272" y="360.0" type="line"/>
      <point x="227.9" y="360.0" type="line"/>
    </contour>
    <contour>
      <point x="227.9" y="0.0" type="line"/>
      <point x="227.9" y="80.0" type="line"/>
      <point x="197.34272" y="80.0" type="line"/>
      <point x="147.9" y="30.55728" type="line"/>
      <point x="147.9" y="0.0" type="line"/>
    </contour>
  </outline>
</glyph>
<glyph name="I_with_grave" format="2">
  <advance width="145.8"/>
  <unicode hex="00CC"/>
  <outline>
    <contour>
      <point x="77.9" y="930.0" type="line"/>
      <point x="-2.0999999999999943" y="930.0" type="line"/>
      <point x="-2.0999999999999943" y="899.44272" type="line"/>
      <point x="47.34272000000001" y="850.0" type="line"/>
      <point x="77.9" y="850.0" type="line"/>
    </contour>
    <contour>
      <point x="32.900001525878906" y="0" type="line"/>
      <point x="112.9000015258789" y="0" type="line"/>
      <point x="112.9000015258789" y="800" type="line"/>
      <point x="32.900001525878906" y="800" type="line"/>
    </contour>
  </outline>
</glyph>
<glyph name="I_with_circumflex" format="2">
  <advance width="145.8"/>
  <unicode hex="00CE"/>
  <outline>
    <contour>
      <point x="-9.599999999999994" y="930.0" type="line"/>
      <point x="-9.599999999999994" y="850.0" type="line"/>
      <point x="20.957280000000004" y="850.0" type="line"/>
      <point x="70.4" y="899.44272" type="line"/>
      <point x="70.4" y="930.0" type="line"/>
    </contour>
    <contour>
      <point x="155.4" y="930.0" type="line"/>
      <point x="75.4" y="930.0" type="line"/>
      <point x="75.4" y="899.44272" type="line"/>
      <point x="124.84272000000001" y="850.0" type="line"/>
      <point x="155.4" y="850.0" type="line"/>
    </contour>
    <contour>
      <point x="32.900001525878906" y="0" type="line"/>
      <point x="112.9000015258789" y="0" type="line"/>
      <point x="112.9000015258789" y="800" type="line"/>
      <point x="32.900001525878906" y="800" type="line"/>
    </contour>
  </outline>
</glyph>
<glyph name="I_with_diaeresis" format="2">
  <advance width="145.8"/>
  <unicode hex="00CF"/>
  <outline>
    <contour>
      <point x="-24.599999999999994" y="970.0" type="line"/>
      <point x="55.400000000000006" y="970.0" type="line"/>
      <point x="55.400000000000006" y="1050.0" type="line"/>
      <point x="-24.599999999999994" y="1050.0" type="line"/>
    </contour>
    <contour>
      <point x="90.4" y="970.0" type="line"/>
      <point x="170.4" y="970.0" type="line"/>
      <point x="170.4" y="1050.0" type="line"/>
      <point x="90.4" y="1050.0" type="line"/>
    </contour>
    <contour>
      <point x="32.900001525878906" y="0" type="line"/>
      <point x="112.9000015258789" y="0" type="line"/>
      <point x="112.9000015258789" y="800" type="line"/>
      <point x="32.900001525878906" y="800" type="line"/>
    </contour>
  </outline>
</glyph>
<glyph name="ETH" format="2">
  <advance width="375.8"/>
  <unicode hex="00D0"/>
  <outline>
    <contour>
      <point x="147.9000015258789" y="0" type="line"/>
      <point x="227.9000015258789" y="0" type="line"/>
      <point x="227.9000015258789" y="800" type="line"/>
      <point x="147.9000015258789" y="800" type="line"/>
      <point x="147.9000015258789" y="440" type="line"/>
      <point x="132.34272003173828" y="440" type="line"/>
      <point x="82.9000015258789" y="390.5572814941406" type="line"/>
      <point x="82.9000015258789" y="360" type="line"/>
      <point x="147.9000015258789" y="360" type="line"/>
    </contour>
    <contour>
      <point x="293.45728302001953" y="0" type="line"/>
      <point x="342.9000015258789" y="49.442718505859375" type="line"/>
      <point x="342.9000015258789" y="750.5572814941406" type="line"/>
      <point x="293.45728302001953" y="800" type="line"/>
      <point x="262.9000015258789" y="800" type="line"/>
      <point x="262.9000015258789" y="0" type="line"/>
    </contour>
  </outline>
</glyph>
<glyph name="O_with_circumflex" format="2">
  <advance width="260.8"/>
  <unicode hex="00D4"/>
  <outline>
    <contour>
      <point x="47.900000000000006" y="930.0" type="line"/>
      <point x="47.900000000000006" y="850.0" type="line"/>
      <point x="78.45728" y="850.0" type="line"/>
      <point x="127.9" y="899.44272" type="line"/>
      <point x="127.9" y="930.0" type="line"/>
    </contour>
    <contour>
      <point x="212.9" y="930.0" type="line"/>
      <point x="132.9" y="930.0" type="line"/>
      <point x="132.9" y="899.44272" type="line"/>
      <point x="182.34272" y="850.0" type="line"/>
      <point x="212.9" y="850.0" type="line"/>
    </contour>
    <contour>
      <point x="82.34272003173828" y="-5" type="line"/>
      <point x="112.9000015258789" y="-5" type="line"/>
      <point x="112.9000015258789" y="805" type="line"/>
      <point x="82.34272003173828" y="805" type="line"/>
      <point x="32.900001525878906" y="755.5572814941406" type="line"/>
      <point x="32.900001525878906" y="44.442718505859375" type="line"/>
    </contour>
    <contour>
      <point x="178.45728302001953" y="-5" type="line"/>
      <point x="227.9000015258789" y="44.442718505859375" type="line"/>
      <point x="227.9000015258789" y="755.5572814941406" type="line"/>
      <point x="178.45728302001953" y="805" type="line"/>
      <point x="147.9000015258789" y="805" type="line"/>
      <point x="147.9000015258789" y="-5" type="line"/>
    </contour>
  </outline>
</glyph>
<glyph name="O_with_smalltilde" format="2">
  <advance width="260.8"/>
  <unicode hex="00D5"/>
  <outline>
    <contour>
      <point x="50.400001525878906" y="880.5572814941406" type="line"/>
      <point x="50.400001525878906" y="850" type="line"/>
      <point x="160.95728302001953" y="850" type="line"/>
      <point x="210.4000015258789" y="899.4427185058594" type="line"/>
      <point x="210.4000015258789" y="930" type="line"/>
      <point x="99.84272003173828" y="930" type="line"/>
    </contour>
    <contour>
      <point x="82.34272003173828" y="-5" type="line"/>
      <point x="112.9000015258789" y="-5" type="line"/>
      <point x="112.9000015258789" y="805" type="line"/>
      <point x="82.34272003173828" y="805" type="line"/>
      <point x="32.900001525878906" y="755.5572814941406" type="line"/>
      <point x="32.900001525878906" y="44.442718505859375" type="line"/>
    </contour>
    <contour>
      <point x="178.45728302001953" y="-5" type="line"/>
      <point x="227.9000015258789" y="44.442718505859375" type="line"/>
      <point x="227.9000015258789" y="755.5572814941406" type="line"/>
      <point x="178.45728302001953" y="805" type="line"/>
      <point x="147.9000015258789" y="805" type="line"/>
      <point x="147.9000015258789" y="-5" type="line"/>
    </contour>
  </outline>
</glyph>
<glyph name="O_with_stroke" format="2">
  <advance width="260.8"/>
  <unicode hex="00D8"/>
  <outline>
    <contour>
      <point x="167.9000015258789" y="840" type="line"/>
      <point x="167.9000015258789" y="805" type="line"/>
      <point x="147.9000015258789" y="805" type="line"/>
      <point x="147.9000015258789" y="-5" type="line"/>
      <point x="178.45728302001953" y="-5" type="line"/>
      <point x="227.9000015258789" y="44.442718505859375" type="line"/>
      <point x="227.9000015258789" y="755.5572814941406" type="line"/>
      <point x="210.95728302001953" y="772.5" type="line"/>
      <point x="247.9000015258789" y="809.4427185058594" type="line"/>
      <point x="247.9000015258789" y="840" type="line"/>
    </contour>
    <contour>
      <point x="92.9000015258789" y="-40" type="line"/>
      <point x="92.9000015258789" y="-5" type="line"/>
      <point x="112.9000015258789" y="-5" type="line"/>
      <point x="112.9000015258789" y="805" type="line"/>
      <point x="82.34272003173828" y="805" type="line"/>
      <point x="32.900001525878906" y="755.5572814941406" type="line"/>
      <point x="32.900001525878906" y="44.442718505859375" type="line"/>
      <point x="49.84272003173828" y="27.5" type="line"/>
      <point x="12.900001525878906" y="-9.442718505859375" type="line"/>
      <point x="12.900001525878906" y="-40" type="line"/>
    </contour>
  </outline>
</glyph>
<glyph name="THORN" format="2">
  <advance width="260.8"/>
  <unicode hex="00DE"/>
  <outline>
    <contour>
      <point x="32.900001525878906" y="0" type="line"/>
      <point x="112.9000015258789" y="0" type="line"/>
      <point x="112.9000015258789" y="800" type="line"/>
      <point x="32.900001525878906" y="800" type="line"/>
    </contour>
    <contour>
      <point x="178.45728302001953" y="100" type="line"/>
      <point x="227.9000015258789" y="149.44271850585938" type="line"/>
      <point x="227.9000015258789" y="650.5572814941406" type="line"/>
      <point x="178.45728302001953" y="700" type="line"/>
      <point x="147.9000015258789" y="700" type="line"/>
      <point x="147.9000015258789" y="100" type="line"/>
    </contour>
  </outline>
</glyph>
<glyph name="a_with_grave" format="2">
  <advance width="260.8"/>
  <unicode hex="00E0"/>
  <outline>
    <contour>
      <point x="135.4" y="730.0" type="line"/>
      <point x="55.400000000000006" y="730.0" type="line"/>
      <point x="55.400000000000006" y="699.44272" type="line"/>
      <point x="104.84272" y="650.0" type="line"/>
      <point x="135.4" y="650.0" type="line"/>
    </contour>
    <contour>
      <point x="32.9" y="600.0" type="line"/>
      <point x="32.9" y="520.0" type="line"/>
      <point x="63.45728" y="520.0" type="line"/>
      <point x="112.9" y="569.44272" type="line"/>
      <point x="112.9" y="600.0" type="line"/>
    </contour>
    <contour>
      <point x="197.34272003173828" y="-5" type="line"/>
      <point x="227.9000015258789" y="-5" type="line"/>
      <point x="227.9000015258789" y="550.5572814941406" type="line"/>
      <point x="178.45728302001953" y="600" type="line"/>
      <point x="147.9000015258789" y="600" type="line"/>
      <point x="147.9000015258789" y="44.442718505859375" type="line"/>
    </contour>
    <contour>
      <point x="82.34272003173828" y="0" type="line"/>
      <point x="112.9000015258789" y="0" type="line"/>
      <point x="112.9000015258789" y="400" type="line"/>
      <point x="82.34272003173828" y="400" type="line"/>
      <point x="32.900001525878906" y="350.5572814941406" type="line"/>
      <point x="32.900001525878906" y="49.442718505859375" type="line"/>
    </contour>
  </outline>
</glyph>
<glyph name="e_with_acute" format="2">
  <advance width="260.8"/>
  <unicode hex="00E9"/>
  <outline>
    <contour>
      <point x="125.4" y="730.0" type="line"/>
      <point x="125.4" y="650.0" type="line"/>
      <point x="155.95728000000003" y="650.0" type="line"/>
      <point x="205.4" y="699.44272" type="line"/>
      <point x="205.4" y="730.0" type="line"/>
    </contour>
    <contour>
      <point x="82.34272003173828" y="-5" type="line"/>
      <point x="112.9000015258789" y="-5" type="line"/>
      <point x="112.9000015258789" y="605" type="line"/>
      <point x="82.34272003173828" y="605" type="line"/>
      <point x="32.900001525878906" y="555.5572814941406" type="line"/>
      <point x="32.900001525878906" y="44.442718505859375" type="line"/>
    </contour>
    <contour>
      <point x="147.9000015258789" y="195" type="line"/>
      <point x="227.9000015258789" y="195" type="line"/>
      <point x="227.9000015258789" y="555.5572814941406" type="line"/>
      <point x="178.45728302001953" y="605" type="line"/>
      <point x="147.9000015258789" y="605" type="line"/>
    </contour>
  </outline>
</glyph>
<glyph name="e_with_diaeresis" format="2">
  <advance width="260.8"/>
  <unicode hex="00EB"/>
  <outline>
    <contour>
      <point x="32.900000000000006" y="770.0" type="line"/>
      <point x="112.9" y="770.0" type="line"/>
      <point x="112.9" y="850.0" type="line"/>
      <point x="32.900000000000006" y="850.0" type="line"/>
    </contour>
    <contour>
      <point x="147.9" y="770.0" type="line"/>
      <point x="227.9" y="770.0" type="line"/>
      <point x="227.9" y="850.0" type="line"/>
      <point x="147.9" y="850.0" type="line"/>
    </contour>
    <contour>
      <point x="82.34272003173828" y="-5" type="line"/>
      <point x="112.9000015258789" y="-5" type="line"/>
      <point x="112.9000015258789" y="605" type="line"/>
      <point x="82.34272003173828" y="605" type="line"/>
      <point x="32.900001525878906" y="555.5572814941406" type="line"/>
      <point x="32.900001525878906" y="44.442718505859375" type="line"/>
    </contour>
    <contour>
      <point x="147.9000015258789" y="195" type="line"/>
      <point x="227.9000015258789" y="195" type="line"/>
      <point x="227.9000015258789" y="555.5572814941406" type="line"/>
      <point x="178.45728302001953" y="605" type="line"/>
      <point x="147.9000015258789" y="605" type="line"/>
    </contour>
  </outline>
</glyph>
<glyph name="i_with_grave" format="2">
  <advance width="145.8"/>
  <unicode hex="00EC"/>
  <outline>
    <contour>
      <point x="77.9" y="730.0" type="line"/>
      <point x="-2.0999999999999943" y="730.0" type="line"/>
      <point x="-2.0999999999999943" y="699.44272" type="line"/>
      <point x="47.34272000000001" y="650.0" type="line"/>
      <point x="77.9" y="650.0" type="line"/>
    </contour>
    <contour>
      <point x="32.900001525878906" y="0" type="line"/>
      <point x="112.9000015258789" y="0" type="line"/>
      <point x="112.9000015258789" y="600" type="line"/>
      <point x="32.900001525878906" y="600" type="line"/>
    </contour>
  </outline>
</glyph>
<glyph name="i_with_circumflex" format="2">
  <advance width="145.8"/>
  <unicode hex="00EE"/>
  <outline>
    <contour>
      <point x="-9.599999999999994" y="730.0" type="line"/>
      <point x="-9.599999999999994" y="650.0" type="line"/>
      <point x="20.957280000000004" y="650.0" type="line"/>
      <point x="70.4" y="699.44272" type="line"/>
      <point x="70.4" y="730.0" type="line"/>
    </contour>
    <contour>
      <point x="155.4" y="730.0" type="line"/>
      <point x="75.4" y="730.0" type="line"/>
      <point x="75.4" y="699.44272" type="line"/>
      <point x="124.84272000000001" y="650.0" type="line"/>
      <point x="155.4" y="650.0" type="line"/>
    </contour>
    <contour>
      <point x="32.900001525878906" y="0" type="line"/>
      <point x="112.9000015258789" y="0" type="line"/>
      <point x="112.9000015258789" y="600" type="line"/>
      <point x="32.900001525878906" y="600" type="line"/>
    </contour>
  </outline>
</glyph>
<glyph name="i_with_diaeresis" format="2">
  <advance width="145.8"/>
  <unicode hex="00EF"/>
  <outline>
    <contour>
      <point x="-24.599999999999994" y="770.0" type="line"/>
      <point x="55.400000000000006" y="770.0" type="line"/>
      <point x="55.400000000000006" y="850.0" type="line"/>
      <point x="-24.599999999999994" y="850.0" type="line"/>
    </contour>
    <contour>
      <point x="90.4" y="770.0" type="line"/>
      <point x="170.4" y="770.0" type="line"/>
      <point x="170.4" y="850.0" type="line"/>
      <point x="90.4" y="850.0" type="line"/>
    </contour>
    <contour>
      <point x="32.900001525878906" y="0" type="line"/>
      <point x="112.9000015258789" y="0" type="line"/>
      <point x="112.9000015258789" y="600" type="line"/>
      <point x="32.900001525878906" y="600" type="line"/>
    </contour>
  </outline>
</glyph>
<glyph name="n_with_smalltilde" format="2">
  <advance width="260.8"/>
  <unicode hex="00F1"/>
  <outline>
    <contour>
      <point x="50.400001525878906" y="680.5572814941406" type="line"/>
      <point x="50.400001525878906" y="650" type="line"/>
      <point x="160.95728302001953" y="650" type="line"/>
      <point x="210.4000015258789" y="699.4427185058594" type="line"/>
      <point x="210.4000015258789" y="730" type="line"/>
      <point x="99.84272003173828" y="730" type="line"/>
    </contour>
    <contour>
      <point x="32.900001525878906" y="0" type="line"/>
      <point x="112.9000015258789" y="0" type="line"/>
      <point x="112.9000015258789" y="600" type="line"/>
      <point x="32.900001525878906" y="600" type="line"/>
    </contour>
    <contour>
      <point x="147.9000015258789" y="0" type="line"/>
      <point x="227.9000015258789" y="0" type="line"/>
      <point x="227.9000015258789" y="550.5572814941406" type="line"/>
      <point x="178.45728302001953" y="600" type="line"/>
      <point x="147.9000015258789" y="600" type="line"/>
    </contour>
  </outline>
</glyph>
<glyph name="o_with_grave" format="2">
  <advance width="260.8"/>
  <unicode hex="00F2"/>
  <outline>
    <contour>
      <point x="135.4" y="730.0" type="line"/>
      <point x="55.400000000000006" y="730.0" type="line"/>
      <point x="55.400000000000006" y="699.44272" type="line"/>
      <point x="104.84272" y="650.0" type="line"/>
      <point x="135.4" y="650.0" type="line"/>
    </contour>
    <contour>
      <point x="82.34272003173828" y="-5" type="line"/>
      <point x="112.9000015258789" y="-5" type="line"/>
      <point x="112.9000015258789" y="605" type="line"/>
      <point x="82.34272003173828" y="605" type="line"/>
      <point x="32.900001525878906" y="555.5572814941406" type="line"/>
      <point x="32.900001525878906" y="44.442718505859375" type="line"/>
    </contour>
    <contour>
      <point x="178.45728302001953" y="-5" type="line"/>
      <point x="227.9000015258789" y="44.442718505859375" type="line"/>
      <point x="227.9000015258789" y="555.5572814941406" type="line"/>
      <point x="178.45728302001953" y="605" type="line"/>
      <point x="147.9000015258789" y="605" type="line"/>
      <point x="147.9000015258789" y="-5" type="line"/>
    </contour>
  </outline>
</glyph>
<glyph name="divide" format="2">
  <advance width="375.8"/>
  <unicode hex="00F7"/>
  <outline>
    <contour>
      <point x="147.9" y="550.0" type="line"/>
      <point x="227.9" y="550.0" type="line"/>
      <point x="227.9" y="630.0" type="line"/>
      <point x="147.9" y="630.0" type="line"/>
    </contour>
    <contour>
      <point x="67.9000015258789" y="360" type="line"/>
      <point x="307.9000015258789" y="360" type="line"/>
      <point x="307.9000015258789" y="440" type="line"/>
      <point x="67.9000015258789" y="440" type="line"/>
    </contour>
    <contour>
      <point x="147.9" y="170.0" type="line"/>
      <point x="227.9" y="170.0" type="line"/>
      <point x="227.9" y="250.0" type="line"/>
      <point x="147.9" y="250.0" type="line"/>
    </contour>
  </outline>
</glyph>
<glyph name="o_with_stroke" format="2">
  <advance width="260.8"/>
  <unicode hex="00F8"/>
  <outline>
    <contour>
      <point x="167.9000015258789" y="640" type="line"/>
      <point x="167.9000015258789" y="605" type="line"/>
      <point x="147.9000015258789" y="605" type="line"/>
      <point x="147.9000015258789" y="-5" type="line"/>
      <point x="178.45728302001953" y="-5" type="line"/>
      <point x="227.9000015258789" y="44.442718505859375" type="line"/>
      <point x="227.9000015258789" y="555.5572814941406" type="line"/>
      <point x="210.95728302001953" y="572.5" type="line"/>
      <point x="247.9000015258789" y="609.4427185058594" type="line"/>
      <point x="247.9000015258789" y="640" type="line"/>
    </contour>
    <contour>
      <point x="92.9000015258789" y="-40" type="line"/>
      <point x="92.9000015258789" y="-5" type="line"/>
      <point x="112.9000015258789" y="-5" type="line"/>
      <point x="112.9000015258789" y="605" type="line"/>
      <point x="82.34272003173828" y="605" type="line"/>
      <point x="32.900001525878906" y="555.5572814941406" type="line"/>
      <point x="32.900001525878906" y="44.442718505859375" type="line"/>
      <point x="49.84272003173828" y="27.5" type="line"/>
      <point x="12.900001525878906" y="-9.442718505859375" type="line"/>
      <point x="12.900001525878906" y="-40" type="line"/>
    </contour>
  </outline>
</glyph>
<glyph name="y_with_diaeresis" format="2">
  <advance width="260.8"/>
  <unicode hex="00FF"/>
  <outline>
    <contour>
      <point x="32.900000000000006" y="770.0" type="line"/>
      <point x="112.9" y="770.0" type="line"/>
      <point x="112.9" y="850.0" type="line"/>
      <point x="32.900000000000006" y="850.0" type="line"/>
    </contour>
    <contour>
      <point x="147.9" y="770.0" type="line"/>
      <point x="227.9" y="770.0" type="line"/>
      <point x="227.9" y="850.0" type="line"/>
      <point x="147.9" y="850.0" type="line"/>
    </contour>
    <contour>
      <point x="82.34272003173828" y="5" type="line"/>
      <point x="112.9000015258789" y="5" type="line"/>
      <point x="112.9000015258789" y="550.5572814941406" type="line"/>
      <point x="63.45728302001953" y="600" type="line"/>
      <point x="32.900001525878906" y="600" type="line"/>
      <point x="32.900001525878906" y="54.442718505859375" type="line"/>
    </contour>
    <contour>
      <point x="178.45728302001953" y="-210" type="line"/>
      <point x="227.9000015258789" y="-160.55728149414062" type="line"/>
      <point x="227.9000015258789" y="600" type="line"/>
      <point x="147.9000015258789" y="600" type="line"/>
      <point x="147.9000015258789" y="-210" type="line"/>
    </contour>
    <contour>
      <point x="112.9" y="-130.0" type="line"/>
      <point x="32.9" y="-130.0" type="line"/>
      <point x="32.9" y="-160.55728" type="line"/>
      <point x="82.34272" y="-210.0" type="line"/>
      <point x="112.9" y="-210.0" type="line"/>
    </contour>
  </outline>
</glyph>
<glyph name="A_with_breve" format="2">
  <advance width="260.8"/>
  <unicode hex="0102"/>
  <outline>
    <contour>
      <point x="50.400001525878906" y="899.4427185058594" type="line"/>
      <point x="99.84272003173828" y="850" type="line"/>
      <point x="160.95728302001953" y="850" type="line"/>
      <point x="210.4000015258789" y="899.4427185058594" type="line"/>
      <point x="210.4000015258789" y="930" type="line"/>
      <point x="50.400001525878906" y="930" type="line"/>
    </contour>
    <contour>
      <point x="32.900001525878906" y="0" type="line"/>
      <point x="112.9000015258789" y="0" type="line"/>
      <point x="112.9000015258789" y="805" type="line"/>
      <point x="82.34272003173828" y="805" type="line"/>
      <point x="32.900001525878906" y="755.5572814941406" type="line"/>
    </contour>
    <contour>
      <point x="147.9000015258789" y="0" type="line"/>
      <point x="227.9000015258789" y="0" type="line"/>
      <point x="227.9000015258789" y="755.5572814941406" type="line"/>
      <point x="178.45728302001953" y="805" type="line"/>
      <point x="147.9000015258789" y="805" type="line"/>
    </contour>
  </outline>
</glyph>
<glyph name="a_with_breve" format="2">
  <advance width="260.8"/>
  <unicode hex="0103"/>
  <outline>
    <contour>
      <point x="50.400001525878906" y="699.4427185058594" type="line"/>
      <point x="99.84272003173828" y="650" type="line"/>
      <point x="160.95728302001953" y="650" type="line"/>
      <point x="210.4000015258789" y="699.4427185058594" type="line"/>
      <point x="210.4000015258789" y="730" type="line"/>
      <point x="50.400001525878906" y="730" type="line"/>
    </contour>
    <contour>
      <point x="32.9" y="600.0" type="line"/>
      <point x="32.9" y="520.0" type="line"/>
      <point x="63.45728" y="520.0" type="line"/>
      <point x="112.9" y="569.44272" type="line"/>
      <point x="112.9" y="600.0" type="line"/>
    </contour>
    <contour>
      <point x="197.34272003173828" y="-5" type="line"/>
      <point x="227.9000015258789" y="-5" type="line"/>
      <point x="227.9000015258789" y="550.5572814941406" type="line"/>
      <point x="178.45728302001953" y="600" type="line"/>
      <point x="147.9000015258789" y="600" type="line"/>
      <point x="147.9000015258789" y="44.442718505859375" type="line"/>
    </contour>
    <contour>
      <point x="82.34272003173828" y="0" type="line"/>
      <point x="112.9000015258789" y="0" type="line"/>
      <point x="112.9000015258789" y="400" type="line"/>
      <point x="82.34272003173828" y="400" type="line"/>
      <point x="32.900001525878906" y="350.5572814941406" type="line"/>
      <point x="32.900001525878906" y="49.442718505859375" type="line"/>
    </contour>
  </outline>
</glyph>
<glyph name="A_with_ogonek" format="2">
  <advance width="260.8"/>
  <unicode hex="0104"/>
  <outline>
    <contour>
      <point x="32.900001525878906" y="0" type="line"/>
      <point x="112.9000015258789" y="0" type="line"/>
      <point x="112.9000015258789" y="805" type="line"/>
      <point x="82.34272003173828" y="805" type="line"/>
      <point x="32.900001525878906" y="755.5572814941406" type="line"/>
    </contour>
    <contour>
      <point x="147.9000015258789" y="0" type="line"/>
      <point x="227.9000015258789" y="0" type="line"/>
      <point x="227.9000015258789" y="755.5572814941406" type="line"/>
      <point x="178.45728302001953" y="805" type="line"/>
      <point x="147.9000015258789" y="805" type="line"/>
    </contour>
    <contour>
      <point x="227.9" y="-105.0" type="line"/>
      <point x="227.9" y="-25.0" type="line"/>
      <point x="197.34272" y="-25.0" type="line"/>
      <point x="147.9" y="-74.44272000000001" type="line"/>
      <point x="147.9" y="-105.0" type="line"/>
    </contour>
  </outline>
</glyph>
<glyph name="c_with_acute" format="2">
  <advance width="260.8"/>
  <unicode hex="0107"/>
  <outline>
    <contour>
      <point x="125.4" y="730.0" type="line"/>
      <point x="125.4" y="650.0" type="line"/>
      <point x="155.95728000000003" y="650.0" type="line"/>
      <point x="205.4" y="699.44272" type="line"/>
      <point x="205.4" y="730.0" type="line"/>
    </contour>
    <contour>
      <point x="82.34272003173828" y="0" type="line"/>
      <point x="112.9000015258789" y="0" type="line"/>
      <point x="112.9000015258789" y="600" type="line"/>
      <point x="82.34272003173828" y="600" type="line"/>
      <point x="32.900001525878906" y="550.5572814941406" type="line"/>
      <point x="32.900001525878906" y="49.442718505859375" type="line"/>
    </contour>
    <contour>
      <point x="227.9" y="600.0" type="line"/>
      <point x="147.9" y="600.0" type="line"/>
      <point x="147.9" y="569.44272" type="line"/>
      <point x="197.34272" y="520.0" type="line"/>
      <point x="227.9" y="520.0" type="line"/>
    </contour>
    <contour>
      <point x="226.65" y="0.0" type="line"/>
      <point x="226.65" y="80.0" type="line"/>
      <point x="196.09272" y="80.0" type="line"/>
      <point x="146.65" y="30.55728" type="line"/>
      <point x="146.65" y="0.0" type="line"/>
    </contour>
  </outline>
</glyph>
<glyph name="c_with_dotabove" format="2">
  <advance width="260.8"/>
  <unicode hex="010B"/>
  <outline>
    <contour>
      <point x="90.4" y="770.0" type="line"/>
      <point x="170.4" y="770.0" type="line"/>
      <point x="170.4" y="850.0" type="line"/>
      <point x="90.4" y="850.0" type="line"/>
    </contour>
    <contour>
      <point x="82.34272003173828" y="0" type="line"/>
      <point x="112.9000015258789" y="0" type="line"/>
      <point x="112.9000015258789" y="600" type="line"/>
      <point x="82.34272003173828" y="600" type="line"/>
      <point x="32.900001525878906" y="550.5572814941406" type="line"/>
      <point x="32.900001525878906" y="49.442718505859375" type="line"/>
    </contour>
    <contour>
      <point x="227.9" y="600.0" type="line"/>
      <point x="147.9" y="600.0" type="line"/>
      <point x="147.9" y="569.44272" type="line"/>
      <point x="197.34272" y="520.0" type="line"/>
      <point x="227.9" y="520.0" type="line"/>
    </contour>
    <contour>
      <point x="226.65" y="0.0" type="line"/>
      <point x="226.65" y="80.0" type="line"/>
      <point x="196.09272" y="80.0" type="line"/>
      <point x="146.65" y="30.55728" type="line"/>
      <point x="146.65" y="0.0" type="line"/>
    </contour>
  </outline>
</glyph>
<glyph name="C_with_caron" format="2">
  <advance width="260.8"/>
  <unicode hex="010C"/>
  <outline>
    <contour>
      <point x="47.900000000000006" y="850.0" type="line"/>
      <point x="127.9" y="850.0" type="line"/>
      <point x="127.9" y="880.55728" type="line"/>
      <point x="78.45728" y="930.0" type="line"/>
      <point x="47.900000000000006" y="930.0" type="line"/>
    </contour>
    <contour>
      <point x="212.9" y="850.0" type="line"/>
      <point x="212.9" y="930.0" type="line"/>
      <point x="182.34272" y="930.0" type="line"/>
      <point x="132.9" y="880.55728" type="line"/>
      <point x="132.9" y="850.0" type="line"/>
    </contour>
    <contour>
      <point x="82.34272003173828" y="0" type="line"/>
      <point x="112.9000015258789" y="0" type="line"/>
      <point x="112.9000015258789" y="800" type="line"/>
      <point x="82.34272003173828" y="800" type="line"/>
      <point x="32.900001525878906" y="750.5572814941406" type="line"/>
      <point x="32.900001525878906" y="49.442718505859375" type="line"/>
    </contour>
    <contour>
      <point x="197.34272003173828" y="520" type="line"/>
      <point x="227.9000015258789" y="520" type="line"/>
      <point x="227.9000015258789" y="800" type="line"/>
      <point x="147.9000015258789" y="800" type="line"/>
      <point x="147.9000015258789" y="569.4427185058594" type="line"/>
    </contour>
    <contour>
      <point x="227.9" y="0.0" type="line"/>
      <point x="227.9" y="80.0" type="line"/>
      <point x="197.34272" y="80.0" type="line"/>
      <point x="147.9" y="30.55728" type="line"/>
      <point x="147.9" y="0.0" type="line"/>
    </contour>
  </outline>
</glyph>
<glyph name="c_with_caron" format="2">
  <advance width="260.8"/>
  <unicode hex="010D"/>
  <outline>
    <contour>
      <point x="47.900000000000006" y="650.0" type="line"/>
      <point x="127.9" y="650.0" type="line"/>
      <point x="127.9" y="680.55728" type="line"/>
      <point x="78.45728" y="730.0" type="line"/>
      <point x="47.900000000000006" y="730.0" type="line"/>
    </contour>
    <contour>
      <point x="212.9" y="650.0" type="line"/>
      <point x="212.9" y="730.0" type="line"/>
      <point x="182.34272" y="730.0" type="line"/>
      <point x="132.9" y="680.55728" type="line"/>
      <point x="132.9" y="650.0" type="line"/>
    </contour>
    <contour>
      <point x="82.34272003173828" y="0" type="line"/>
      <point x="112.9000015258789" y="0" type="line"/>
      <point x="112.9000015258789" y="600" type="line"/>
      <point x="82.34272003173828" y="600" type="line"/>
      <point x="32.900001525878906" y="550.5572814941406" type="line"/>
      <point x="32.900001525878906" y="49.442718505859375" type="line"/>
    </contour>
    <contour>
      <point x="227.9" y="600.0" type="line"/>
      <point x="147.9" y="600.0" type="line"/>
      <point x="147.9" y="569.44272" type="line"/>
      <point x="197.34272" y="520.0" type="line"/>
      <point x="227.9" y="520.0" type="line"/>
    </contour>
    <contour>
      <point x="226.65" y="0.0" type="line"/>
      <point x="226.65" y="80.0" type="line"/>
      <point x="196.09272" y="80.0" type="line"/>
      <point x="146.65" y="30.55728" type="line"/>
      <point x="146.65" y="0.0" type="line"/>
    </contour>
  </outline>
</glyph>
<glyph name="e_with_caron" format="2">
  <advance width="260.8"/>
  <unicode hex="011B"/>
  <outline>
    <contour>
      <point x="47.900000000000006" y="650.0" type="line"/>
      <point x="127.9" y="650.0" type="line"/>
      <point x="127.9" y="680.55728" type="line"/>
      <point x="78.45728" y="730.0" type="line"/>
      <point x="47.900000000000006" y="730.0" type="line"/>
    </contour>
    <contour>
      <point x="212.9" y="650.0" type="line"/>
      <point x="212.9" y="730.0" type="line"/>
      <point x="182.34272" y="730.0" type="line"/>
      <point x="132.9" y="680.55728" type="line"/>
      <point x="132.9" y="650.0" type="line"/>
    </contour>
    <contour>
      <point x="82.34272003173828" y="-5" type="line"/>
      <point x="112.9000015258789" y="-5" type="line"/>
      <point x="112.9000015258789" y="605" type="line"/>
      <point x="82.34272003173828" y="605" type="line"/>
      <point x="32.900001525878906" y="555.5572814941406" type="line"/>
      <point x="32.900001525878906" y="44.442718505859375" type="line"/>
    </contour>
    <contour>
      <point x="147.9000015258789" y="195" type="line"/>
      <point x="227.9000015258789" y="195" type="line"/>
      <point x="227.9000015258789" y="555.5572814941406" type="line"/>
      <point x="178.45728302001953" y="605" type="line"/>
      <point x="147.9000015258789" y="605" type="line"/>
    </contour>
  </outline>
</glyph>
<glyph name="G_with_circumflex" format="2">
  <advance width="260.8"/>
  <unicode hex="011C"/>
  <outline>
    <contour>
      <point x="47.900000000000006" y="930.0" type="line"/>
      <point x="47.900000000000006" y="850.0" type="line"/>
      <point x="78.45728" y="850.0" type="line"/>
      <point x="127.9" y="899.44272" type="line"/>
      <point x="127.9" y="930.0" type="line"/>
    </contour>
    <contour>
      <point x="212.9" y="930.0" type="line"/>
      <point x="132.9" y="930.0" type="line"/>
      <point x="132.9" y="899.44272" type="line"/>
      <point x="182.34272" y="850.0" type="line"/>
      <point x="212.9" y="850.0" type="line"/>
    </contour>
    <contour>
      <point x="82.34272003173828" y="0" type="line"/>
      <point x="112.9000015258789" y="0" type="line"/>
      <point x="112.9000015258789" y="800" type="line"/>
      <point x="82.34272003173828" y="800" type="line"/>
      <point x="32.900001525878906" y="750.5572814941406" type="line"/>
      <point x="32.900001525878906" y="49.442718505859375" type="line"/>
    </contour>
    <contour>
      <point x="227.9" y="800.0" type="line"/>
      <point x="147.9" y="800.0" type="line"/>
      <point x="147.9" y="769.44272" type="line"/>
      <point x="197.34272" y="720.0" type="line"/>
      <point x="227.9" y="720.0" type="line"/>
    </contour>
    <contour>
      <point x="197.34272003173828" y="0" type="line"/>
      <point x="227.9000015258789" y="0" type="line"/>
      <point x="227.9000015258789" y="400" type="line"/>
      <point x="147.9000015258789" y="400" type="line"/>
      <point x="147.9000015258789" y="49.442718505859375" type="line"/>
    </contour>
  </outline>
</glyph>
<glyph name="G_with_breve" format="2">
  <advance width="260.8"/>
  <unicode hex="011E"/>
  <outline>
    <contour>
      <point x="50.400001525878906" y="899.4427185058594" type="line"/>
      <point x="99.84272003173828" y="850" type="line"/>
      <point x="160.95728302001953" y="850" type="line"/>
      <point x="210.4000015258789" y="899.4427185058594" type="line"/>
      <point x="210.4000015258789" y="930" type="line"/>
      <point x="50.400001525878906" y="930" type="line"/>
    </contour>
    <contour>
      <point x="82.34272003173828" y="0" type="line"/>
      <point x="112.9000015258789" y="0" type="line"/>
      <point x="112.9000015258789" y="800" type="line"/>
      <point x="82.34272003173828" y="800" type="line"/>
      <point x="32.900001525878906" y="750.5572814941406" type="line"/>
      <point x="32.900001525878906" y="49.442718505859375" type="line"/>
    </contour>
    <contour>
      <point x="227.9" y="800.0" type="line"/>
      <point x="147.9" y="800.0" type="line"/>
      <point x="147.9" y="769.44272" type="line"/>
      <point x="197.34272" y="720.0" type="line"/>
      <point x="227.9" y="720.0" type="line"/>
    </contour>
    <contour>
      <point x="197.34272003173828" y="0" type="line"/>
      <point x="227.9000015258789" y="0" type="line"/>
      <point x="227.9000015258789" y="400" type="line"/>
      <point x="147.9000015258789" y="400" type="line"/>
      <point x="147.9000015258789" y="49.442718505859375" type="line"/>
    </contour>
  </outline>
</glyph>
<glyph name="i_with_smalltilde" format="2">
  <advance width="145.8"/>
  <unicode hex="0129"/>
  <outline>
    <contour>
      <point x="-7.099998474121094" y="680.5572814941406" type="line"/>
      <point x="-7.099998474121094" y="650" type="line"/>
      <point x="103.45728302001953" y="650" type="line"/>
      <point x="152.9000015258789" y="699.4427185058594" type="line"/>
      <point x="152.9000015258789" y="730" type="line"/>
      <point x="42.34272003173828" y="730" type="line"/>
    </contour>
    <contour>
      <point x="32.900001525878906" y="0" type="line"/>
      <point x="112.9000015258789" y="0" type="line"/>
      <point x="112.9000015258789" y="600" type="line"/>
      <point x="32.900001525878906" y="600" type="line"/>
    </contour>
  </outline>
</glyph>
<glyph name="I_with_breve" format="2">
  <advance width="145.8"/>
  <unicode hex="012C"/>
  <outline>
    <contour>
      <point x="-7.099998474121094" y="899.4427185058594" type="line"/>
      <point x="42.34272003173828" y="850" type="line"/>
      <point x="103.45728302001953" y="850" type="line"/>
      <point x="152.9000015258789" y="899.4427185058594" type="line"/>
      <point x="152.9000015258789" y="930" type="line"/>
      <point x="-7.099998474121094" y="930" type="line"/>
    </contour>
    <contour>
      <point x="32.900001525878906" y="0" type="line"/>
      <point x="112.9000015258789" y="0" type="line"/>
      <point x="112.9000015258789" y="800" type="line"/>
      <point x="32.900001525878906" y="800" type="line"/>
    </contour>
  </outline>
</glyph>
<glyph name="I_with_ogonek" format="2">
  <advance width="145.8"/>
  <unicode hex="012E"/>
  <outline>
    <contour>
      <point x="32.900001525878906" y="0" type="line"/>
      <point x="112.9000015258789" y="0" type="line"/>
      <point x="112.9000015258789" y="800" type="line"/>
      <point x="32.900001525878906" y="800" type="line"/>
    </contour>
    <contour>
      <point x="112.9" y="-105.0" type="line"/>
      <point x="112.9" y="-25.0" type="line"/>
      <point x="82.34272" y="-25.0" type="line"/>
      <point x="32.900000000000006" y="-74.44272000000001" type="line"/>
      <point x="32.900000000000006" y="-105.0" type="line"/>
    </contour>
  </outline>
</glyph>
<glyph name="I_with_dotabove" format="2">
  <advance width="145.8"/>
  <unicode hex="0130"/>
  <outline>
    <contour>
      <point x="32.900000000000006" y="970.0" type="line"/>
      <point x="112.9" y="970.0" type="line"/>
      <point x="112.9" y="1050.0" type="line"/>
      <point x="32.900000000000006" y="1050.0" type="line"/>
    </contour>
    <contour>
      <point x="32.900001525878906" y="0" type="line"/>
      <point x="112.9000015258789" y="0" type="line"/>
      <point x="112.9000015258789" y="800" type="line"/>
      <point x="32.900001525878906" y="800" type="line"/>
    </contour>
  </outline>
</glyph>
<glyph name="IJ" format="2">
  <advance width="260.8"/>
  <unicode hex="0132"/>
  <outline>
    <contour>
      <point x="27.900001525878906" y="205" type="line"/>
      <point x="107.9000015258789" y="205" type="line"/>
      <point x="107.9000015258789" y="800" type="line"/>
      <point x="27.900001525878906" y="800" type="line"/>
    </contour>
    <contour>
      <point x="178.45728302001953" y="-5" type="line"/>
      <point x="227.9000015258789" y="44.442718505859375" type="line"/>
      <point x="227.9000015258789" y="800" type="line"/>
      <point x="147.9000015258789" y="800" type="line"/>
      <point x="147.9000015258789" y="-5" type="line"/>
    </contour>
    <contour>
      <point x="112.9" y="75.0" type="line"/>
      <point x="32.9" y="75.0" type="line"/>
      <point x="32.9" y="44.44272" type="line"/>
      <point x="82.34272" y="-5.0" type="line"/>
      <point x="112.9" y="-5.0" type="line"/>
    </contour>
  </outline>
</glyph>
<glyph name="ij" format="2">
  <advance width="260.8"/>
  <unicode hex="0133"/>
  <outline>
    <contour>
      <point x="27.9" y="650.0" type="line"/>
      <point x="107.9" y="650.0" type="line"/>
      <point x="107.9" y="730.0" type="line"/>
      <point x="27.9" y="730.0" type="line"/>
    </contour>
    <contour>
      <point x="147.9" y="650.0" type="line"/>
      <point x="227.9" y="650.0" type="line"/>
      <point x="227.9" y="730.0" type="line"/>
      <point x="147.9" y="730.0" type="line"/>
    </contour>
    <contour>
      <point x="27.900001525878906" y="0" type="line"/>
      <point x="107.9000015258789" y="0" type="line"/>
      <point x="107.9000015258789" y="600" type="line"/>
      <point x="27.900001525878906" y="600" type="line"/>
    </contour>
    <contour>
      <point x="178.45728302001953" y="-210" type="line"/>
      <point x="227.9000015258789" y="-160.55728149414062" type="line"/>
      <point x="227.9000015258789" y="600" type="line"/>
      <point x="147.9000015258789" y="600" type="line"/>
      <point x="147.9000015258789" y="-210" type="line"/>
    </contour>
    <contour>
      <point x="115.4" y="-130.0" type="line"/>
      <point x="35.4" y="-130.0" type="line"/>
      <point x="35.4" y="-160.55728" type="line"/>
      <point x="84.84272" y="-210.0" type="line"/>
      <point x="115.4" y="-210.0" type="line"/>
    </contour>
  </outline>
</glyph>
<glyph name="J_with_circumflex" format="2">
  <advance width="260.8"/>
  <unicode hex="0134"/>
  <outline>
    <contour>
      <point x="102.9" y="930.0" type="line"/>
      <point x="102.9" y="850.0" type="line"/>
      <point x="133.45728" y="850.0" type="line"/>
      <point x="182.9" y="899.44272" type="line"/>
      <point x="182.9" y="930.0" type="line"/>
    </contour>
    <contour>
      <point x="267.9" y="930.0" type="line"/>
      <point x="187.9" y="930.0" type="line"/>
      <point x="187.9" y="899.44272" type="line"/>
      <point x="237.34272" y="850.0" type="line"/>
      <point x="267.9" y="850.0" type="line"/>
    </contour>
    <contour>
      <point x="178.45728302001953" y="-5" type="line"/>
      <point x="227.9000015258789" y="44.442718505859375" type="line"/>
      <point x="227.9000015258789" y="800" type="line"/>
      <point x="147.9000015258789" y="800" type="line"/>
      <point x="147.9000015258789" y="-5" type="line"/>
    </contour>
    <contour>
      <point x="112.9" y="75.0" type="line"/>
      <point x="32.9" y="75.0" type="line"/>
      <point x="32.9" y="44.44272" type="line"/>
      <point x="82.34272" y="-5.0" type="line"/>
      <point x="112.9" y="-5.0" type="line"/>
    </contour>
  </outline>
</glyph>
<glyph name="j_with_circumflex" format="2">
  <advance width="260.8"/>
  <unicode hex="0135"/>
  <outline>
    <contour>
      <point x="104.15" y="730.0" type="line"/>
      <point x="104.15" y="650.0" type="line"/>
      <point x="134.70728" y="650.0" type="line"/>
      <point x="184.15" y="699.44272" type="line"/>
      <point x="184.15" y="730.0" type="line"/>
    </contour>
    <contour>
      <point x="269.15" y="730.0" type="line"/>
      <point x="189.15" y="730.0" type="line"/>
      <point x="189.15" y="699.44272" type="line"/>
      <point x="238.59272" y="650.0" type="line"/>
      <point x="269.15" y="650.0" type="line"/>
    </contour>
    <contour>
      <point x="178.45728302001953" y="-210" type="line"/>
      <point x="227.9000015258789" y="-160.55728149414062" type="line"/>
      <point x="227.9000015258789" y="600" type="line"/>
      <point x="147.9000015258789" y="600" type="line"/>
      <point x="147.9000015258789" y="-210" type="line"/>
    </contour>
    <contour>
      <point x="115.4" y="-130.0" type="line"/>
      <point x="35.4" y="-130.0" type="line"/>
      <point x="35.4" y="-160.55728" type="line"/>
      <point x="84.84272" y="-210.0" type="line"/>
      <point x="115.4" y="-210.0" type="line"/>
    </contour>
  </outline>
</glyph>
<glyph name="K_with_cedilla" format="2">
  <advance width="260.8"/>
  <unicode hex="0136"/>
  <outline>
    <contour>
      <point x="32.900001525878906" y="0" type="line"/>
      <point x="112.9000015258789" y="0" type="line"/>
      <point x="112.9000015258789" y="800" type="line"/>
      <point x="32.900001525878906" y="800" type="line"/>
    </contour>
    <contour>
      <point x="147.9000015258789" y="0" type="line"/>
      <point x="227.9000015258789" y="0" type="line"/>
      <point x="227.9000015258789" y="350.5572814941406" type="line"/>
      <point x="178.45728302001953" y="400" type="line"/>
      <point x="227.9000015258789" y="449.4427185058594" type="line"/>
      <point x="227.9000015258789" y="800" type="line"/>
      <point x="147.9000015258789" y="800" type="line"/>
    </contour>
    <contour>
      <point x="125.4" y="-105.0" type="line"/>
      <point x="205.4" y="-105.0" type="line"/>
      <point x="205.4" y="-74.44272000000001" type="line"/>
      <point x="155.95728000000003" y="-25.0" type="line"/>
      <point x="125.4" y="-25.0" type="line"/>
    </contour>
  </outline>
</glyph>
<glyph name="k_with_cedilla" format="2">
  <advance width="260.8"/>
  <unicode hex="0137"/>
  <outline>
    <contour>
      <point x="32.900001525878906" y="0" type="line"/>
      <point x="112.9000015258789" y="0" type="line"/>
      <point x="112.9000015258789" y="800" type="line"/>
      <point x="32.900001525878906" y="800" type="line"/>
    </contour>
    <contour>
      <point x="147.9000015258789" y="0" type="line"/>
      <point x="227.9000015258789" y="0" type="line"/>
      <point x="227.9000015258789" y="250.55728149414062" type="line"/>
      <point x="178.45728302001953" y="300" type="line"/>
      <point x="227.9000015258789" y="349.4427185058594" type="line"/>
      <point x="227.9000015258789" y="600" type="line"/>
      <point x="147.9000015258789" y="600" type="line"/>
    </contour>
    <contour>
      <point x="125.4" y="-105.0" type="line"/>
      <point x="205.4" y="-105.0" type="line"/>
      <point x="205.4" y="-74.44272000000001" type="line"/>
      <point x="155.95728000000003" y="-25.0" type="line"/>
      <point x="125.4" y="-25.0" type="line"/>
    </contour>
  </outline>
</glyph>
<glyph name="l_with_acute" format="2">
  <advance width="145.8"/>
  <unicode hex="013A"/>
  <outline>
    <contour>
      <point x="67.9" y="930.0" type="line"/>
      <point x="67.9" y="850.0" type="line"/>
      <point x="98.45728000000001" y="850.0" type="line"/>
      <point x="147.9" y="899.44272" type="line"/>
      <point x="147.9" y="930.0" type="line"/>
    </contour>
    <contour>
      <point x="82.34272003173828" y="-5" type="line"/>
      <point x="112.9000015258789" y="-5" type="line"/>
      <point x="112.9000015258789" y="800" type="line"/>
      <point x="32.900001525878906" y="800" type="line"/>
      <point x="32.900001525878906" y="44.442718505859375" type="line"/>
    </contour>
  </outline>
</glyph>
<glyph name="L_with_stroke" format="2">
  <advance width="270.8"/>
  <unicode hex="0141"/>
  <outline>
    <contour>
      <point x="42.900001525878906" y="0" type="line"/>
      <point x="122.9000015258789" y="0" type="line"/>
      <point x="122.9000015258789" y="520" type="line"/>
      <point x="123.45728302001953" y="520" type="line"/>
      <point x="172.9000015258789" y="569.4427185058594" type="line"/>
      <point x="172.9000015258789" y="600" type="line"/>
      <point x="122.9000015258789" y="600" type="line"/>
      <point x="122.9000015258789" y="800" type="line"/>
      <point x="42.900001525878906" y="800" type="line"/>
      <point x="42.900001525878906" y="500" type="line"/>
      <point x="42.34272003173828" y="500" type="line"/>
      <point x="-7.099998474121094" y="450.5572814941406" type="line"/>
      <point x="-7.099998474121094" y="420" type="line"/>
      <point x="42.900001525878906" y="420" type="line"/>
    </contour>
    <contour>
      <point x="237.9" y="0.0" type="line"/>
      <point x="237.9" y="80.0" type="line"/>
      <point x="207.34272" y="80.0" type="line"/>
      <point x="157.9" y="30.55728" type="line"/>
      <point x="157.9" y="0.0" type="line"/>
    </contour>
  </outline>
</glyph>
<glyph name="l_with_stroke" format="2">
  <advance width="165.8"/>
  <unicode hex="0142"/>
  <outline>
    <contour>
      <point x="42.34272003173828" y="500" type="line"/>
      <point x="-7.099998474121094" y="450.5572814941406" type="line"/>
      <point x="-7.099998474121094" y="420" type="line"/>
      <point x="42.900001525878906" y="420" type="line"/>
      <point x="42.900001525878906" y="44.442718505859375" type="line"/>
      <point x="92.34272003173828" y="-5" type="line"/>
      <point x="122.9000015258789" y="-5" type="line"/>
      <point x="122.9000015258789" y="520" type="line"/>
      <point x="123.45728302001953" y="520" type="line"/>
      <point x="172.9000015258789" y="569.4427185058594" type="line"/>
      <point x="172.9000015258789" y="600" type="line"/>
      <point x="122.9000015258789" y="600" type="line"/>
      <point x="122.9000015258789" y="800" type="line"/>
      <point x="42.900001525878906" y="800" type="line"/>
      <point x="42.900001525878906" y="500" type="line"/>
    </contour>
  </outline>
</glyph>
<glyph name="N_with_acute" format="2">
  <advance width="260.8"/>
  <unicode hex="0143"/>
  <outline>
    <contour>
      <point x="125.4" y="930.0" type="line"/>
      <point x="125.4" y="850.0" type="line"/>
      <point x="155.95728000000003" y="850.0" type="line"/>
      <point x="205.4" y="899.44272" type="line"/>
      <point x="205.4" y="930.0" type="line"/>
    </contour>
    <contour>
      <point x="32.900001525878906" y="0" type="line"/>
      <point x="112.9000015258789" y="0" type="line"/>
      <point x="112.9000015258789" y="800" type="line"/>
      <point x="32.900001525878906" y="800" type="line"/>
    </contour>
    <contour>
      <point x="147.9000015258789" y="0" type="line"/>
      <point x="227.9000015258789" y="0" type="line"/>
      <point x="227.9000015258789" y="750.5572814941406" type="line"/>
      <point x="178.45728302001953" y="800" type="line"/>
      <point x="147.9000015258789" y="800" type="line"/>
    </contour>
  </outline>
</glyph>
<glyph name="n_with_acute" format="2">
  <advance width="260.8"/>
  <unicode hex="0144"/>
  <outline>
    <contour>
      <point x="125.4" y="730.0" type="line"/>
      <point x="125.4" y="650.0" type="line"/>
      <point x="155.95728000000003" y="650.0" type="line"/>
      <point x="205.4" y="699.44272" type="line"/>
      <point x="205.4" y="730.0" type="line"/>
    </contour>
    <contour>
      <point x="32.900001525878906" y="0" type="line"/>
      <point x="112.9000015258789" y="0" type="line"/>
      <point x="112.9000015258789" y="600" type="line"/>
      <point x="32.900001525878906" y="600" type="line"/>
    </contour>
    <contour>
      <point x="147.9000015258789" y="0" type="line"/>
      <point x="227.9000015258789" y="0" type="line"/>
      <point x="227.9000015258789" y="550.5572814941406" type="line"/>
      <point x="178.45728302001953" y="600" type="line"/>
      <point x="147.9000015258789" y="600" type="line"/>
    </contour>
  </outline>
</glyph>
<glyph name="N_with_cedilla" format="2">
  <advance width="260.8"/>
  <unicode hex="0145"/>
  <outline>
    <contour>
      <point x="32.900001525878906" y="0" type="line"/>
      <point x="112.9000015258789" y="0" type="line"/>
      <point x="112.9000015258789" y="800" type="line"/>
      <point x="32.900001525878906" y="800" type="line"/>
    </contour>
    <contour>
      <point x="147.9000015258789" y="0" type="line"/>
      <point x="227.9000015258789" y="0" type="line"/>
      <point x="227.9000015258789" y="750.5572814941406" type="line"/>
      <point x="178.45728302001953" y="800" type="line"/>
      <point x="147.9000015258789" y="800" type="line"/>
    </contour>
    <contour>
      <point x="125.4" y="-105.0" type="line"/>
      <point x="205.4" y="-105.0" type="line"/>
      <point x="205.4" y="-74.44272000000001" type="line"/>
      <point x="155.95728000000003" y="-25.0" type="line"/>
      <point x="125.4" y="-25.0" type="line"/>
    </contour>
  </outline>
</glyph>
<glyph name="N_with_caron" format="2">
  <advance width="260.8"/>
  <unicode hex="0147"/>
  <outline>
    <contour>
      <point x="47.900000000000006" y="850.0" type="line"/>
      <point x="127.9" y="850.0" type="line"/>
      <point x="127.9" y="880.55728" type="line"/>
      <point x="78.45728" y="930.0" type="line"/>
      <point x="47.900000000000006" y="930.0" type="line"/>
    </contour>
    <contour>
      <point x="212.9" y="850.0" type="line"/>
      <point x="212.9" y="930.0" type="line"/>
      <point x="182.34272" y="930.0" type="line"/>
      <point x="132.9" y="880.55728" type="line"/>
      <point x="132.9" y="850.0" type="line"/>
    </contour>
    <contour>
      <point x="32.900001525878906" y="0" type="line"/>
      <point x="112.9000015258789" y="0" type="line"/>
      <point x="112.9000015258789" y="800" type="line"/>
      <point x="32.900001525878906" y="800" type="line"/>
    </contour>
    <contour>
      <point x="147.9000015258789" y="0" type="line"/>
      <point x="227.9000015258789" y="0" type="line"/>
      <point x="227.9000015258789" y="750.5572814941406" type="line"/>
      <point x="178.45728302001953" y="800" type="line"/>
      <point x="147.9000015258789" y="800" type="line"/>
    </contour>
  </outline>
</glyph>
<glyph name="eng" format="2">
  <advance width="260.8"/>
  <unicode hex="014B"/>
  <outline>
    <contour>
      <point x="32.900001525878906" y="0" type="line"/>
      <point x="112.9000015258789" y="0" type="line"/>
      <point x="112.9000015258789" y="600" type="line"/>
      <point x="32.900001525878906" y="600" type="line"/>
    </contour>
    <contour>
      <point x="178.45728302001953" y="-200" type="line"/>
      <point x="227.9000015258789" y="-150.55728149414062" type="line"/>
      <point x="227.9000015258789" y="550.5572814941406" type="line"/>
      <point x="178.45728302001953" y="600" type="line"/>
      <point x="147.9000015258789" y="600" type="line"/>
      <point x="147.9000015258789" y="-200" type="line"/>
    </contour>
  </outline>
</glyph>
<glyph name="OE" format="2">
  <advance width="490.8"/>
  <unicode hex="0152"/>
  <outline>
    <contour>
      <point x="82.34272003173828" y="-5" type="line"/>
      <point x="112.9000015258789" y="-5" type="line"/>
      <point x="112.9000015258789" y="805" type="line"/>
      <point x="82.34272003173828" y="805" type="line"/>
      <point x="32.900001525878906" y="755.5572814941406" type="line"/>
      <point x="32.900001525878906" y="44.442718505859375" type="line"/>
    </contour>
    <contour>
      <point x="178.45728302001953" y="-5" type="line"/>
      <point x="227.9000015258789" y="44.442718505859375" type="line"/>
      <point x="227.9000015258789" y="755.5572814941406" type="line"/>
      <point x="178.45728302001953" y="805" type="line"/>
      <point x="147.9000015258789" y="805" type="line"/>
      <point x="147.9000015258789" y="-5" type="line"/>
    </contour>
    <contour>
      <point x="262.9000015258789" y="0" type="line"/>
      <point x="342.9000015258789" y="0" type="line"/>
      <point x="342.9000015258789" y="800" type="line"/>
      <point x="262.9000015258789" y="800" type="line"/>
    </contour>
    <contour>
      <point x="457.9" y="800.0" type="line"/>
      <point x="377.9" y="800.0" type="line"/>
      <point x="377.9" y="769.44272" type="line"/>
      <point x="427.34272" y="720.0" type="line"/>
      <point x="457.9" y="720.0" type="line"/>
    </contour>
    <contour>
      <point x="457.9" y="500.0" type="line"/>
      <point x="377.9" y="500.0" type="line"/>
      <point x="377.9" y="469.44272" type="line"/>
      <point x="427.34272" y="420.0" type="line"/>
      <point x="457.9" y="420.0" type="line"/>
    </contour>
    <contour>
      <point x="457.9" y="0.0" type="line"/>
      <point x="457.9" y="80.0" type="line"/>
      <point x="427.34272" y="80.0" type="line"/>
      <point x="377.9" y="30.55728" type="line"/>
      <point x="377.9" y="0.0" type="line"/>
    </contour>
  </outline>
</glyph>
<glyph name="oe" format="2">
  <advance width="490.8"/>
  <unicode hex="0153"/>
  <outline>
    <contour>
      <point x="82.34272003173828" y="-5" type="line"/>
      <point x="112.9000015258789" y="-5" type="line"/>
      <point x="112.9000015258789" y="605" type="line"/>
      <point x="82.34272003173828" y="605" type="line"/>
      <point x="32.900001525878906" y="555.5572814941406" type="line"/>
      <point x="32.900001525878906" y="44.442718505859375" type="line"/>
    </contour>
    <contour>
      <point x="178.45728302001953" y="-5" type="line"/>
      <point x="227.9000015258789" y="44.442718505859375" type="line"/>
      <point x="227.9000015258789" y="555.5572814941406" type="line"/>
      <point x="178.45728302001953" y="605" type="line"/>
      <point x="147.9000015258789" y="605" type="line"/>
      <point x="147.9000015258789" y="-5" type="line"/>
    </contour>
    <contour>
      <point x="312.3427200317383" y="-5" type="line"/>
      <point x="342.9000015258789" y="-5" type="line"/>
      <point x="342.9000015258789" y="605" type="line"/>
      <point x="312.3427200317383" y="605" type="line"/>
      <point x="262.9000015258789" y="555.5572814941406" type="line"/>
      <point x="262.9000015258789" y="44.442718505859375" type="line"/>
    </contour>
    <contour>
      <point x="377.9000015258789" y="195" type="line"/>
      <point x="457.9000015258789" y="195" type="line"/>
      <point x="457.9000015258789" y="555.5572814941406" type="line"/>
      <point x="408.45728302001953" y="605" type="line"/>
      <point x="377.9000015258789" y="605" type="line"/>
    </contour>
  </outline>
</glyph>
<glyph name="r_with_cedilla" format="2">
  <advance width="260.8"/>
  <unicode hex="0157"/>
  <outline>
    <contour>
      <point x="32.900001525878906" y="0" type="line"/>
      <point x="112.9000015258789" y="0" type="line"/>
      <point x="112.9000015258789" y="600" type="line"/>
      <point x="32.900001525878906" y="600" type="line"/>
    </contour>
    <contour>
      <point x="227.9" y="600.0" type="line"/>
      <point x="147.9" y="600.0" type="line"/>
      <point x="147.9" y="569.44272" type="line"/>
      <point x="197.34272" y="520.0" type="line"/>
      <point x="227.9" y="520.0" type="line"/>
    </contour>
    <contour>
      <point x="125.4" y="-105.0" type="line"/>
      <point x="205.4" y="-105.0" type="line"/>
      <point x="205.4" y="-74.44272000000001" type="line"/>
      <point x="155.95728000000003" y="-25.0" type="line"/>
      <point x="125.4" y="-25.0" type="line"/>
    </contour>
  </outline>
</glyph>
<glyph name="R_with_caron" format="2">
  <advance width="260.8"/>
  <unicode hex="0158"/>
  <outline>
    <contour>
      <point x="47.900000000000006" y="850.0" type="line"/>
      <point x="127.9" y="850.0" type="line"/>
      <point x="127.9" y="880.55728" type="line"/>
      <point x="78.45728" y="930.0" type="line"/>
      <point x="47.900000000000006" y="930.0" type="line"/>
    </contour>
    <contour>
      <point x="212.9" y="850.0" type="line"/>
      <point x="212.9" y="930.0" type="line"/>
      <point x="182.34272" y="930.0" type="line"/>
      <point x="132.9" y="880.55728" type="line"/>
      <point x="132.9" y="850.0" type="line"/>
    </contour>
    <contour>
      <point x="32.900001525878906" y="0" type="line"/>
      <point x="112.9000015258789" y="0" type="line"/>
      <point x="112.9000015258789" y="800" type="line"/>
      <point x="32.900001525878906" y="800" type="line"/>
    </contour>
    <contour>
      <point x="147.9000015258789" y="0" type="line"/>
      <point x="227.9000015258789" y="0" type="line"/>
      <point x="227.9000015258789" y="150.55728149414062" type="line"/>
      <point x="178.45728302001953" y="200" type="line"/>
      <point x="227.9000015258789" y="249.44271850585938" type="line"/>
      <point x="227.9000015258789" y="750.5572814941406" type="line"/>
      <point x="178.45728302001953" y="800" type="line"/>
      <point x="147.9000015258789" y="800" type="line"/>
    </contour>
  </outline>
</glyph>
<glyph name="r_with_caron" format="2">
  <advance width="260.8"/>
  <unicode hex="0159"/>
  <outline>
    <contour>
      <point x="47.900000000000006" y="650.0" type="line"/>
      <point x="127.9" y="650.0" type="line"/>
      <point x="127.9" y="680.55728" type="line"/>
      <point x="78.45728" y="730.0" type="line"/>
      <point x="47.900000000000006" y="730.0" type="line"/>
    </contour>
    <contour>
      <point x="212.9" y="650.0" type="line"/>
      <point x="212.9" y="730.0" type="line"/>
      <point x="182.34272" y="730.0" type="line"/>
      <point x="132.9" y="680.55728" type="line"/>
      <point x="132.9" y="650.0" type="line"/>
    </contour>
    <contour>
      <point x="32.900001525878906" y="0" type="line"/>
      <point x="112.9000015258789" y="0" type="line"/>
      <point x="112.9000015258789" y="600" type="line"/>
      <point x="32.900001525878906" y="600" type="line"/>
    </contour>
    <contour>
      <point x="227.9" y="600.0" type="line"/>
      <point x="147.9" y="600.0" type="line"/>
      <point x="147.9" y="569.44272" type="line"/>
      <point x="197.34272" y="520.0" type="line"/>
      <point x="227.9" y="520.0" type="line"/>
    </contour>
  </outline>
</glyph>
<glyph name="S_with_acute" format="2">
  <advance width="260.8"/>
  <unicode hex="015A"/>
  <outline>
    <contour>
      <point x="125.4" y="930.0" type="line"/>
      <point x="125.4" y="850.0" type="line"/>
      <point x="155.95728000000003" y="850.0" type="line"/>
      <point x="205.4" y="899.44272" type="line"/>
      <point x="205.4" y="930.0" type="line"/>
    </contour>
    <contour>
      <point x="82.34272003173828" y="360" type="line"/>
      <point x="112.9000015258789" y="360" type="line"/>
      <point x="112.9000015258789" y="800" type="line"/>
      <point x="82.34272003173828" y="800" type="line"/>
      <point x="32.900001525878906" y="750.5572814941406" type="line"/>
      <point x="32.900001525878906" y="409.4427185058594" type="line"/>
    </contour>
    <contour>
      <point x="225.4" y="800.0" type="line"/>
      <point x="145.4" y="800.0" type="line"/>
      <point x="145.4" y="769.44272" type="line"/>
      <point x="194.84272" y="720.0" type="line"/>
      <point x="225.4" y="720.0" type="line"/>
    </contour>
    <contour>
      <point x="178.45728302001953" y="0" type="line"/>
      <point x="227.9000015258789" y="49.442718505859375" type="line"/>
      <point x="227.9000015258789" y="390.5572814941406" type="line"/>
      <point x="178.45728302001953" y="440" type="line"/>
      <point x="147.9000015258789" y="440" type="line"/>
      <point x="147.9000015258789" y="0" type="line"/>
    </contour>
    <contour>
      <point x="34.15" y="0" type="line"/>
      <point x="114.15" y="0" type="line"/>
      <point x="114.15" y="30.55728" type="line"/>
      <point x="64.70728" y="80.0" type="line"/>
      <point x="34.15" y="80.0" type="line"/>
    </contour>
  </outline>
</glyph>
<glyph name="s_with_acute" format="2">
  <advance width="260.8"/>
  <unicode hex="015B"/>
  <outline>
    <contour>
      <point x="125.4" y="730.0" type="line"/>
      <point x="125.4" y="650.0" type="line"/>
      <point x="155.95728000000003" y="650.0" type="line"/>
      <point x="205.4" y="699.44272" type="line"/>
      <point x="205.4" y="730.0" type="line"/>
    </contour>
    <contour>
      <point x="82.34272003173828" y="260" type="line"/>
      <point x="112.9000015258789" y="260" type="line"/>
      <point x="112.9000015258789" y="600" type="line"/>
      <point x="82.34272003173828" y="600" type="line"/>
      <point x="32.900001525878906" y="550.5572814941406" type="line"/>
      <point x="32.900001525878906" y="309.4427185058594" type="line"/>
    </contour>
    <contour>
      <point x="225.4" y="600.0" type="line"/>
      <point x="145.4" y="600.0" type="line"/>
      <point x="145.4" y="569.44272" type="line"/>
      <point x="194.84272" y="520.0" type="line"/>
      <point x="225.4" y="520.0" type="line"/>
    </contour>
    <contour>
      <point x="178.45728302001953" y="-5" type="line"/>
      <point x="227.9000015258789" y="44.442718505859375" type="line"/>
      <point x="227.9000015258789" y="285.5572814941406" type="line"/>
      <point x="178.45728302001953" y="335" type="line"/>
      <point x="147.9000015258789" y="335" type="line"/>
      <point x="147.9000015258789" y="-5" type="line"/>
    </contour>
    <contour>
      <point x="34.15" y="0" type="line"/>
      <point x="114.15" y="0" type="line"/>
      <point x="114.15" y="30.55728" type="line"/>
      <point x="64.70728" y="80.0" type="line"/>
      <point x="34.15" y="80.0" type="line"/>
    </contour>
  </outline>
</glyph>
<glyph name="T_with_cedilla" format="2">
  <advance width="375.8"/>
  <unicode hex="0162"/>
  <outline>
    <contour>
      <point x="32.9" y="800.0" type="line"/>
      <point x="32.9" y="720.0" type="line"/>
      <point x="63.45728" y="720.0" type="line"/>
      <point x="112.9" y="769.44272" type="line"/>
      <point x="112.9" y="800.0" type="line"/>
    </contour>
    <contour>
      <point x="147.9000015258789" y="0" type="line"/>
      <point x="227.9000015258789" y="0" type="line"/>
      <point x="227.9000015258789" y="800" type="line"/>
      <point x="147.9000015258789" y="800" type="line"/>
    </contour>
    <contour>
      <point x="342.9" y="800.0" type="line"/>
      <point x="262.9" y="800.0" type="line"/>
      <point x="262.9" y="769.44272" type="line"/>
      <point x="312.34272" y="720.0" type="line"/>
      <point x="342.9" y="720.0" type="line"/>
    </contour>
    <contour>
      <point x="182.9" y="-105.0" type="line"/>
      <point x="262.9" y="-105.0" type="line"/>
      <point x="262.9" y="-74.44272000000001" type="line"/>
      <point x="213.45728000000003" y="-25.0" type="line"/>
      <point x="182.9" y="-25.0" type="line"/>
    </contour>
  </outline>
</glyph>
<glyph name="t_with_cedilla" format="2">
  <advance width="260.8"/>
  <unicode hex="0163"/>
  <outline>
    <contour>
      <point x="32.900001525878906" y="0" type="line"/>
      <point x="112.9000015258789" y="0" type="line"/>
      <point x="112.9000015258789" y="800" type="line"/>
      <point x="82.34272003173828" y="800" type="line"/>
      <point x="32.900001525878906" y="750.5572814941406" type="line"/>
    </contour>
    <contour>
      <point x="147.9" y="600.0" type="line"/>
      <point x="147.9" y="520.0" type="line"/>
      <point x="178.45728" y="520.0" type="line"/>
      <point x="227.9" y="569.44272" type="line"/>
      <point x="227.9" y="600.0" type="line"/>
    </contour>
    <contour>
      <point x="76.65" y="-105.0" type="line"/>
      <point x="156.65" y="-105.0" type="line"/>
      <point x="156.65" y="-74.44272000000001" type="line"/>
      <point x="107.20728000000001" y="-25.0" type="line"/>
      <point x="76.65" y="-25.0" type="line"/>
    </contour>
  </outline>
</glyph>
<glyph name="u_with_macron" format="2">
  <advance width="260.8"/>
  <unicode hex="016B"/>
  <outline>
    <contour>
      <point x="50.400001525878906" y="650" type="line"/>
      <point x="210.4000015258789" y="650" type="line"/>
      <point x="210.4000015258789" y="730" type="line"/>
      <point x="50.400001525878906" y="730" type="line"/>
    </contour>
    <contour>
      <point x="82.34272003173828" y="-5" type="line"/>
      <point x="112.9000015258789" y="-5" type="line"/>
      <point x="112.9000015258789" y="600" type="line"/>
      <point x="32.900001525878906" y="600" type="line"/>
      <point x="32.900001525878906" y="44.442718505859375" type="line"/>
    </contour>
    <contour>
      <point x="178.45728302001953" y="-5" type="line"/>
      <point x="227.9000015258789" y="44.442718505859375" type="line"/>
      <point x="227.9000015258789" y="600" type="line"/>
      <point x="147.9000015258789" y="600" type="line"/>
      <point x="147.9000015258789" y="-5" type="line"/>
    </contour>
  </outline>
</glyph>
<glyph name="U_with_ring" format="2">
  <advance width="260.8"/>
  <unicode hex="016E"/>
  <outline>
    <contour>
      <point x="112.9" y="935.0" type="line"/>
      <point x="95.71153000000001" y="935.0" type="line"/>
      <point x="67.9" y="907.18847" type="line"/>
      <point x="67.9" y="872.81153" type="line"/>
      <point x="95.71153000000001" y="845.0" type="line"/>
      <point x="112.9" y="845.0" type="line"/>
    </contour>
    <contour>
      <point x="147.9" y="845.0" type="line"/>
      <point x="165.08847" y="845.0" type="line"/>
      <point x="192.9" y="872.81153" type="line"/>
      <point x="192.9" y="907.18847" type="line"/>
      <point x="165.08847" y="935.0" type="line"/>
      <point x="147.9" y="935.0" type="line"/>
    </contour>
    <contour>
      <point x="82.34272003173828" y="-5" type="line"/>
      <point x="112.9000015258789" y="-5" type="line"/>
      <point x="112.9000015258789" y="800" type="line"/>
      <point x="32.900001525878906" y="800" type="line"/>
      <point x="32.900001525878906" y="44.442718505859375" type="line"/>
    </contour>
    <contour>
      <point x="178.45728302001953" y="-5" type="line"/>
      <point x="227.9000015258789" y="44.442718505859375" type="line"/>
      <point x="227.9000015258789" y="800" type="line"/>
      <point x="147.9000015258789" y="800" type="line"/>
      <point x="147.9000015258789" y="-5" type="line"/>
    </contour>
  </outline>
</glyph>
<glyph name="u_with_ring" format="2">
  <advance width="260.8"/>
  <unicode hex="016F"/>
  <outline>
    <contour>
      <point x="112.9" y="735.0" type="line"/>
      <point x="95.71153000000001" y="735.0" type="line"/>
      <point x="67.9" y="707.18847" type="line"/>
      <point x="67.9" y="672.81153" type="line"/>
      <point x="95.71153000000001" y="645.0" type="line"/>
      <point x="112.9" y="645.0" type="line"/>
    </contour>
    <contour>
      <point x="147.9" y="645.0" type="line"/>
      <point x="165.08847" y="645.0" type="line"/>
      <point x="192.9" y="672.81153" type="line"/>
      <point x="192.9" y="707.18847" type="line"/>
      <point x="165.08847" y="735.0" type="line"/>
      <point x="147.9" y="735.0" type="line"/>
    </contour>
    <contour>
      <point x="82.34272003173828" y="-5" type="line"/>
      <point x="112.9000015258789" y="-5" type="line"/>
      <point x="112.9000015258789" y="600" type="line"/>
      <point x="32.900001525878906" y="600" type="line"/>
      <point x="32.900001525878906" y="44.442718505859375" type="line"/>
    </contour>
    <contour>
      <point x="178.45728302001953" y="-5" type="line"/>
      <point x="227.9000015258789" y="44.442718505859375" type="line"/>
      <point x="227.9000015258789" y="600" type="line"/>
      <point x="147.9000015258789" y="600" type="line"/>
      <point x="147.9000015258789" y="-5" type="line"/>
    </contour>
  </outline>
</glyph>
<glyph name="U_with_acutedbl" format="2">
  <advance width="260.8"/>
  <unicode hex="0170"/>
  <outline>
    <contour>
      <point x="32.900000000000006" y="930.0" type="line"/>
      <point x="32.900000000000006" y="850.0" type="line"/>
      <point x="63.457280000000004" y="850.0" type="line"/>
      <point x="112.9" y="899.44272" type="line"/>
      <point x="112.9" y="930.0" type="line"/>
    </contour>
    <contour>
      <point x="147.9" y="930.0" type="line"/>
      <point x="147.9" y="850.0" type="line"/>
      <point x="178.45728" y="850.0" type="line"/>
      <point x="227.9" y="899.44272" type="line"/>
      <point x="227.9" y="930.0" type="line"/>
    </contour>
    <contour>
      <point x="82.34272003173828" y="-5" type="line"/>
      <point x="112.9000015258789" y="-5" type="line"/>
      <point x="112.9000015258789" y="800" type="line"/>
      <point x="32.900001525878906" y="800" type="line"/>
      <point x="32.900001525878906" y="44.442718505859375" type="line"/>
    </contour>
    <contour>
      <point x="178.45728302001953" y="-5" type="line"/>
      <point x="227.9000015258789" y="44.442718505859375" type="line"/>
      <point x="227.9000015258789" y="800" type="line"/>
      <point x="147.9000015258789" y="800" type="line"/>
      <point x="147.9000015258789" y="-5" type="line"/>
    </contour>
  </outline>
</glyph>
<glyph name="U_with_ogonek" format="2">
  <advance width="260.8"/>
  <unicode hex="0172"/>
  <outline>
    <contour>
      <point x="82.34272003173828" y="-5" type="line"/>
      <point x="112.9000015258789" y="-5" type="line"/>
      <point x="112.9000015258789" y="800" type="line"/>
      <point x="32.900001525878906" y="800" type="line"/>
      <point x="32.900001525878906" y="44.442718505859375" type="line"/>
    </contour>
    <contour>
      <point x="178.45728302001953" y="-5" type="line"/>
      <point x="227.9000015258789" y="44.442718505859375" type="line"/>
      <point x="227.9000015258789" y="800" type="line"/>
      <point x="147.9000015258789" y="800" type="line"/>
      <point x="147.9000015258789" y="-5" type="line"/>
    </contour>
    <contour>
      <point x="130.4" y="-110.0" type="line"/>
      <point x="130.4" y="-30.0" type="line"/>
      <point x="99.84272" y="-30.0" type="line"/>
      <point x="50.400000000000006" y="-79.44272000000001" type="line"/>
      <point x="50.400000000000006" y="-110.0" type="line"/>
    </contour>
  </outline>
</glyph>
<glyph name="w_with_circumflex" format="2">
  <advance width="375.8"/>
  <unicode hex="0175"/>
  <outline>
    <contour>
      <point x="105.4" y="730.0" type="line"/>
      <point x="105.4" y="650.0" type="line"/>
      <point x="135.95728" y="650.0" type="line"/>
      <point x="185.4" y="699.44272" type="line"/>
      <point x="185.4" y="730.0" type="line"/>
    </contour>
    <contour>
      <point x="270.4" y="730.0" type="line"/>
      <point x="190.4" y="730.0" type="line"/>
      <point x="190.4" y="699.44272" type="line"/>
      <point x="239.84272" y="650.0" type="line"/>
      <point x="270.4" y="650.0" type="line"/>
    </contour>
    <contour>
      <point x="82.34272003173828" y="0" type="line"/>
      <point x="112.9000015258789" y="0" type="line"/>
      <point x="112.9000015258789" y="550.5572814941406" type="line"/>
      <point x="63.45728302001953" y="600" type="line"/>
      <point x="32.900001525878906" y="600" type="line"/>
      <point x="32.900001525878906" y="49.442718505859375" type="line"/>
    </contour>
    <contour>
      <point x="147.9000015258789" y="0" type="line"/>
      <point x="227.9000015258789" y="0" type="line"/>
      <point x="227.9000015258789" y="550.5572814941406" type="line"/>
      <point x="178.45728302001953" y="600" type="line"/>
      <point x="147.9000015258789" y="600" type="line"/>
    </contour>
    <contour>
      <point x="293.45728302001953" y="0" type="line"/>
      <point x="342.9000015258789" y="49.442718505859375" type="line"/>
      <point x="342.9000015258789" y="600" type="line"/>
      <point x="262.9000015258789" y="600" type="line"/>
      <point x="262.9000015258789" y="0" type="line"/>
    </contour>
  </outline>
</glyph>
<glyph name="Y_with_diaeresis" format="2">
  <advance width="260.8"/>
  <unicode hex="0178"/>
  <outline>
    <contour>
      <point x="32.900000000000006" y="970.0" type="line"/>
      <point x="112.9" y="970.0" type="line"/>
      <point x="112.9" y="1050.0" type="line"/>
      <point x="32.900000000000006" y="1050.0" type="line"/>
    </contour>
    <contour>
      <point x="147.9" y="970.0" type="line"/>
      <point x="227.9" y="970.0" type="line"/>
      <point x="227.9" y="1050.0" type="line"/>
      <point x="147.9" y="1050.0" type="line"/>
    </contour>
    <contour>
      <point x="82.34272003173828" y="200" type="line"/>
      <point x="112.9000015258789" y="200" type="line"/>
      <point x="112.9000015258789" y="755.5572814941406" type="line"/>
      <point x="63.45728302001953" y="805" type="line"/>
      <point x="32.900001525878906" y="805" type="line"/>
      <point x="32.900001525878906" y="249.44271850585938" type="line"/>
    </contour>
    <contour>
      <point x="178.45728302001953" y="-5" type="line"/>
      <point x="227.9000015258789" y="44.442718505859375" type="line"/>
      <point x="227.9000015258789" y="800" type="line"/>
      <point x="147.9000015258789" y="800" type="line"/>
      <point x="147.9000015258789" y="-5" type="line"/>
    </contour>
    <contour>
      <point x="112.9" y="75.0" type="line"/>
      <point x="32.9" y="75.0" type="line"/>
      <point x="32.9" y="44.44272" type="line"/>
      <point x="82.34272" y="-5.0" type="line"/>
      <point x="112.9" y="-5.0" type="line"/>
    </contour>
  </outline>
</glyph>
<glyph name="Z_with_acute" format="2">
  <advance width="260.8"/>
  <unicode hex="0179"/>
  <outline>
    <contour>
      <point x="125.4" y="930.0" type="line"/>
      <point x="125.4" y="850.0" type="line"/>
      <point x="155.95728000000003" y="850.0" type="line"/>
      <point x="205.4" y="899.44272" type="line"/>
      <point x="205.4" y="930.0" type="line"/>
    </contour>
    <contour>
      <point x="32.9" y="800.0" type="line"/>
      <point x="32.9" y="720.0" type="line"/>
      <point x="63.45728" y="720.0" type="line"/>
      <point x="112.9" y="769.44272" type="line"/>
      <point x="112.9" y="800.0" type="line"/>
    </contour>
    <contour>
      <point x="178.45728302001953" y="360" type="line"/>
      <point x="227.9000015258789" y="409.4427185058594" type="line"/>
      <point x="227.9000015258789" y="800" type="line"/>
      <point x="147.9000015258789" y="800" type="line"/>
      <point x="147.9000015258789" y="360" type="line"/>
    </contour>
    <contour>
      <point x="32.900001525878906" y="0" type="line"/>
      <point x="112.9000015258789" y="0" type="line"/>
      <point x="112.9000015258789" y="440" type="line"/>
      <point x="82.34272003173828" y="440" type="line"/>
      <point x="32.900001525878906" y="390.5572814941406" type="line"/>
    </contour>
    <contour>
      <point x="227.9" y="0.0" type="line"/>
      <point x="227.9" y="80.0" type="line"/>
      <point x="197.34272" y="80.0" type="line"/>
      <point x="147.9" y="30.55728" type="line"/>
      <point x="147.9" y="0.0" type="line"/>
    </contour>
  </outline>
</glyph>
<glyph name="Z_with_dotabove" format="2">
  <advance width="260.8"/>
  <unicode hex="017B"/>
  <outline>
    <contour>
      <point x="90.4" y="970.0" type="line"/>
      <point x="170.4" y="970.0" type="line"/>
      <point x="170.4" y="1050.0" type="line"/>
      <point x="90.4" y="1050.0" type="line"/>
    </contour>
    <contour>
      <point x="32.9" y="800.0" type="line"/>
      <point x="32.9" y="720.0" type="line"/>
      <point x="63.45728" y="720.0" type="line"/>
      <point x="112.9" y="769.44272" type="line"/>
      <point x="112.9" y="800.0" type="line"/>
    </contour>
    <contour>
      <point x="178.45728302001953" y="360" type="line"/>
      <point x="227.9000015258789" y="409.4427185058594" type="line"/>
      <point x="227.9000015258789" y="800" type="line"/>
      <point x="147.9000015258789" y="800" type="line"/>
      <point x="147.9000015258789" y="360" type="line"/>
    </contour>
    <contour>
      <point x="32.900001525878906" y="0" type="line"/>
      <point x="112.9000015258789" y="0" type="line"/>
      <point x="112.9000015258789" y="440" type="line"/>
      <point x="82.34272003173828" y="440" type="line"/>
      <point x="32.900001525878906" y="390.5572814941406" type="line"/>
    </contour>
    <contour>
      <point x="227.9" y="0.0" type="line"/>
      <point x="227.9" y="80.0" type="line"/>
      <point x="197.34272" y="80.0" type="line"/>
      <point x="147.9" y="30.55728" type="line"/>
      <point x="147.9" y="0.0" type="line"/>
    </contour>
  </outline>
</glyph>
<glyph name="z_with_dotabove" format="2">
  <advance width="260.8"/>
  <unicode hex="017C"/>
  <outline>
    <contour>
      <point x="90.4" y="770.0" type="line"/>
      <point x="170.4" y="770.0" type="line"/>
      <point x="170.4" y="850.0" type="line"/>
      <point x="90.4" y="850.0" type="line"/>
    </contour>
    <contour>
      <point x="32.9" y="600.0" type="line"/>
      <point x="32.9" y="520.0" type="line"/>
      <point x="63.45728" y="520.0" type="line"/>
      <point x="112.9" y="569.44272" type="line"/>
      <point x="112.9" y="600.0" type="line"/>
    </contour>
    <contour>
      <point x="178.45728302001953" y="260" type="line"/>
      <point x="227.9000015258789" y="309.4427185058594" type="line"/>
      <point x="227.9000015258789" y="600" type="line"/>
      <point x="147.9000015258789" y="600" type="line"/>
      <point x="147.9000015258789" y="260" type="line"/>
    </contour>
    <contour>
      <point x="32.900001525878906" y="0" type="line"/>
      <point x="112.9000015258789" y="0" type="line"/>
      <point x="112.9000015258789" y="340" type="line"/>
      <point x="82.34272003173828" y="340" type="line"/>
      <point x="32.900001525878906" y="290.5572814941406" type="line"/>
    </contour>
    <contour>
      <point x="227.9" y="0.0" type="line"/>
      <point x="227.9" y="80.0" type="line"/>
      <point x="197.34272" y="80.0" type="line"/>
      <point x="147.9" y="30.55728" type="line"/>
      <point x="147.9" y="0.0" type="line"/>
    </contour>
  </outline>
</glyph>
<glyph name="z_with_caron" format="2">
  <advance width="260.8"/>
  <unicode hex="017E"/>
  <outline>
    <contour>
      <point x="47.900000000000006" y="650.0" type="line"/>
      <point x="127.9" y="650.0" type="line"/>
      <point x="127.9" y="680.55728" type="line"/>
      <point x="78.45728" y="730.0" type="line"/>
      <point x="47.900000000000006" y="730.0" type="line"/>
    </contour>
    <contour>
      <point x="212.9" y="650.0" type="line"/>
      <point x="212.9" y="730.0" type="line"/>
      <point x="182.34272" y="730.0" type="line"/>
      <point x="132.9" y="680.55728" type="line"/>
      <point x="132.9" y="650.0" type="line"/>
    </contour>
    <contour>
      <point x="32.9" y="600.0" type="line"/>
      <point x="32.9" y="520.0" type="line"/>
      <point x="63.45728" y="520.0" type="line"/>
      <point x="112.9" y="569.44272" type="line"/>
      <point x="112.9" y="600.0" type="line"/>
    </contour>
    <contour>
      <point x="178.45728302001953" y="260" type="line"/>
      <point x="227.9000015258789" y="309.4427185058594" type="line"/>
      <point x="227.9000015258789" y="600" type="line"/>
      <point x="147.9000015258789" y="600" type="line"/>
      <point x="147.9000015258789" y="260" type="line"/>
    </contour>
    <contour>
      <point x="32.900001525878906" y="0" type="line"/>
      <point x="112.9000015258789" y="0" type="line"/>
      <point x="112.9000015258789" y="340" type="line"/>
      <point x="82.34272003173828" y="340" type="line"/>
      <point x="32.900001525878906" y="290.5572814941406" type="line"/>
    </contour>
    <contour>
      <point x="227.9" y="0.0" type="line"/>
      <point x="227.9" y="80.0" type="line"/>
      <point x="197.34272" y="80.0" type="line"/>
      <point x="147.9" y="30.55728" type="line"/>
      <point x="147.9" y="0.0" type="line"/>
    </contour>
  </outline>
</glyph>
<glyph name="florin" format="2">
  <advance width="375.8"/>
  <unicode hex="0192"/>
  <outline>
    <contour>
      <point x="178.45728302001953" y="0" type="line"/>
      <point x="227.9000015258789" y="49.442718505859375" type="line"/>
      <point x="227.9000015258789" y="805" type="line"/>
      <point x="197.34272003173828" y="805" type="line"/>
      <point x="147.9000015258789" y="755.5572814941406" type="line"/>
      <point x="147.9000015258789" y="0" type="line"/>
    </contour>
    <contour>
      <point x="347.9" y="777.18847" type="line"/>
      <point x="320.08847" y="805.0" type="line"/>
      <point x="285.71153" y="805.0" type="line"/>
      <point x="257.9" y="777.18847" type="line"/>
      <point x="257.9" y="742.81153" type="line"/>
      <point x="285.71153" y="715.0" type="line"/>
      <point x="320.08847" y="715.0" type="line"/>
      <point x="347.9" y="742.81153" type="line"/>
    </contour>
    <contour>
      <point x="62.900001525878906" y="430" type="line"/>
      <point x="112.9000015258789" y="430" type="line"/>
      <point x="112.9000015258789" y="470" type="line"/>
      <point x="62.900001525878906" y="470" type="line"/>
    </contour>
    <contour>
      <point x="262.9000015258789" y="430" type="line"/>
      <point x="322.9000015258789" y="430" type="line"/>
      <point x="322.9000015258789" y="470" type="line"/>
      <point x="262.9000015258789" y="470" type="line"/>
    </contour>
    <contour>
      <point x="117.9" y="57.18847" type="line"/>
      <point x="90.08847" y="85.0" type="line"/>
      <point x="55.711529999999996" y="85.0" type="line"/>
      <point x="27.9" y="57.18847" type="line"/>
      <point x="27.9" y="22.81153" type="line"/>
      <point x="55.711529999999996" y="-5.0" type="line"/>
      <point x="90.08847" y="-5.0" type="line"/>
      <point x="117.9" y="22.81153" type="line"/>
    </contour>
  </outline>
</glyph>
<glyph name="ae_with_acute" format="2">
  <advance width="490.8"/>
  <unicode hex="01FD"/>
  <outline>
    <contour>
      <point x="240.4" y="730.0" type="line"/>
      <point x="240.4" y="650.0" type="line"/>
      <point x="270.95728" y="650.0" type="line"/>
      <point x="320.4" y="699.44272" type="line"/>
      <point x="320.4" y="730.0" type="line"/>
    </contour>
    <contour>
      <point x="178.45728302001953" y="-5" type="line"/>
      <point x="227.9000015258789" y="44.442718505859375" type="line"/>
      <point x="227.9000015258789" y="555.5572814941406" type="line"/>
      <point x="178.45728302001953" y="605" type="line"/>
      <point x="147.9000015258789" y="605" type="line"/>
      <point x="147.9000015258789" y="-5" type="line"/>
    </contour>
    <contour>
      <point x="312.3427200317383" y="-5" type="line"/>
      <point x="342.9000015258789" y="-5" type="line"/>
      <point x="342.9000015258789" y="605" type="line"/>
      <point x="312.3427200317383" y="605" type="line"/>
      <point x="262.9000015258789" y="555.5572814941406" type="line"/>
      <point x="262.9000015258789" y="44.442718505859375" type="line"/>
    </contour>
    <contour>
      <point x="377.9000015258789" y="195" type="line"/>
      <point x="457.9000015258789" y="195" type="line"/>
      <point x="457.9000015258789" y="555.5572814941406" type="line"/>
      <point x="408.45728302001953" y="605" type="line"/>
      <point x="377.9000015258789" y="605" type="line"/>
    </contour>
    <contour>
      <point x="34.15" y="600.0" type="line"/>
      <point x="34.15" y="520.0" type="line"/>
      <point x="64.70728" y="520.0" type="line"/>
      <point x="114.15" y="569.44272" type="line"/>
      <point x="114.15" y="600.0" type="line"/>
    </contour>
    <contour>
      <point x="82.34272003173828" y="-5" type="line"/>
      <point x="112.9000015258789" y="-5" type="line"/>
      <point x="112.9000015258789" y="395" type="line"/>
      <point x="82.34272003173828" y="395" type="line"/>
      <point x="32.900001525878906" y="345.5572814941406" type="line"/>
      <point x="32.900001525878906" y="44.442718505859375" type="line"/>
    </contour>
  </outline>
</glyph>
<glyph name="A_with_gravedbl" format="2">
  <advance width="260.8"/>
  <unicode hex="0200"/>
  <outline>
    <contour>
      <point x="112.9" y="930.0" type="line"/>
      <point x="32.900000000000006" y="930.0" type="line"/>
      <point x="32.900000000000006" y="899.44272" type="line"/>
      <point x="82.34272000000001" y="850.0" type="line"/>
      <point x="112.9" y="850.0" type="line"/>
    </contour>
    <contour>
      <point x="227.9" y="930.0" type="line"/>
      <point x="147.9" y="930.0" type="line"/>
      <point x="147.9" y="899.44272" type="line"/>
      <point x="197.34272" y="850.0" type="line"/>
      <point x="227.9" y="850.0" type="line"/>
    </contour>
    <contour>
      <point x="32.900001525878906" y="0" type="line"/>
      <point x="112.9000015258789" y="0" type="line"/>
      <point x="112.9000015258789" y="805" type="line"/>
      <point x="82.34272003173828" y="805" type="line"/>
      <point x="32.900001525878906" y="755.5572814941406" type="line"/>
    </contour>
    <contour>
      <point x="147.9000015258789" y="0" type="line"/>
      <point x="227.9000015258789" y="0" type="line"/>
      <point x="227.9000015258789" y="755.5572814941406" type="line"/>
      <point x="178.45728302001953" y="805" type="line"/>
      <point x="147.9000015258789" y="805" type="line"/>
    </contour>
  </outline>
</glyph>
<glyph name="I_with_gravedbl" format="2">
  <advance width="145.8"/>
  <unicode hex="0208"/>
  <outline>
    <contour>
      <point x="55.400000000000006" y="930.0" type="line"/>
      <point x="-24.599999999999994" y="930.0" type="line"/>
      <point x="-24.599999999999994" y="899.44272" type="line"/>
      <point x="24.842720000000007" y="850.0" type="line"/>
      <point x="55.400000000000006" y="850.0" type="line"/>
    </contour>
    <contour>
      <point x="170.4" y="930.0" type="line"/>
      <point x="90.4" y="930.0" type="line"/>
      <point x="90.4" y="899.44272" type="line"/>
      <point x="139.84272" y="850.0" type="line"/>
      <point x="170.4" y="850.0" type="line"/>
    </contour>
    <contour>
      <point x="32.900001525878906" y="0" type="line"/>
      <point x="112.9000015258789" y="0" type="line"/>
      <point x="112.9000015258789" y="800" type="line"/>
      <point x="32.900001525878906" y="800" type="line"/>
    </contour>
  </outline>
</glyph>
<glyph name="i_with_gravedbl" format="2">
  <advance width="145.8"/>
  <unicode hex="0209"/>
  <outline>
    <contour>
      <point x="55.400000000000006" y="730.0" type="line"/>
      <point x="-24.599999999999994" y="730.0" type="line"/>
      <point x="-24.599999999999994" y="699.44272" type="line"/>
      <point x="24.842720000000007" y="650.0" type="line"/>
      <point x="55.400000000000006" y="650.0" type="line"/>
    </contour>
    <contour>
      <point x="170.4" y="730.0" type="line"/>
      <point x="90.4" y="730.0" type="line"/>
      <point x="90.4" y="699.44272" type="line"/>
      <point x="139.84272" y="650.0" type="line"/>
      <point x="170.4" y="650.0" type="line"/>
    </contour>
    <contour>
      <point x="32.900001525878906" y="0" type="line"/>
      <point x="112.9000015258789" y="0" type="line"/>
      <point x="112.9000015258789" y="600" type="line"/>
      <point x="32.900001525878906" y="600" type="line"/>
    </contour>
  </outline>
</glyph>
<glyph name="O_with_gravedbl" format="2">
  <advance width="260.8"/>
  <unicode hex="020C"/>
  <outline>
    <contour>
      <point x="112.9" y="930.0" type="line"/>
      <point x="32.900000000000006" y="930.0" type="line"/>
      <point x="32.900000000000006" y="899.44272" type="line"/>
      <point x="82.34272000000001" y="850.0" type="line"/>
      <point x="112.9" y="850.0" type="line"/>
    </contour>
    <contour>
      <point x="227.9" y="930.0" type="line"/>
      <point x="147.9" y="930.0" type="line"/>
      <point x="147.9" y="899.44272" type="line"/>
      <point x="197.34272" y="850.0" type="line"/>
      <point x="227.9" y="850.0" type="line"/>
    </contour>
    <contour>
      <point x="82.34272003173828" y="-5" type="line"/>
      <point x="112.9000015258789" y="-5" type="line"/>
      <point x="112.9000015258789" y="805" type="line"/>
      <point x="82.34272003173828" y="805" type="line"/>
      <point x="32.900001525878906" y="755.5572814941406" type="line"/>
      <point x="32.900001525878906" y="44.442718505859375" type="line"/>
    </contour>
    <contour>
      <point x="178.45728302001953" y="-5" type="line"/>
      <point x="227.9000015258789" y="44.442718505859375" type="line"/>
      <point x="227.9000015258789" y="755.5572814941406" type="line"/>
      <point x="178.45728302001953" y="805" type="line"/>
      <point x="147.9000015258789" y="805" type="line"/>
      <point x="147.9000015258789" y="-5" type="line"/>
    </contour>
  </outline>
</glyph>
<glyph name="R_with_gravedbl" format="2">
  <advance width="260.8"/>
  <unicode hex="0210"/>
  <outline>
    <contour>
      <point x="112.9" y="930.0" type="line"/>
      <point x="32.900000000000006" y="930.0" type="line"/>
      <point x="32.900000000000006" y="899.44272" type="line"/>
      <point x="82.34272000000001" y="850.0" type="line"/>
      <point x="112.9" y="850.0" type="line"/>
    </contour>
    <contour>
      <point x="227.9" y="930.0" type="line"/>
      <point x="147.9" y="930.0" type="line"/>
      <point x="147.9" y="899.44272" type="line"/>
      <point x="197.34272" y="850.0" type="line"/>
      <point x="227.9" y="850.0" type="line"/>
    </contour>
    <contour>
      <point x="32.900001525878906" y="0" type="line"/>
      <point x="112.9000015258789" y="0" type="line"/>
      <point x="112.9000015258789" y="800" type="line"/>
      <point x="32.900001525878906" y="800" type="line"/>
    </contour>
    <contour>
      <point x="147.9000015258789" y="0" type="line"/>
      <point x="227.9000015258789" y="0" type="line"/>
      <point x="227.9000015258789" y="150.55728149414062" type="line"/>
      <point x="178.45728302001953" y="200" type="line"/>
      <point x="227.9000015258789" y="249.44271850585938" type="line"/>
      <point x="227.9000015258789" y="750.5572814941406" type="line"/>
      <point x="178.45728302001953" y="800" type="line"/>
      <point x="147.9000015258789" y="800" type="line"/>
    </contour>
  </outline>
</glyph>
<glyph name="r_with_breveinv" format="2">
  <advance width="260.8"/>
  <unicode hex="0213"/>
  <outline>
    <contour>
      <point x="50.400001525878906" y="680.5572814941406" type="line"/>
      <point x="50.400001525878906" y="650" type="line"/>
      <point x="210.4000015258789" y="650" type="line"/>
      <point x="210.4000015258789" y="680.5572814941406" type="line"/>
      <point x="160.95728302001953" y="730" type="line"/>
      <point x="99.84272003173828" y="730" type="line"/>
    </contour>
    <contour>
      <point x="32.900001525878906" y="0" type="line"/>
      <point x="112.9000015258789" y="0" type="line"/>
      <point x="112.9000015258789" y="600" type="line"/>
      <point x="32.900001525878906" y="600" type="line"/>
    </contour>
    <contour>
      <point x="227.9" y="600.0" type="line"/>
      <point x="147.9" y="600.0" type="line"/>
      <point x="147.9" y="569.44272" type="line"/>
      <point x="197.34272" y="520.0" type="line"/>
      <point x="227.9" y="520.0" type="line"/>
    </contour>
  </outline>
</glyph>
<glyph name="u_with_gravedbl" format="2">
  <advance width="260.8"/>
  <unicode hex="0215"/>
  <outline>
    <contour>
      <point x="112.9" y="730.0" type="line"/>
      <point x="32.900000000000006" y="730.0" type="line"/>
      <point x="32.900000000000006" y="699.44272" type="line"/>
      <point x="82.34272000000001" y="650.0" type="line"/>
      <point x="112.9" y="650.0" type="line"/>
    </contour>
    <contour>
      <point x="227.9" y="730.0" type="line"/>
      <point x="147.9" y="730.0" type="line"/>
      <point x="147.9" y="699.44272" type="line"/>
      <point x="197.34272" y="650.0" type="line"/>
      <point x="227.9" y="650.0" type="line"/>
    </contour>
    <contour>
      <point x="82.34272003173828" y="-5" type="line"/>
      <point x="112.9000015258789" y="-5" type="line"/>
      <point x="112.9000015258789" y="600" type="line"/>
      <point x="32.900001525878906" y="600" type="line"/>
      <point x="32.900001525878906" y="44.442718505859375" type="line"/>
    </contour>
    <contour>
      <point x="178.45728302001953" y="-5" type="line"/>
      <point x="227.9000015258789" y="44.442718505859375" type="line"/>
      <point x="227.9000015258789" y="600" type="line"/>
      <point x="147.9000015258789" y="600" type="line"/>
      <point x="147.9000015258789" y="-5" type="line"/>
    </contour>
  </outline>
</glyph>
<glyph name="s_with_commabelow" format="2">
  <advance width="260.8"/>
  <unicode hex="0219"/>
  <outline>
    <contour>
      <point x="82.34272003173828" y="260" type="line"/>
      <point x="112.9000015258789" y="260" type="line"/>
      <point x="112.9000015258789" y="600" type="line"/>
      <point x="82.34272003173828" y="600" type="line"/>
      <point x="32.900001525878906" y="550.5572814941406" type="line"/>
      <point x="32.900001525878906" y="309.4427185058594" type="line"/>
    </contour>
    <contour>
      <point x="225.4" y="600.0" type="line"/>
      <point x="145.4" y="600.0" type="line"/>
      <point x="145.4" y="569.44272" type="line"/>
      <point x="194.84272" y="520.0" type="line"/>
      <point x="225.4" y="520.0" type="line"/>
    </contour>
    <contour>
      <point x="178.45728302001953" y="-5" type="line"/>
      <point x="227.9000015258789" y="44.442718505859375" type="line"/>
      <point x="227.9000015258789" y="285.5572814941406" type="line"/>
      <point x="178.45728302001953" y="335" type="line"/>
      <point x="147.9000015258789" y="335" type="line"/>
      <point x="147.9000015258789" y="-5" type="line"/>
    </contour>
    <contour>
      <point x="34.15" y="0" type="line"/>
      <point x="114.15" y="0" type="line"/>
      <point x="114.15" y="30.55728" type="line"/>
      <point x="64.70728" y="80.0" type="line"/>
      <point x="34.15" y="80.0" type="line"/>
    </contour>
    <contour>
      <point x="90.4" y="-90.0" type="line"/>
      <point x="90.4" y="-170.0" type="line"/>
      <point x="120.95728" y="-170.0" type="line"/>
      <point x="170.4" y="-120.55728" type="line"/>
      <point x="170.4" y="-90.0" type="line"/>
    </contour>
  </outline>
</glyph>
<glyph name="T_with_commabelow" format="2">
  <advance width="375.8"/>
  <unicode hex="021A"/>
  <outline>
    <contour>
      <point x="32.9" y="800.0" type="line"/>
      <point x="32.9" y="720.0" type="line"/>
      <point x="63.45728" y="720.0" type="line"/>
      <point x="112.9" y="769.44272" type="line"/>
      <point x="112.9" y="800.0" type="line"/>
    </contour>
    <contour>
      <point x="147.9000015258789" y="0" type="line"/>
      <point x="227.9000015258789" y="0" type="line"/>
      <point x="227.9000015258789" y="800" type="line"/>
      <point x="147.9000015258789" y="800" type="line"/>
    </contour>
    <contour>
      <point x="342.9" y="800.0" type="line"/>
      <point x="262.9" y="800.0" type="line"/>
      <point x="262.9" y="769.44272" type="line"/>
      <point x="312.34272" y="720.0" type="line"/>
      <point x="342.9" y="720.0" type="line"/>
    </contour>
    <contour>
      <point x="147.9" y="-85.0" type="line"/>
      <point x="147.9" y="-165.0" type="line"/>
      <point x="178.45728" y="-165.0" type="line"/>
      <point x="227.9" y="-115.55728" type="line"/>
      <point x="227.9" y="-85.0" type="line"/>
    </contour>
  </outline>
</glyph>
<glyph name="t_with_commabelow" format="2">
  <advance width="260.8"/>
  <unicode hex="021B"/>
  <outline>
    <contour>
      <point x="32.900001525878906" y="0" type="line"/>
      <point x="112.9000015258789" y="0" type="line"/>
      <point x="112.9000015258789" y="800" type="line"/>
      <point x="82.34272003173828" y="800" type="line"/>
      <point x="32.900001525878906" y="750.5572814941406" type="line"/>
    </contour>
    <contour>
      <point x="147.9" y="600.0" type="line"/>
      <point x="147.9" y="520.0" type="line"/>
      <point x="178.45728" y="520.0" type="line"/>
      <point x="227.9" y="569.44272" type="line"/>
      <point x="227.9" y="600.0" type="line"/>
    </contour>
    <contour>
      <point x="90.4" y="-85.0" type="line"/>
      <point x="90.4" y="-165.0" type="line"/>
      <point x="120.95728" y="-165.0" type="line"/>
      <point x="170.4" y="-115.55728" type="line"/>
      <point x="170.4" y="-85.0" type="line"/>
    </contour>
  </outline>
</glyph>
<glyph name="y_with_macron" format="2">
  <advance width="260.8"/>
  <unicode hex="0233"/>
  <outline>
    <contour>
      <point x="50.400001525878906" y="650" type="line"/>
      <point x="210.4000015258789" y="650" type="line"/>
      <point x="210.4000015258789" y="730" type="line"/>
      <point x="50.400001525878906" y="730" type="line"/>
    </contour>
    <contour>
      <point x="82.34272003173828" y="5" type="line"/>
      <point x="112.9000015258789" y="5" type="line"/>
      <point x="112.9000015258789" y="550.5572814941406" type="line"/>
      <point x="63.45728302001953" y="600" type="line"/>
      <point x="32.900001525878906" y="600" type="line"/>
      <point x="32.900001525878906" y="54.442718505859375" type="line"/>
    </contour>
    <contour>
      <point x="178.45728302001953" y="-210" type="line"/>
      <point x="227.9000015258789" y="-160.55728149414062" type="line"/>
      <point x="227.9000015258789" y="600" type="line"/>
      <point x="147.9000015258789" y="600" type="line"/>
      <point x="147.9000015258789" y="-210" type="line"/>
    </contour>
    <contour>
      <point x="112.9" y="-130.0" type="line"/>
      <point x="32.9" y="-130.0" type="line"/>
      <point x="32.9" y="-160.55728" type="line"/>
      <point x="82.34272" y="-210.0" type="line"/>
      <point x="112.9" y="-210.0" type="line"/>
    </contour>
  </outline>
</glyph>
<glyph name="j_dotless" format="2">
  <advance width="260.8"/>
  <unicode hex="0237"/>
  <outline>
    <contour>
      <point x="178.45728302001953" y="-210" type="line"/>
      <point x="227.9000015258789" y="-160.55728149414062" type="line"/>
      <point x="227.9000015258789" y="600" type="line"/>
      <point x="147.9000015258789" y="600" type="line"/>
      <point x="147.9000015258789" y="-210" type="line"/>
    </contour>
    <contour>
      <point x="115.4" y="-130.0" type="line"/>
      <point x="35.4" y="-130.0" type="line"/>
      <point x="35.4" y="-160.55728" type="line"/>
      <point x="84.84272" y="-210.0" type="line"/>
      <point x="115.4" y="-210.0" type="line"/>
    </contour>
  </outline>
</glyph>
<glyph name="turnedcomma" format="2">
  <advance width="145.8"/>
  <unicode hex="02BB"/>
  <outline>
    <contour>
      <point x="32.900001525878906" y="620" type="line"/>
      <point x="112.9000015258789" y="620" type="line"/>
      <point x="112.9000015258789" y="800" type="line"/>
      <point x="82.34272003173828" y="800" type="line"/>
      <point x="32.900001525878906" y="750.5572814941406" type="line"/>
    </contour>
  </outline>
</glyph>
<glyph name="apostrophe" format="2">
  <advance width="145.8"/>
  <unicode hex="02BC"/>
  <outline>
    <contour>
      <point x="63.45728302001953" y="600" type="line"/>
      <point x="112.9000015258789" y="649.4427185058594" type="line"/>
      <point x="112.9000015258789" y="800" type="line"/>
      <point x="32.900001525878906" y="800" type="line"/>
      <point x="32.900001525878906" y="600" type="line"/>
    </contour>
  </outline>
</glyph>
<glyph name="circumflex" format="2">
  <advance width="260.8"/>
  <unicode hex="02C6"/>
  <outline>
    <contour>
      <point x="47.9" y="880.0" type="line"/>
      <point x="47.9" y="800.0" type="line"/>
      <point x="78.45728" y="800.0" type="line"/>
      <point x="127.9" y="849.44272" type="line"/>
      <point x="127.9" y="880.0" type="line"/>
    </contour>
    <contour>
      <point x="212.9" y="880.0" type="line"/>
      <point x="132.9" y="880.0" type="line"/>
      <point x="132.9" y="849.44272" type="line"/>
      <point x="182.34272" y="800.0" type="line"/>
      <point x="212.9" y="800.0" type="line"/>
    </contour>
  </outline>
</glyph>
<glyph name="breve" format="2">
  <advance width="260.8"/>
  <unicode hex="02D8"/>
  <outline>
    <contour>
      <point x="50.400001525878906" y="849.4427185058594" type="line"/>
      <point x="99.84272003173828" y="800" type="line"/>
      <point x="160.95728302001953" y="800" type="line"/>
      <point x="210.4000015258789" y="849.4427185058594" type="line"/>
      <point x="210.4000015258789" y="880" type="line"/>
      <point x="50.400001525878906" y="880" type="line"/>
    </contour>
  </outline>
</glyph>
<glyph name="dotabove" format="2">
  <advance width="145.8"/>
  <unicode hex="02D9"/>
  <outline>
    <contour>
      <point x="32.9" y="920.0" type="line"/>
      <point x="112.9" y="920.0" type="line"/>
      <point x="112.9" y="1000.0" type="line"/>
      <point x="32.9" y="1000.0" type="line"/>
    </contour>
  </outline>
</glyph>
<glyph name="ring" format="2">
  <advance width="260.8"/>
  <unicode hex="02DA"/>
  <outline>
    <contour>
      <point x="112.9" y="885.0" type="line"/>
      <point x="95.71153" y="885.0" type="line"/>
      <point x="67.9" y="857.18847" type="line"/>
      <point x="67.9" y="822.81153" type="line"/>
      <point x="95.71153" y="795.0" type="line"/>
      <point x="112.9" y="795.0" type="line"/>
    </contour>
    <contour>
      <point x="147.9" y="795.0" type="line"/>
      <point x="165.08847" y="795.0" type="line"/>
      <point x="192.9" y="822.81153" type="line"/>
      <point x="192.9" y="857.18847" type="line"/>
      <point x="165.08847" y="885.0" type="line"/>
      <point x="147.9" y="885.0" type="line"/>
    </contour>
  </outline>
</glyph>
<glyph name="ogonek" format="2">
  <advance width="145.8"/>
  <unicode hex="02DB"/>
  <outline>
    <contour>
      <point x="72.9" y="-80.0" type="line"/>
      <point x="72.9" y="0.0" type="line"/>
      <point x="42.34272" y="0.0" type="line"/>
      <point x="-7.100000000000001" y="-49.44272000000001" type="line"/>
      <point x="-7.100000000000001" y="-80.0" type="line"/>
    </contour>
  </outline>
</glyph>
<glyph name="smalltilde" format="2">
  <advance width="260.8"/>
  <unicode hex="02DC"/>
  <outline>
    <contour>
      <point x="50.400001525878906" y="830.5572814941406" type="line"/>
      <point x="50.400001525878906" y="800" type="line"/>
      <point x="160.95728302001953" y="800" type="line"/>
      <point x="210.4000015258789" y="849.4427185058594" type="line"/>
      <point x="210.4000015258789" y="880" type="line"/>
      <point x="99.84272003173828" y="880" type="line"/>
    </contour>
  </outline>
</glyph>
<glyph name="acutedbl" format="2">
  <advance width="260.8"/>
  <unicode hex="02DD"/>
  <outline>
    <contour>
      <point x="32.9" y="880.0" type="line"/>
      <point x="32.9" y="800.0" type="line"/>
      <point x="63.45728" y="800.0" type="line"/>
      <point x="112.9" y="849.44272" type="line"/>
      <point x="112.9" y="880.0" type="line"/>
    </contour>
    <contour>
      <point x="147.9" y="880.0" type="line"/>
      <point x="147.9" y="800.0" type="line"/>
      <point x="178.45728" y="800.0" type="line"/>
      <point x="227.9" y="849.44272" type="line"/>
      <point x="227.9" y="880.0" type="line"/>
    </contour>
  </outline>
</glyph>
<glyph name="combining_grave" format="2">
  <advance width="145.8"/>
  <unicode hex="0300"/>
  <outline>
    <contour>
      <point x="-182.9" y="730.0" type="line"/>
      <point x="-262.90000000000003" y="730.0" type="line"/>
      <point x="-262.90000000000003" y="699.44272" type="line"/>
      <point x="-213.45728" y="650.0" type="line"/>
      <point x="-182.9" y="650.0" type="line"/>
    </contour>
  </outline>
</glyph>
<glyph name="combining_acute" format="2">
  <advance width="145.8"/>
  <unicode hex="0301"/>
  <outline>
    <contour>
      <point x="-192.9" y="730.0" type="line"/>
      <point x="-192.9" y="650.0" type="line"/>
      <point x="-162.34271999999999" y="650.0" type="line"/>
      <point x="-112.9" y="699.44272" type="line"/>
      <point x="-112.9" y="730.0" type="line"/>
    </contour>
  </outline>
</glyph>
<glyph name="combining_circumflex" format="2">
  <advance width="260.8"/>
  <unicode hex="0302"/>
  <outline>
    <contour>
      <point x="-212.9" y="730.0" type="line"/>
      <point x="-212.9" y="650.0" type="line"/>
      <point x="-182.34271999999999" y="650.0" type="line"/>
      <point x="-132.9" y="699.44272" type="line"/>
      <point x="-132.9" y="730.0" type="line"/>
    </contour>
    <contour>
      <point x="-47.9" y="730.0" type="line"/>
      <point x="-127.9" y="730.0" type="line"/>
      <point x="-127.9" y="699.44272" type="line"/>
      <point x="-78.45728" y="650.0" type="line"/>
      <point x="-47.9" y="650.0" type="line"/>
    </contour>
  </outline>
</glyph>
<glyph name="combining_macron" format="2">
  <advance width="260.8"/>
  <unicode hex="0304"/>
  <outline>
    <contour>
      <point x="-210.4000015258789" y="650" type="line"/>
      <point x="-50.400001525878906" y="650" type="line"/>
      <point x="-50.400001525878906" y="730" type="line"/>
      <point x="-210.4000015258789" y="730" type="line"/>
    </contour>
  </outline>
</glyph>
<glyph name="combining_dotabove" format="2">
  <advance width="145.8"/>
  <unicode hex="0307"/>
  <outline>
    <contour>
      <point x="-227.9" y="770.0" type="line"/>
      <point x="-147.9" y="770.0" type="line"/>
      <point x="-147.9" y="850.0" type="line"/>
      <point x="-227.9" y="850.0" type="line"/>
    </contour>
  </outline>
</glyph>
<glyph name="combining_diaeresis" format="2">
  <advance width="260.8"/>
  <unicode hex="0308"/>
  <outline>
    <contour>
      <point x="-227.9" y="770.0" type="line"/>
      <point x="-147.9" y="770.0" type="line"/>
      <point x="-147.9" y="850.0" type="line"/>
      <point x="-227.9" y="850.0" type="line"/>
    </contour>
    <contour>
      <point x="-112.9" y="770.0" type="line"/>
      <point x="-32.9" y="770.0" type="line"/>
      <point x="-32.9" y="850.0" type="line"/>
      <point x="-112.9" y="850.0" type="line"/>
    </contour>
  </outline>
</glyph>
<glyph name="combining_hook" format="2">
  <advance width="145.8"/>
  <unicode hex="0309"/>
  <outline>
    <contour>
      <point x="-192.9" y="650.0" type="line"/>
      <point x="-112.9" y="650.0" type="line"/>
      <point x="-112.9" y="680.55728" type="line"/>
      <point x="-162.34271999999999" y="730.0" type="line"/>
      <point x="-192.9" y="730.0" type="line"/>
    </contour>
  </outline>
</glyph>
<glyph name="combining_ring" format="2">
  <advance width="260.8"/>
  <unicode hex="030A"/>
  <outline>
    <contour>
      <point x="-147.9" y="735.0" type="line"/>
      <point x="-165.08847" y="735.0" type="line"/>
      <point x="-192.9" y="707.18847" type="line"/>
      <point x="-192.9" y="672.81153" type="line"/>
      <point x="-165.08847" y="645.0" type="line"/>
      <point x="-147.9" y="645.0" type="line"/>
    </contour>
    <contour>
      <point x="-112.9" y="645.0" type="line"/>
      <point x="-95.71152999999998" y="645.0" type="line"/>
      <point x="-67.9" y="672.81153" type="line"/>
      <point x="-67.9" y="707.18847" type="line"/>
      <point x="-95.71152999999998" y="735.0" type="line"/>
      <point x="-112.9" y="735.0" type="line"/>
    </contour>
  </outline>
</glyph>
<glyph name="combining_acutedbl" format="2">
  <advance width="260.8"/>
  <unicode hex="030B"/>
  <outline>
    <contour>
      <point x="-227.9" y="730.0" type="line"/>
      <point x="-227.9" y="650.0" type="line"/>
      <point x="-197.34271999999999" y="650.0" type="line"/>
      <point x="-147.9" y="699.44272" type="line"/>
      <point x="-147.9" y="730.0" type="line"/>
    </contour>
    <contour>
      <point x="-112.9" y="730.0" type="line"/>
      <point x="-112.9" y="650.0" type="line"/>
      <point x="-82.34272000000001" y="650.0" type="line"/>
      <point x="-32.9" y="699.44272" type="line"/>
      <point x="-32.9" y="730.0" type="line"/>
    </contour>
  </outline>
</glyph>
<glyph name="combining_caron" format="2">
  <advance width="260.8"/>
  <unicode hex="030C"/>
  <outline>
    <contour>
      <point x="-212.9" y="650.0" type="line"/>
      <point x="-132.9" y="650.0" type="line"/>
      <point x="-132.9" y="680.55728" type="line"/>
      <point x="-182.34271999999999" y="730.0" type="line"/>
      <point x="-212.9" y="730.0" type="line"/>
    </contour>
    <contour>
      <point x="-47.9" y="650.0" type="line"/>
      <point x="-47.9" y="730.0" type="line"/>
      <point x="-78.45728" y="730.0" type="line"/>
      <point x="-127.9" y="680.55728" type="line"/>
      <point x="-127.9" y="650.0" type="line"/>
    </contour>
  </outline>
</glyph>
<glyph name="combining_gravedbl" format="2">
  <advance width="260.8"/>
  <unicode hex="030F"/>
  <outline>
    <contour>
      <point x="-147.9" y="730.0" type="line"/>
      <point x="-227.9" y="730.0" type="line"/>
      <point x="-227.9" y="699.44272" type="line"/>
      <point x="-178.45728" y="650.0" type="line"/>
      <point x="-147.9" y="650.0" type="line"/>
    </contour>
    <contour>
      <point x="-32.9" y="730.0" type="line"/>
      <point x="-112.9" y="730.0" type="line"/>
      <point x="-112.9" y="699.44272" type="line"/>
      <point x="-63.457280000000004" y="650.0" type="line"/>
      <point x="-32.9" y="650.0" type="line"/>
    </contour>
  </outline>
</glyph>
<glyph name="combining_breveinv" format="2">
  <advance width="260.8"/>
  <unicode hex="0311"/>
  <outline>
    <contour>
      <point x="-210.4000015258789" y="680.5572814941406" type="line"/>
      <point x="-210.4000015258789" y="650" type="line"/>
      <point x="-50.400001525878906" y="650" type="line"/>
      <point x="-50.400001525878906" y="680.5572814941406" type="line"/>
      <point x="-99.84272003173828" y="730" type="line"/>
      <point x="-160.95728302001953" y="730" type="line"/>
    </contour>
  </outline>
</glyph>
<glyph name="combining_dotbelow" format="2">
  <advance width="145.8"/>
  <unicode hex="0323"/>
  <outline>
    <contour>
      <point x="-227.9" y="-140.0" type="line"/>
      <point x="-147.9" y="-140.0" type="line"/>
      <point x="-147.9" y="-60.0" type="line"/>
      <point x="-227.9" y="-60.0" type="line"/>
    </contour>
  </outline>
</glyph>
<glyph name="combining_diaeresisbelow" format="2">
  <advance width="260.8"/>
  <unicode hex="0324"/>
  <outline>
    <contour>
      <point x="-227.9" y="-140.0" type="line"/>
      <point x="-147.9" y="-140.0" type="line"/>
      <point x="-147.9" y="-60.0" type="line"/>
      <point x="-227.9" y="-60.0" type="line"/>
    </contour>
    <contour>
      <point x="-112.9" y="-140.0" type="line"/>
      <point x="-32.9" y="-140.0" type="line"/>
      <point x="-32.9" y="-60.0" type="line"/>
      <point x="-112.9" y="-60.0" type="line"/>
    </contour>
  </outline>
</glyph>
<glyph name="combining_commabelow" format="2">
  <advance width="145.8"/>
  <unicode hex="0326"/>
  <outline>
    <contour>
      <point x="-227.9" y="-60.0" type="line"/>
      <point x="-227.9" y="-140.0" type="line"/>
      <point x="-197.34271999999999" y="-140.0" type="line"/>
      <point x="-147.9" y="-90.55728" type="line"/>
      <point x="-147.9" y="-60.0" type="line"/>
    </contour>
  </outline>
</glyph>
<glyph name="combining_cedilla" format="2">
  <advance width="145.8"/>
  <unicode hex="0327"/>
  <outline>
    <contour>
      <point x="-192.9" y="-80.0" type="line"/>
      <point x="-112.9" y="-80.0" type="line"/>
      <point x="-112.9" y="-49.44272000000001" type="line"/>
      <point x="-162.34271999999999" y="0.0" type="line"/>
      <point x="-192.9" y="0.0" type="line"/>
    </contour>
  </outline>
</glyph>
<glyph name="PI" format="2">
  <advance width="330.8"/>
  <unicode hex="03A0"/>
  <outline>
    <contour>
      <point x="32.900001525878906" y="720" type="line"/>
      <point x="297.9000015258789" y="720" type="line"/>
      <point x="297.9000015258789" y="800" type="line"/>
      <point x="32.900001525878906" y="800" type="line"/>
    </contour>
    <contour>
      <point x="67.9000015258789" y="0" type="line"/>
      <point x="147.9000015258789" y="0" type="line"/>
      <point x="147.9000015258789" y="692.5" type="line"/>
      <point x="67.9000015258789" y="692.5" type="line"/>
    </contour>
    <contour>
      <point x="182.9000015258789" y="0" type="line"/>
      <point x="262.9000015258789" y="0" type="line"/>
      <point x="262.9000015258789" y="692.5" type="line"/>
      <point x="182.9000015258789" y="692.5" type="line"/>
    </contour>
  </outline>
</glyph>
<glyph name="pi" format="2">
  <advance width="350.8"/>
  <unicode hex="03C0"/>
  <outline>
    <contour>
      <point x="32.900001525878906" y="550.5572814941406" type="line"/>
      <point x="32.900001525878906" y="520" type="line"/>
      <point x="268.45728302001953" y="520" type="line"/>
      <point x="317.9000015258789" y="569.4427185058594" type="line"/>
      <point x="317.9000015258789" y="600" type="line"/>
      <point x="82.34272003173828" y="600" type="line"/>
    </contour>
    <contour>
      <point x="72.9000015258789" y="0" type="line"/>
      <point x="152.9000015258789" y="0" type="line"/>
      <point x="152.9000015258789" y="492.5" type="line"/>
      <point x="72.9000015258789" y="492.5" type="line"/>
    </contour>
    <contour>
      <point x="237.34272003173828" y="0" type="line"/>
      <point x="302.9000015258789" y="0" type="line"/>
      <point x="302.9000015258789" y="80" type="line"/>
      <point x="267.9000015258789" y="80" type="line"/>
      <point x="267.9000015258789" y="492.5" type="line"/>
      <point x="187.9000015258789" y="492.5" type="line"/>
      <point x="187.9000015258789" y="49.442718505859375" type="line"/>
    </contour>
  </outline>
</glyph>
